<svg width="73" height="32" viewBox="0 0 73 32" fill="none" xmlns="http://www.w3.org/2000/svg">
<path fill-rule="evenodd" clip-rule="evenodd" d="M41.4315 15.7237C41.4315 14.8924 42.6021 14.2891 44.3972 14.2891C46.4446 14.2891 48.3679 15.0137 49.5649 16.0324C49.7875 16.2213 50.1273 16.1621 50.2726 15.9087L51.7339 13.01C51.7882 12.9156 51.806 12.8046 51.7839 12.6979C51.7618 12.5913 51.7014 12.4964 51.6141 12.4311C49.8088 11.0778 47.379 10.1055 44.3583 10.1055C39.4028 10.1055 36.6333 12.8693 36.6333 16.0223C36.6333 23.3839 47.8312 20.8362 47.8312 24.073C47.8312 24.9587 46.8168 25.7087 44.6709 25.7087C42.5385 25.7087 40.0187 24.8696 38.554 23.7094C38.3358 23.5365 38.0139 23.595 37.8668 23.8323L36.2076 26.6011C36.1511 26.6919 36.1293 26.7999 36.1462 26.9054C36.163 27.011 36.2174 27.1069 36.2994 27.1757C38.2985 28.8514 41.3143 29.8403 44.4372 29.8403C49.6653 29.8403 52.5918 27.2716 52.5918 23.8077C52.5894 16.3893 41.4315 18.6808 41.4315 15.7237Z" fill="white"/>
<path fill-rule="evenodd" clip-rule="evenodd" d="M18.8598 3.17188H14.5009C14.4167 3.17198 14.336 3.20542 14.2764 3.26486C14.2169 3.32429 14.1834 3.40487 14.1834 3.4889V12.6678C12.7229 11.0761 10.7639 10.1064 8.55919 10.1064C3.85376 10.1064 0.0390625 14.5237 0.0390625 19.9728C0.0390625 25.4215 3.85357 29.8389 8.5582 29.8389C10.7628 29.8389 12.7227 28.8694 14.1824 27.2777V29.0549C14.1824 29.139 14.2159 29.2195 14.2754 29.279C14.335 29.3384 14.4157 29.3719 14.5 29.372H18.859C18.9432 29.3719 19.024 29.3385 19.0836 29.2791C19.1432 29.2196 19.1767 29.139 19.1768 29.0549V3.48811C19.1768 3.31363 19.0349 3.17188 18.8598 3.17188ZM9.60473 25.6951C7.07584 25.6951 5.02669 23.1322 5.02669 19.9701C5.02669 16.8077 7.07663 14.245 9.60493 14.245C12.1221 14.245 14.1643 16.7859 14.1822 19.9276V20.0115C14.1653 23.1552 12.1227 25.6951 9.60473 25.6951Z" fill="white"/>
<path fill-rule="evenodd" clip-rule="evenodd" d="M65.4584 10.1058C63.1553 10.1058 61.3841 11.0711 60.221 12.6466V3.4891C60.221 3.40503 60.1875 3.32441 60.128 3.26493C60.0684 3.20545 59.9876 3.17198 59.9034 3.17188H55.5443C55.46 3.17193 55.3792 3.20537 55.3196 3.26486C55.26 3.32434 55.2266 3.405 55.2266 3.4891V29.0557C55.2266 29.1398 55.2601 29.2204 55.3197 29.2798C55.3793 29.3393 55.4601 29.3727 55.5443 29.3728H59.9034C59.9876 29.3727 60.0684 29.3392 60.1279 29.2798C60.1874 29.2203 60.2209 29.1398 60.221 29.0557V18.1226C60.2243 15.6477 61.9966 14.268 64.1366 14.268C66.279 14.268 67.9612 15.5817 67.9612 18.8074L67.9654 29.0557C67.9655 29.1398 67.999 29.2204 68.0586 29.2798C68.1181 29.3393 68.1989 29.3727 68.2832 29.3728H72.6422C72.7265 29.3727 72.8072 29.3392 72.8667 29.2798C72.9263 29.2203 72.9598 29.1398 72.9598 29.0557V18.5041C72.9606 12.7027 69.6231 10.1058 65.4584 10.1058Z" fill="white"/>
<path d="M24.8344 5.24892C24.8344 3.62176 26.1937 2.30469 27.7856 2.30469C29.4168 2.30469 30.737 3.62176 30.737 5.24892C30.737 6.87628 29.4168 8.19335 27.7858 8.19335C26.1937 8.19335 24.8346 6.87628 24.8346 5.24912L24.8344 5.24892ZM33.4352 24.5906C31.4405 25.7465 29.3015 26.0518 27.8283 26.0542C26.3551 26.0518 24.2153 25.7475 22.2212 24.5906C21.8941 24.4082 21.72 24.727 21.788 25.005C22.4651 27.7807 24.9024 29.8393 27.8104 29.8563H27.8462C30.7541 29.8393 33.1914 27.7815 33.8685 25.005C33.9364 24.7262 33.7623 24.4076 33.4352 24.5906ZM32.2551 17.5806C30.6802 18.4934 28.9913 18.7341 27.8283 18.7359C26.6653 18.7341 24.9755 18.4934 23.4013 17.5806C23.143 17.4366 23.0055 17.6882 23.0589 17.9077C23.5933 20.0995 25.5175 21.7251 27.8138 21.7378H27.8418C30.1382 21.7243 32.0624 20.0995 32.5968 17.9077C32.6512 17.6882 32.5135 17.4366 32.2551 17.5806ZM30.9987 11.6065C29.8713 12.2598 28.6608 12.4326 27.8283 12.4336C26.9956 12.4319 25.7851 12.2598 24.6577 11.6065C24.4725 11.503 24.3749 11.6836 24.4133 11.8404C24.7962 13.4099 26.1741 14.5735 27.818 14.5828H27.8385C29.4832 14.5735 30.8612 13.4099 31.2434 11.8402C31.2817 11.6836 31.1832 11.5038 30.9989 11.6063L30.9987 11.6065Z" fill="white"/>
</svg>
