<svg width="148" height="30" viewBox="0 0 148 30" fill="none" xmlns="http://www.w3.org/2000/svg">
<path fill-rule="evenodd" clip-rule="evenodd" d="M106.784 10.1175C106.308 10.1175 105.824 10.1343 105.34 10.1578V9.80762C105.636 9.66906 105.832 9.56325 105.914 9.48179L106.013 9.31972C106.062 9.18955 106.086 8.9116 106.102 8.4724C106.127 7.8367 106.144 7.45376 106.144 7.332V3.53541C106.144 2.90055 106.127 2.27325 106.102 1.66274C106.086 1.2227 106.053 0.953135 105.996 0.872518C105.928 0.782379 105.833 0.716417 105.725 0.684411C105.603 0.65166 105.258 0.618911 104.684 0.611353V0.170475C105.882 0.194828 106.62 0.21162 106.906 0.21162C107.218 0.21162 107.933 0.194828 109.032 0.170475V0.611353C108.44 0.618911 108.088 0.65166 107.956 0.684411C107.833 0.725559 107.743 0.782665 107.694 0.855725C107.637 0.953138 107.606 1.18155 107.587 1.54013C107.579 1.62998 107.563 2.2976 107.546 3.53541V8.27673C107.546 8.77303 107.554 9.17276 107.587 9.48179C108.145 9.51454 108.21 9.5221 108.761 9.5221C110.155 9.5221 111.196 9.44065 111.754 9.27017C111.82 9.13077 111.877 8.9687 111.928 8.78899L112.223 7.61667H112.707C112.584 8.43438 112.477 9.25443 112.386 10.0763C112.189 10.1175 112.024 10.1334 111.912 10.1486C111.656 10.157 111.254 10.157 110.73 10.157L106.784 10.1175ZM115.914 10.1175L113.643 10.1578V9.7186C114.215 9.71021 114.57 9.67746 114.692 9.63631C114.795 9.61144 114.887 9.55433 114.954 9.47339C115.012 9.37598 115.053 9.15681 115.069 8.79739C115.078 8.69158 115.086 8.02396 115.111 6.78531V3.53457C115.111 2.89971 115.094 2.27241 115.069 1.6619C115.053 1.22186 115.02 0.952296 114.963 0.871678C114.895 0.78154 114.8 0.715578 114.692 0.683572C114.57 0.650821 114.215 0.618072 113.643 0.610514V0.169636C114.577 0.193989 115.307 0.210781 115.816 0.210781C116.3 0.210781 117.024 0.193989 117.974 0.169636V0.610514C117.392 0.618072 117.046 0.650821 116.923 0.683572C116.792 0.72472 116.71 0.781826 116.661 0.854886C116.604 0.952299 116.563 1.17231 116.554 1.53929C116.547 1.62915 116.531 2.29676 116.505 3.53457V6.78531C116.505 7.42941 116.522 8.05587 116.531 8.65799C116.547 9.09802 116.579 9.36758 116.636 9.4482C116.694 9.52966 116.783 9.59516 116.906 9.63547C117.037 9.67662 117.391 9.70937 117.973 9.71776V10.157C116.931 10.1335 116.243 10.1175 115.914 10.1175ZM116.505 6.78531V3.53457C116.531 2.29676 116.547 1.62915 116.554 1.53929L116.505 6.78531ZM129.254 10.4097L129.065 10.2216L128.95 10.1167C128.851 10.0273 128.758 9.93197 128.671 9.83113C128.261 9.3827 127.957 9.04932 127.769 8.8209L126.816 7.65615L121.574 1.63671V7.0935C121.574 7.55873 121.591 8.10374 121.626 8.7386C121.642 9.12993 121.673 9.37347 121.722 9.46332L121.878 9.60188C122.042 9.66738 122.38 9.70853 122.897 9.71693V10.1561C122.422 10.1297 121.946 10.1162 121.47 10.1158C120.894 10.1158 120.279 10.1326 119.607 10.1561V9.71693C120.123 9.70853 120.467 9.66738 120.632 9.59432L120.78 9.46332C120.829 9.36591 120.862 9.12153 120.887 8.72264C120.911 8.10374 120.928 7.57385 120.928 7.12541V1.39905C120.928 1.24453 120.919 1.13788 120.895 1.09757C120.828 0.978605 120.736 0.875934 120.625 0.796942C120.538 0.722781 120.433 0.672173 120.321 0.64998C120.065 0.624194 119.808 0.610745 119.55 0.609674V0.168796C120.395 0.193149 120.936 0.209941 121.159 0.209941C121.527 0.209941 121.896 0.193149 122.266 0.168796C122.674 0.682733 122.978 1.06482 123.177 1.31759L124.686 3.10209L126.885 5.65918C127.582 6.47375 128.148 7.11701 128.582 7.58224C128.853 7.89128 129.074 8.13565 129.263 8.30696V3.19195C129.263 2.72672 129.246 2.19011 129.222 1.57876C129.198 1.18743 129.165 0.943055 129.124 0.85404L128.968 0.715484C128.804 0.649983 128.46 0.617232 127.951 0.609674V0.168796C128.533 0.193149 129.123 0.209941 129.722 0.209941C130.279 0.209941 130.796 0.193149 131.257 0.168796V0.609674C130.74 0.617232 130.404 0.649983 130.24 0.715484L130.092 0.86244C130.041 0.951455 130 1.19583 129.984 1.60396C129.96 2.13578 129.947 2.66802 129.944 3.20035V6.5804C129.944 7.26481 129.959 8.54377 129.984 10.4173L129.254 10.4097ZM134.799 10.1175L132.536 10.1578V9.7186C133.11 9.71021 133.454 9.67746 133.585 9.63631C133.687 9.60924 133.778 9.55252 133.847 9.47339C133.905 9.37598 133.937 9.15681 133.954 8.79739C133.963 8.69158 133.978 8.02396 133.995 6.78531V3.53457C133.995 2.89971 133.987 2.27241 133.954 1.6619C133.937 1.22186 133.905 0.952296 133.847 0.871678C133.785 0.780101 133.692 0.713493 133.585 0.683572C133.454 0.650821 133.11 0.618072 132.536 0.610514V0.169636C133.47 0.193989 134.193 0.210781 134.702 0.210781C135.193 0.210781 135.916 0.193989 136.859 0.169636V0.610514C136.284 0.618072 135.932 0.650821 135.809 0.683572C135.687 0.72472 135.594 0.781826 135.555 0.854886C135.489 0.952299 135.456 1.17231 135.438 1.53929C135.43 1.62915 135.421 2.29676 135.397 3.53457V6.78531C135.397 7.42941 135.407 8.05587 135.421 8.65799C135.43 9.09802 135.472 9.36758 135.53 9.4482C135.597 9.5387 135.692 9.60452 135.8 9.63547C135.923 9.67662 136.275 9.70937 136.858 9.71776V10.157C135.818 10.1335 135.137 10.1175 134.799 10.1175ZM141.667 10.0763C141.055 9.91612 140.475 9.65164 139.953 9.29453C139.49 8.98636 139.082 8.60386 138.745 8.16252C138.436 7.7441 138.195 7.27924 138.031 6.78531C137.867 6.2974 137.794 5.75072 137.794 5.16456C137.794 3.67398 138.343 2.44372 139.434 1.46623C140.535 0.487906 142.035 0 143.939 0C144.381 0 144.798 0.0243579 145.185 0.0730643C145.655 0.137932 146.12 0.230462 146.579 0.350182C147.128 0.487904 147.465 0.570201 147.588 0.594554C147.483 0.835883 147.404 1.08713 147.35 1.34447C147.264 1.80149 147.209 2.26388 147.186 2.7284H146.744L146.735 1.90627C146.686 1.45028 146.415 1.10765 145.932 0.880078C145.438 0.660059 144.726 0.545849 143.791 0.545849C143.084 0.562644 142.485 0.644104 142.002 0.79862C141.518 0.953956 141.075 1.21565 140.706 1.56448C140.327 1.90627 140.025 2.3463 139.787 2.88375C139.548 3.41281 139.424 4.08126 139.424 4.89583C139.424 6.30496 139.875 7.4462 140.796 8.30108C141.706 9.16436 142.912 9.5876 144.414 9.5876C145.087 9.5876 145.71 9.49859 146.292 9.32728C146.707 9.19569 147.102 9.00659 147.464 8.76548L147.587 8.91159L147.3 9.57165C146.76 9.83123 146.193 10.0306 145.61 10.1662C145.015 10.2945 144.407 10.3576 143.798 10.3543C143.078 10.3606 142.361 10.2671 141.667 10.0763ZM98.1289 10.0763C97.5169 9.91612 96.9371 9.65164 96.4149 9.29453C95.9532 8.98634 95.5457 8.60383 95.209 8.16252C94.8986 7.74456 94.657 7.27961 94.4935 6.78531C94.3298 6.2974 94.2576 5.75072 94.2576 5.16456C94.2576 3.67398 94.8051 2.44372 95.8959 1.46623C96.9969 0.487906 98.4975 0 100.393 0C100.844 0 101.262 0.0243579 101.647 0.0730643C102.117 0.137932 102.583 0.230462 103.041 0.350182C103.591 0.487904 103.929 0.570201 104.05 0.594554C103.947 0.836163 103.867 1.08734 103.812 1.34447C103.73 1.74336 103.683 2.20774 103.65 2.7284H103.206L103.198 1.90627C103.148 1.45028 102.878 1.10765 102.394 0.880078C101.902 0.660059 101.188 0.545849 100.253 0.545849C99.5464 0.562644 98.9476 0.644104 98.4639 0.79862C97.9802 0.953956 97.5375 1.21565 97.1682 1.56448C96.7911 1.90627 96.4871 2.3463 96.2495 2.88375C96.0118 3.41281 95.8867 4.08126 95.8867 4.89583C95.8867 6.30496 96.3393 7.4462 97.2496 8.30108C98.1683 9.16436 99.3734 9.5876 100.868 9.5876C101.549 9.5876 102.172 9.49859 102.754 9.32728C103.169 9.19371 103.564 9.00474 103.928 8.76548L104.05 8.91159L103.765 9.57165C103.222 9.83222 102.652 10.0316 102.066 10.1662C101.473 10.295 100.868 10.358 100.262 10.3543C99.5414 10.3607 98.8236 10.2671 98.1289 10.0763ZM50.6855 10.3039C50.6333 10.1598 50.573 10.0188 50.5049 9.88152L49.9969 8.85449L46.4615 1.91383V6.80966C46.4615 7.44536 46.4774 8.06427 46.5186 8.66638C46.527 9.10642 46.569 9.36758 46.6252 9.4482C46.6748 9.53806 46.7739 9.59516 46.8965 9.63547C47.0191 9.67662 47.3802 9.70937 47.963 9.71776V10.1654L46.1751 10.1091L44.3125 10.1654V9.71776C44.8953 9.70937 45.248 9.67662 45.379 9.63547C45.51 9.59516 45.6007 9.53806 45.6502 9.47255C45.7073 9.38354 45.7401 9.15596 45.7561 8.79654C45.7645 8.69913 45.7737 8.03908 45.7972 6.80882V3.58328C45.7972 2.95597 45.7812 2.33791 45.7561 1.72572C45.7393 1.29408 45.7065 1.02535 45.6502 0.943897C45.5814 0.856822 45.4863 0.794367 45.379 0.765868C45.2564 0.72472 44.8953 0.700369 44.3125 0.691971V0.21918C44.829 0.259489 45.3303 0.276285 45.798 0.276285C46.2826 0.276285 46.7335 0.259489 47.1761 0.21918C47.5546 1.04787 47.9511 1.86824 48.3652 2.67969L51.1801 8.13733L53.7154 3.13652C54.4048 1.77526 54.8642 0.807016 55.101 0.21918C55.5404 0.255074 55.981 0.274123 56.4219 0.276285C56.7503 0.276285 57.2827 0.259489 58.0208 0.21918V0.691971C57.4305 0.700369 57.0778 0.72472 56.9543 0.765868C56.8233 0.806177 56.7419 0.863278 56.6923 0.935497C56.626 1.02535 56.5848 1.24621 56.5773 1.60479C56.5689 1.69297 56.5605 2.36226 56.5445 3.58328V6.80882C56.5445 7.44452 56.5529 8.06343 56.5773 8.66554C56.5932 9.10558 56.626 9.36674 56.6831 9.44736C56.7484 9.53998 56.8446 9.60635 56.9543 9.63463C57.0769 9.67578 57.438 9.70853 58.0208 9.71693V10.1645C57.3183 10.1333 56.6153 10.1145 55.9122 10.1083C55.5838 10.1083 54.8549 10.1251 53.7305 10.1645V9.71693C54.3133 9.70853 54.6744 9.67578 54.8054 9.63463C54.928 9.59432 55.0195 9.53722 55.0598 9.47171C55.1253 9.3743 55.1589 9.15512 55.1749 8.7957C55.1749 8.69829 55.1908 8.03824 55.2076 6.80798V1.67533L52.6556 6.73408C52.2542 7.51675 51.9418 8.1516 51.7117 8.63195C51.4572 9.18494 51.2111 9.74177 50.9735 10.3022H50.6855V10.3039ZM68.0703 10.1175L65.682 10.1654V9.71776C66.2405 9.70937 66.5764 9.69341 66.6914 9.66822C66.814 9.64387 66.8879 9.61112 66.9291 9.56241L66.9954 9.3995C66.9954 9.30208 66.961 9.16352 66.8963 9.00061L65.9768 6.8592H61.678L60.8828 8.65883C60.7434 8.98549 60.6695 9.22146 60.6695 9.36842L60.7274 9.5305C60.7983 9.59504 60.8864 9.63764 60.981 9.65311C61.1624 9.69342 61.4823 9.7186 61.9417 9.7186V10.1662C61.3156 10.1393 60.689 10.1234 60.0623 10.1183C59.587 10.1183 59.0621 10.1351 58.4877 10.1662V9.7186C58.8732 9.7186 59.1192 9.70181 59.2175 9.67746C59.3178 9.64537 59.4103 9.59243 59.4887 9.5221C59.5702 9.4566 59.6844 9.27017 59.8406 8.9603C59.9229 8.78898 60.2429 8.12977 60.8005 6.98937L62.6547 3.03827C62.8604 2.6058 63.2946 1.63754 63.9597 0.130163H64.4274L67.6017 7.1674C68.119 8.3078 68.4558 9.01657 68.6271 9.31048C68.7178 9.48096 68.8236 9.58676 68.9311 9.63547C69.0461 9.68501 69.2913 9.71776 69.686 9.71776V10.1654C69.1478 10.14 68.6091 10.124 68.0703 10.1175ZM61.9333 6.26465H65.682L63.8278 2.05239L61.9333 6.26465ZM73.2626 10.1175C72.705 10.1175 71.9584 10.1343 71.0406 10.1654V9.71776C71.615 9.70937 71.9677 9.68502 72.0903 9.64387C72.2204 9.60272 72.3027 9.54645 72.3439 9.48095C72.4094 9.3827 72.4505 9.16352 72.4589 8.80494C72.4673 8.70753 72.4833 8.04748 72.5076 6.82646V6.01188C72.4144 5.8205 72.3133 5.63307 72.2045 5.45008C72.1306 5.33587 71.8845 4.92774 71.4495 4.24334L69.5626 1.5964C69.3333 1.22942 69.1612 1.0094 69.0461 0.911984C68.9383 0.831224 68.8151 0.773229 68.6842 0.741516C68.5372 0.708765 68.3399 0.684413 67.7495 0.668458V0.220019C68.7262 0.25277 69.0134 0.268725 69.5055 0.268725C70.0135 0.268725 71.3185 0.25277 72.2372 0.220019V0.668458C71.6628 0.684413 71.1623 0.708765 71.0641 0.741516C70.965 0.781824 70.9163 0.847326 70.9079 0.927944C70.9003 1.0094 71.0313 1.27813 71.2849 1.71816L73.4927 5.26197L75.8465 1.71816C76.1421 1.27897 76.2815 1.0094 76.2891 0.927944C76.2891 0.847326 76.2412 0.781824 76.1497 0.741516C76.0514 0.708765 75.6248 0.684413 75.0588 0.668458V0.220019C75.7124 0.247924 76.3664 0.264161 77.0205 0.268725C77.5126 0.268725 77.7746 0.25277 78.7513 0.220019V0.668458C78.1609 0.684413 77.9476 0.708765 77.7998 0.741516C77.6638 0.77356 77.5353 0.831429 77.4211 0.911984C77.2993 1.0094 77.1011 1.22942 76.8408 1.5964L74.6742 4.67582C74.2552 5.32747 74.0175 5.72636 73.9688 5.87332C73.9109 6.01944 73.8865 6.15884 73.8865 6.28816V6.82646C73.8865 7.46132 73.8949 8.07183 73.9285 8.67478C73.9453 9.11566 73.9772 9.37514 74.0343 9.45744C74.0839 9.5389 74.1821 9.60356 74.3047 9.64471C74.4198 9.68586 74.7725 9.71021 75.3469 9.7186V10.1662C74.6525 10.1361 73.9576 10.1199 73.2626 10.1175ZM81.2286 9.99489C80.5876 9.77438 80.0046 9.41213 79.523 8.9351C79.0531 8.44787 78.6949 7.86415 78.4733 7.22451C78.2339 6.58922 78.1091 5.9165 78.1047 5.23762C78.1047 4.4961 78.2273 3.8117 78.4574 3.19279C78.695 2.56465 79.0805 2.00284 79.6221 1.49815C80.1572 1.00485 80.7849 0.622652 81.4688 0.373695C82.1498 0.121766 82.9367 0 83.8142 0C84.6263 0 85.3644 0.105809 86.0287 0.31743C86.6946 0.537449 87.2438 0.822969 87.6704 1.18071C88.097 1.53929 88.4245 1.92978 88.6706 2.35386C88.8595 2.67046 89.0149 3.03744 89.1215 3.46907C89.2366 3.90155 89.2853 4.3651 89.2853 4.853C89.2853 6.42589 88.7277 7.7292 87.6125 8.77975C86.4956 9.82274 85.0932 10.3442 83.396 10.3442C82.6591 10.3491 81.9266 10.231 81.2286 9.99489ZM81.4335 1.08246C80.8497 1.41064 80.3847 1.91504 80.105 2.5235C79.8018 3.15164 79.654 3.86041 79.654 4.65818C79.654 5.09822 79.7036 5.54582 79.7934 6.01021C79.8917 6.46536 80.0067 6.86593 80.1545 7.19091C80.3838 7.75356 80.6962 8.22551 81.0732 8.60088C81.4604 8.98382 81.8853 9.26849 82.3522 9.44736C82.8527 9.62495 83.3806 9.71335 83.9116 9.70853C84.7069 9.70853 85.3963 9.52882 85.9783 9.16268C86.5619 8.79571 86.9969 8.28261 87.2841 7.61499C87.5797 6.95494 87.7191 6.18067 87.7191 5.309C87.7191 4.56832 87.6125 3.88391 87.4076 3.25577C87.2898 2.88815 87.1186 2.53985 86.8995 2.22202C86.6918 1.9126 86.4368 1.63773 86.1437 1.40745C85.8481 1.17064 85.4711 0.974972 85.0042 0.820455C84.5172 0.660919 84.0076 0.58095 83.4951 0.583637C82.7057 0.586156 82.0238 0.75747 81.4335 1.08246Z" fill="white"/>
<path fill-rule="evenodd" clip-rule="evenodd" d="M18.8611 29.9983C13.7831 28.0912 10.3871 24.8816 9.53386 19.497C9.03336 19.7414 8.50011 19.9698 7.9425 20.1806C3.0198 18.3323 0 15.0169 0 9.0873V0.199219H15.8909V5.1446H14.061V2.01647H1.82229V10.1781C1.82229 13.266 2.39753 17.0869 7.94334 19.5466C13.4892 17.0861 14.0627 13.266 14.0627 10.1781V7.85704H11.1664V16.3042C10.665 16.8173 10.0747 17.3145 9.3617 17.7797C9.33826 17.416 9.32733 17.0516 9.32895 16.6872V6.02467H20.7649V7.85704H15.8917V9.08814C15.8917 13.5842 14.1526 16.5738 11.1748 18.5624C11.2806 22.17 12.536 26.5603 18.8611 29.371C25.5146 26.4142 26.5651 21.7056 26.5651 17.9989V7.85704H23.5537V10.1781C23.5537 12.2406 23.825 14.6423 25.6464 16.7367V17.9821C23.1523 16.0044 21.7247 13.1694 21.7247 9.08814V0.199219H37.6156V9.0873C37.6156 15.0169 34.5958 18.3323 29.674 20.1806C29.1671 19.9911 28.669 19.7792 28.1808 19.5457C27.3201 24.9068 23.9316 28.1004 18.8611 29.9983ZM23.5537 6.02467H28.395V16.6872C28.395 17.4446 28.353 18.1618 28.2799 18.8462C28.7311 19.1056 29.1965 19.3394 29.674 19.5466C35.2198 17.0861 35.7942 13.266 35.7942 10.1781V2.01647H23.5537V6.02467Z" fill="white"/>
</svg>
