<svg width="115" height="20" viewBox="0 0 115 20" fill="none" xmlns="http://www.w3.org/2000/svg">
<path d="M106.189 9.00662C105.817 8.80851 105.534 8.65962 105.182 8.47243C103.997 7.84412 103.077 7.34824 103.077 6.28756C103.077 5.0966 104.212 4.58759 105.478 4.58759C107.175 4.58759 108.488 5.15025 108.751 5.24875V2.73328C108.54 2.66868 107.375 2.2812 105.221 2.2812C101.918 2.2812 100.14 4.22308 100.14 6.43751C100.14 8.64648 101.942 9.78491 103.441 10.5796C103.784 10.7613 104.199 10.9813 104.526 11.1543C105.768 11.8133 106.681 12.331 106.681 13.4749C106.681 14.7764 105.418 15.3916 104.157 15.3916C102.004 15.3916 100.697 14.6089 100.475 14.4874L99.7458 16.7117C99.9591 16.8387 101.676 17.7122 104.206 17.7122C107.303 17.7122 109.616 15.9061 109.616 13.2341C109.616 11.3371 108.321 10.1363 106.189 9.00662ZM91.1866 9.42476H89.3883V4.71458H91.1866C93.5597 4.71458 93.9763 6.24598 93.9763 7.04723C93.9763 7.98423 93.4992 9.42476 91.1866 9.42476ZM93.9686 11.2856V11.1904C94.5863 10.9594 96.7308 9.88014 96.7308 7.06257C96.7308 5.05282 95.4294 2.47386 91.2569 2.47386H86.7041V17.5261H89.3883V11.6644H90.3523C91.7438 11.6644 92.0967 12.169 92.965 13.7223L95.1238 17.5261H98.218L95.7185 13.1356C94.8963 11.6687 94.2643 11.371 93.9686 11.2856ZM31.5618 9.42476H29.7646V4.71458H31.5618C33.9371 4.71458 34.3503 6.24598 34.3503 7.04723C34.3503 7.98423 33.8744 9.42476 31.5618 9.42476ZM34.3449 11.2856V11.1904C34.9637 10.9594 37.1071 9.88014 37.1071 7.06257C37.1071 5.05282 35.8045 2.47386 31.6321 2.47386H27.0782V17.5261H29.7646V11.6644H30.7297C32.119 11.6644 32.4719 12.169 33.3402 13.7223L35.5001 17.5261H38.5932L36.0937 13.1356C35.2737 11.6687 34.6405 11.371 34.3449 11.2856ZM64.1139 11.5779H66.4188V14.9505C65.8329 15.2252 65.2141 15.4069 64.2249 15.4069C61.0296 15.4069 59.4434 13.2812 59.4434 10.0345C59.4434 6.83377 61.0526 4.59308 64.3205 4.59308C65.5197 4.59308 66.7354 4.97727 67.7444 5.60889L68.5007 3.3003C67.3113 2.68185 65.734 2.2834 64.1161 2.2834C59.5006 2.2834 56.5636 5.64501 56.5636 10.2184C56.5636 14.5378 59.162 17.7155 64.0215 17.7155C66.0913 17.7155 67.7917 17.1912 69.1404 16.5048V9.40286H64.8272L64.1139 11.5779ZM76.2487 10.9704H82.0425V8.73185H76.2487V4.71238H82.0667L82.8009 2.47386H73.4964V17.5261H82.8229V15.2876H76.2487V10.9704ZM46.8524 15.4069C44.1077 15.4069 42.6766 13.418 42.6766 10.0115C42.6766 6.582 44.1077 4.59308 46.8524 4.59308C49.6641 4.59308 51.027 6.67287 51.027 10.0115C51.027 13.418 49.575 15.4069 46.8524 15.4069ZM46.8524 2.2834C42.4645 2.2834 39.7968 5.43921 39.7968 10.0115C39.7968 14.6297 42.4886 17.7166 46.8524 17.7166C51.1721 17.7166 53.9069 14.6297 53.9069 10.0115C53.9069 5.4622 51.2403 2.2834 46.8524 2.2834ZM114.637 15.8546L114.142 17.1386H114.135L113.634 15.8546H113.267V17.5261H113.495V16.1283H113.501L114.053 17.5261H114.207L114.76 16.1283H114.766V17.5261H115V15.8546H114.636H114.637ZM111.685 16.0604H112.225V17.5261H112.458V16.0604H112.998V15.8546H111.685L111.685 16.0604ZM16.1678 9.30982C16.8152 8.46696 17.3186 7.07459 17.3186 5.64172C17.3186 2.72236 14.5751 0 10.0289 0C7.23807 0 5.02214 1.11763 3.52395 2.39177C4.2582 2.15315 5.30133 1.9112 6.60606 1.9112C10.0948 1.9112 14.186 4.65217 16.1678 9.30982ZM3.91527 10.6912C3.26785 11.533 2.76442 12.9265 2.76442 14.3583C2.76442 17.2776 5.50798 20 10.0542 20C12.845 20 15.0609 18.8824 16.558 17.6093C15.8249 17.848 14.7817 18.0888 13.477 18.0888C9.98822 18.0888 5.89707 15.3489 3.91527 10.6912ZM9.34739 3.90018C8.50213 3.25434 7.10287 2.75299 5.66515 2.75299C2.73474 2.75299 0 5.4852 0 10.0137C0 12.793 1.12227 14.9986 2.4006 16.4895C2.16099 15.7605 1.91916 14.7206 1.91916 13.4213C1.91916 9.94801 4.67039 5.87378 9.34739 3.90018ZM18.1639 6.57874C18.1639 10.0531 15.4126 14.1273 10.7345 16.1009C11.5798 16.7457 12.9802 17.2481 14.4179 17.2481C17.3494 17.2481 20.0831 14.5159 20.0831 9.98851C20.0831 7.20816 18.9597 5.00137 17.6825 3.51047C17.921 4.23949 18.1639 5.2794 18.1639 6.57874Z" fill="white"/>
</svg>
