<svg width="71" height="40" viewBox="0 0 71 40" fill="none" xmlns="http://www.w3.org/2000/svg">
<mask id="mask0_9533_165604" style="mask-type:luminance" maskUnits="userSpaceOnUse" x="0" y="0" width="71" height="40">
<path d="M0 0H70.8V40H0V0Z" fill="white"/>
</mask>
<g mask="url(#mask0_9533_165604)">
<path d="M16.4584 23.416C16.1584 23.416 15.8968 23.2416 15.6968 22.8928C15.4956 22.5766 15.3874 22.21 15.3848 21.8352V18.824C15.3848 18.488 15.4848 18.1768 15.6848 17.8536C15.8848 17.5416 16.1088 17.3808 16.3832 17.3808C16.6832 17.3808 16.9328 17.5424 17.132 17.8528C17.332 18.1648 17.4192 18.488 17.4192 18.824V21.8352C17.4192 22.196 17.3312 22.5448 17.1448 22.8928C16.9576 23.2416 16.7328 23.416 16.4584 23.416ZM26.0664 19.5456V16.9824C26.9648 16.9824 27.4144 17.4176 27.4144 18.2888C27.4272 19.1224 26.9768 19.5456 26.0664 19.5456ZM35.488 33.5576V33.296H35.6504C35.788 33.296 35.8504 33.3336 35.8504 33.4208C35.8504 33.52 35.7752 33.5568 35.6256 33.5568L35.488 33.5576ZM35.488 33.6696H35.6256L35.8496 34.0304H35.9872L35.7504 33.6696C35.9 33.6448 35.9744 33.5576 35.9744 33.4328C35.9744 33.2712 35.8752 33.1968 35.6752 33.1968H35.3512V34.0432H35.488V33.6696ZM35.0512 33.6072C35.0512 33.2088 35.2512 32.9976 35.6376 32.9976C36.0376 32.9976 36.2496 33.1968 36.2496 33.6072C36.2496 34.0304 36.0496 34.2296 35.6376 34.2296C35.2384 34.2296 35.0512 34.0184 35.0512 33.6072ZM35.6376 34.3544C35.8496 34.3544 36.0376 34.2792 36.1744 34.1424C36.2437 34.0719 36.2981 33.9882 36.3346 33.8962C36.371 33.8043 36.3886 33.706 36.3864 33.6072C36.3874 33.5122 36.3691 33.418 36.3326 33.3303C36.2962 33.2426 36.2424 33.1632 36.1744 33.0968C36.1036 33.0278 36.0197 32.9735 35.9277 32.9373C35.8357 32.901 35.7373 32.8834 35.6384 32.8856C35.4428 32.8857 35.2548 32.9613 35.1136 33.0968C35.0418 33.1608 34.9847 33.2395 34.946 33.3276C34.9074 33.4157 34.8881 33.511 34.8896 33.6072C34.8868 33.7072 34.9053 33.8067 34.9439 33.8989C34.9826 33.9912 35.0404 34.0742 35.1136 34.1424C35.2545 34.278 35.4422 34.3539 35.6376 34.3544ZM49.04 25.892H52.3344V21.3504L54.2688 25.8544H57.7872V14.6064H54.4056V19.2856L52.4712 14.6064H49.0392V25.8928L49.04 25.892ZM32.968 25.8424H36.212V21.1632L38.4704 25.8424H41.952L39.244 19.5464L41.6776 14.5928H38.3336L36.212 18.9608V14.5928H32.9672L32.968 25.8424ZM26.0664 25.8424V21.5744L28.1008 25.892H31.62L29.1368 20.8024C30.372 20.1432 31.0328 19.1848 31.1208 17.928C31.1456 17.244 30.9208 16.5464 30.4464 15.8624C29.8104 15.016 28.9992 14.6056 28.0136 14.6056H22.872V25.8544H26.0672L26.0664 25.8424ZM46.8184 25.8424V14.5928H43.5744V25.8424H46.8184ZM16.4584 26.4272C17.9064 26.4272 19.0784 25.88 20.0024 24.7848C20.9128 23.6896 21.3752 22.196 21.3752 20.3048C21.3752 18.3512 20.9128 16.8328 20.0024 15.7376C19.0784 14.6432 17.8936 14.0952 16.4208 14.0952C15.0104 14.0952 13.8376 14.6552 12.9016 15.788C11.9656 16.908 11.492 18.4256 11.4536 20.3048C11.4536 22.196 11.916 23.6896 12.852 24.7848C13.788 25.88 14.9856 26.4272 16.4584 26.4272ZM71.1392 19.9936L35.776 38L0.398438 19.9936L35.7744 2L71.1392 19.9936Z" fill="white"/>
</g>
</svg>
