<svg width="58" height="36" viewBox="0 0 58 36" fill="none" xmlns="http://www.w3.org/2000/svg">
<path d="M56.0163 31.221C56.2741 31.23 56.5182 31.34 56.6965 31.5275C56.8748 31.7149 56.9732 31.965 56.9707 32.2244C56.9682 32.4838 56.8649 32.7319 56.683 32.9158C56.5011 33.0998 56.2549 33.2049 55.997 33.2089L55.9254 33.206C55.665 33.192 55.4206 33.075 55.2456 32.8806C55.0706 32.6862 54.9791 32.4301 54.9911 32.1681C55.0031 31.9062 55.1176 31.6596 55.3097 31.4822C55.5017 31.3048 55.7557 31.2109 56.0163 31.221ZM56.0127 31.4586C55.8133 31.4553 55.6208 31.5319 55.4775 31.6714C55.3343 31.8108 55.252 32.0018 55.2487 32.2023C55.2455 32.4028 55.3216 32.5964 55.4603 32.7405C55.599 32.8846 55.789 32.9673 55.9884 32.9706L56.0507 32.9691C56.2451 32.9572 56.4274 32.8698 56.5591 32.7254C56.6907 32.5811 56.7615 32.3909 56.7565 32.1951C56.7515 31.9993 56.6711 31.8131 56.5322 31.6757C56.3933 31.5383 56.2076 31.4605 56.0127 31.4586ZM56.0285 31.8114C56.1953 31.8114 56.3221 31.9194 56.3221 32.0742C56.3221 32.1287 56.3045 32.1817 56.2722 32.2254C56.2398 32.2691 56.1943 32.3012 56.1424 32.3168L56.3486 32.5861H56.176L55.9805 32.3363H55.8402V32.5861H55.6998V31.8114H56.0285ZM56.0679 31.9395H55.8337V32.2023H56.0213C56.0386 32.2058 56.0563 32.2057 56.0735 32.202C56.0907 32.1984 56.107 32.1914 56.1214 32.1813C56.1359 32.1712 56.1481 32.1583 56.1575 32.1434C56.1669 32.1285 56.1732 32.1118 56.176 32.0943C56.1793 32.0771 56.1791 32.0593 56.1755 32.0421C56.1718 32.0249 56.1648 32.0086 56.1548 31.9942C56.1448 31.9797 56.132 31.9675 56.1172 31.9581C56.1024 31.9487 56.0851 31.9424 56.0679 31.9395ZM4.69492 10.652C5.78761 9.63611 7.1524 9.07523 8.95541 9.07523V12.4427C7.05502 12.519 5.70455 13.0799 4.69492 14.2023V21.4909H1.16408V9.27971H4.68704V10.6527H4.6942L4.69492 10.652ZM10.1856 4.97123C10.1863 3.77315 11.1286 2.87891 12.313 2.87891C13.4823 2.87891 14.4182 3.77315 14.4182 4.97195C14.4182 6.13979 13.4816 7.01243 12.313 7.01243C11.1215 7.01243 10.1863 6.13979 10.1863 4.97195L10.1856 4.97123ZM14.0931 9.27971V21.4909H10.5629V9.27971H14.0931ZM18.9192 17.2818C19.1233 18.5778 20.0592 19.0947 21.4541 19.0947C22.6692 19.0947 23.5063 18.6843 23.5063 18.0471C23.5063 17.5842 23.1289 17.1824 22.314 17.0535L19.7047 16.5906C17.8559 16.2572 16.1295 15.2413 16.1295 12.9963C16.1295 10.4475 18.2562 8.94635 21.3789 8.94635C23.4611 8.94635 26.576 9.65915 26.8323 13.1022L23.6115 13.1252C23.5363 12.0251 22.5174 11.5931 21.3796 11.5931C20.1644 11.5931 19.5766 12.0783 19.5766 12.6392C19.5766 13.1022 19.9081 13.5803 21.0244 13.7847L23.2349 14.1411C25.2112 14.4983 26.9154 15.4155 26.9154 17.7361C26.9154 20.4671 24.5545 21.8624 21.4311 21.8624C18.6185 21.8624 15.9555 20.7176 15.6992 17.2508L18.9192 17.2818ZM40.5454 16.2882H31.5919C31.864 17.7138 32.8063 18.837 34.7368 18.837C35.7249 18.837 36.4123 18.5324 36.7968 17.9183H40.4773C39.8214 20.2619 37.5358 21.8696 34.6695 21.8696C30.7627 21.8696 28.1226 19.0415 28.1226 15.3925C28.1226 11.6154 30.7319 8.89307 34.5635 8.89307C38.0413 8.89307 40.6284 11.3655 40.6284 15.1355C40.6284 15.5221 40.5983 15.9087 40.5454 16.2875V16.2882ZM31.6148 14.2023H37.1205C36.9179 12.6702 36.0049 11.8357 34.5857 11.8357C32.8815 11.8285 31.947 12.8221 31.6148 14.2023ZM1.16408 26.0031C1.1631 25.8729 1.21306 25.7474 1.3032 25.6538C1.39334 25.5602 1.51644 25.506 1.64598 25.5027H1.66961C1.80049 25.5004 1.92699 25.5502 2.02154 25.6412C2.11609 25.7323 2.17104 25.8572 2.17442 25.9887V25.9959C2.17539 26.1265 2.12523 26.2521 2.03479 26.3458C1.94434 26.4394 1.82088 26.4935 1.69109 26.4963H1.66889C1.54115 26.5013 1.41662 26.4555 1.32217 26.3688C1.22772 26.2822 1.17094 26.1617 1.16408 26.0334V26.0031ZM2.04553 27.8996V32.9051H1.30084V27.8996H2.04697H2.04553ZM8.7141 30.0308V32.913H7.96726V30.0618C7.96726 29.0221 7.36363 28.4231 6.45855 28.4231C5.82484 28.4231 5.17682 28.7564 4.74647 29.3555V32.913H4.0161V27.9075H4.74647V28.5059C4.98622 28.2606 5.27304 28.067 5.58951 27.9367C5.90598 27.8063 6.2455 27.742 6.58744 27.7477C7.83909 27.7405 8.71482 28.6196 8.71482 30.0315V30.0308H8.7141ZM13.541 32.8979C13.192 33.0091 12.8287 33.0678 12.4626 33.0721C11.3313 33.0721 10.7348 32.4126 10.7348 31.1079V28.5368H9.40795V27.8996H10.7348V26.0492H11.4673V27.8996H13.3534V28.5368H11.468V31.1072C11.468 32.018 11.8218 32.3895 12.5915 32.3895C12.8708 32.3823 13.15 32.3363 13.4221 32.2599L13.541 32.8979ZM19.4248 30.6227L19.3797 30.614V30.6219H15.1399C15.2237 31.6083 15.9168 32.4126 17.026 32.4126C17.7127 32.4126 18.2404 32.1174 18.4667 31.6458H19.2665C18.9722 32.5033 18.1044 33.0721 17.0038 33.0721C15.4793 33.0721 14.4167 31.9035 14.4167 30.4175C14.4167 28.9314 15.4793 27.7628 16.9952 27.7628C18.4287 27.7628 19.4169 28.8702 19.4326 30.3944C19.4412 30.47 19.4391 30.5478 19.4248 30.6227ZM15.1485 30.1215H18.693C18.602 29.1135 17.9683 28.3921 16.9959 28.3921C15.9476 28.3921 15.2538 29.151 15.1485 30.1215ZM21.6195 28.7723C21.8421 28.4612 22.1358 28.2085 22.4759 28.0354C22.816 27.8624 23.1924 27.7741 23.5736 27.7779V28.4835C22.7508 28.5059 22.0641 28.9155 21.6195 29.6435V32.9202H20.8877V27.9147H21.6195V28.7723ZM29.2074 27.8996V32.9051H28.4606V32.3514C28.221 32.5813 27.9381 32.7607 27.6287 32.8793C27.3192 32.9979 26.9893 33.0531 26.6583 33.0419C26.314 33.0356 25.9742 32.9611 25.6586 32.8227C25.3429 32.6843 25.0574 32.4847 24.8186 32.2352C24.5797 31.9858 24.392 31.6915 24.2664 31.3691C24.1407 31.0466 24.0795 30.7025 24.0862 30.3563C24.0973 29.674 24.3719 29.0227 24.8519 28.5403C25.3319 28.058 25.9797 27.7822 26.6583 27.7715C27.3258 27.7547 27.9731 28.0024 28.4606 28.4612V27.8996H29.2074ZM28.4606 31.4946V29.3331C28.2754 29.0498 28.0221 28.8179 27.7243 28.6588C27.4265 28.4998 27.0936 28.4187 26.7564 28.4231C25.6544 28.4231 24.8252 29.3331 24.8252 30.4103C24.8252 31.4867 25.6544 32.4047 26.7564 32.4047C27.0933 32.4074 27.4256 32.3256 27.7231 32.1667C28.0207 32.0078 28.2742 31.7768 28.4606 31.4946ZM34.6759 31.244H35.4378C35.2344 32.3219 34.2993 33.057 33.0992 33.057C31.5912 33.057 30.497 31.8963 30.497 30.4103C30.497 28.9235 31.5912 27.7779 33.0999 27.7779C34.2993 27.7779 35.2344 28.5138 35.4378 29.5902H34.6759C34.5177 28.9076 33.914 28.4605 33.0992 28.4605C31.9757 28.4605 31.2446 29.3411 31.2446 30.4103C31.2446 31.4867 31.9757 32.3744 33.0992 32.3744C33.9062 32.3665 34.5098 31.9266 34.6759 31.244ZM40.2131 32.8979C39.8637 33.009 39.4998 33.0677 39.1333 33.0721C38.002 33.0721 37.4069 32.4126 37.4069 31.1079V28.5368H36.0786V27.8996H37.4141V26.0492H38.1459V27.8996H40.032V28.5368H38.1459V31.1072C38.1459 32.018 38.5003 32.3895 39.2701 32.3895C39.5493 32.3823 39.8286 32.3363 40.1 32.2599L40.2131 32.8979ZM41.3975 26.0031C41.3965 25.8729 41.4464 25.7474 41.5366 25.6538C41.6267 25.5602 41.7498 25.506 41.8794 25.5027H41.9023C41.9677 25.5016 42.0327 25.5135 42.0936 25.5377C42.1545 25.5619 42.21 25.5979 42.257 25.6437C42.3039 25.6896 42.3414 25.7443 42.3673 25.8047C42.3932 25.8651 42.407 25.9301 42.4078 25.9959V26.0039C42.4086 26.1343 42.3583 26.2598 42.2679 26.3532C42.1775 26.4467 42.0541 26.5007 41.9245 26.5035H41.9023C41.8388 26.5068 41.7753 26.4974 41.7154 26.4759C41.6555 26.4544 41.6005 26.4211 41.5535 26.3781C41.5065 26.335 41.4684 26.283 41.4415 26.2251C41.4146 26.1672 41.3994 26.1045 41.3967 26.0406L41.3975 26.0031ZM42.2868 27.8996V32.9051H41.54V27.8996H42.2868ZM46.4735 32.913H45.7947L43.4182 27.9075H44.2029L46.1262 31.9727L48.0496 27.9075H48.8494L46.4735 32.913ZM54.2427 30.6219L54.1968 30.6147V30.6219H49.9578C50.0409 31.6083 50.7347 32.4126 51.8432 32.4126C52.5306 32.4126 53.0655 32.1174 53.2839 31.6458H54.0837C53.7901 32.5033 52.9216 33.0642 51.821 33.0642C50.298 33.0642 49.2339 31.8963 49.2339 30.4103C49.2339 28.9235 50.298 27.7549 51.806 27.7549C53.2381 27.7549 54.2341 28.863 54.242 30.3872C54.2576 30.4649 54.2576 30.545 54.242 30.6227L54.2427 30.6219ZM49.9657 30.1215H53.5102C53.4278 29.1135 52.7862 28.3921 51.8203 28.3921C50.7648 28.3921 50.0717 29.151 49.9657 30.1215ZM54.2205 12.2915C54.2095 12.2808 54.1964 12.2726 54.1821 12.2673C54.1679 12.262 54.1526 12.2597 54.1374 12.2605C53.9491 12.2835 53.73 12.3059 53.4743 12.344C52.8478 12.4347 52.2213 12.488 51.5954 12.4959C50.4039 12.4959 49.6342 12.2007 49.2418 11.5938C48.4212 10.3338 50.1018 7.02683 51.1057 5.05475C51.3391 4.59179 51.5424 4.19003 51.6935 3.85667C51.7164 3.79547 51.6935 3.72707 51.6334 3.70403H51.6262C51.6105 3.69683 51.5954 3.69683 51.5725 3.69683C51.5525 3.69793 51.533 3.70411 51.516 3.71482C51.499 3.72552 51.4849 3.74038 51.4751 3.75803C51.3462 3.99275 51.2174 4.25051 51.0749 4.52339L51.0455 4.57667C50.0115 6.60131 48.737 9.12707 46.5272 9.48347C46.4957 9.48347 46.4743 9.49139 46.4435 9.49139C46.3209 9.50708 46.1975 9.51477 46.074 9.51443C44.46 9.51443 42.7107 8.19467 40.7115 5.48675C40.7012 5.47243 40.6876 5.46082 40.6719 5.45292C40.6562 5.44502 40.6388 5.44107 40.6213 5.44139C40.6071 5.44059 40.593 5.44296 40.5799 5.44831C40.5667 5.45367 40.555 5.46187 40.5454 5.47235C40.522 5.48882 40.5058 5.51372 40.5002 5.54188C40.4946 5.57005 40.5 5.59929 40.5153 5.62355C42.6799 8.85419 44.4894 11.8199 44.7385 15.3234C44.9125 17.7584 44.8295 19.6772 44.46 21.7256C44.4562 21.7415 44.4564 21.758 44.4604 21.7738C44.4643 21.7896 44.4721 21.8042 44.4829 21.8163C44.5044 21.8394 44.5338 21.8523 44.5653 21.8538H44.581C44.6065 21.854 44.6312 21.845 44.6506 21.8283C44.67 21.8116 44.6826 21.7884 44.6863 21.7631C45.1768 19.4418 45.6601 17.523 47.0321 15.6503C48.7219 13.3369 51.1279 12.9575 53.9183 12.5183L54.1367 12.4794C54.1652 12.4733 54.1905 12.4567 54.2074 12.4328C54.2244 12.409 54.2318 12.3796 54.2284 12.3505C54.2505 12.3354 54.2355 12.3131 54.2205 12.29V12.2915Z" fill="white"/>
<path d="M52.4994 3.76595C52.4994 4.25123 52.1077 4.65299 51.618 4.64507C51.5023 4.64555 51.3878 4.62291 51.2809 4.57847C51.1741 4.53403 51.0771 4.46867 50.9956 4.38619C50.9141 4.30372 50.8498 4.20577 50.8063 4.09806C50.7628 3.99034 50.741 3.875 50.7422 3.75875C50.7422 3.27275 51.1346 2.87891 51.6251 2.87891C52.1077 2.87891 52.4994 3.27347 52.4994 3.76595Z" fill="white"/>
</svg>
