<svg width="89" height="30" viewBox="0 0 89 30" fill="none" xmlns="http://www.w3.org/2000/svg">
<g clip-path="url(#clip0_9533_165592)">
<mask id="mask0_9533_165592" style="mask-type:luminance" maskUnits="userSpaceOnUse" x="0" y="0" width="89" height="30">
<path d="M0.09375 0H88.4924V30H0.09375V0Z" fill="white"/>
</mask>
<g mask="url(#mask0_9533_165592)">
<path d="M24.9305 10.257C24.8613 10.2553 24.7924 10.2678 24.7281 10.2935C24.6638 10.3192 24.6054 10.3577 24.5565 10.4066C24.5075 10.4556 24.4691 10.5139 24.4435 10.5781C24.4178 10.6424 24.4055 10.7111 24.4074 10.7802V21.012C23.6587 21.1614 22.8354 21.3108 22.0122 21.3108C20.2165 21.3108 19.6176 20.6388 19.6176 18.6966V10.7802C19.6176 10.4814 19.3933 10.257 19.169 10.257H16.4749V18.6972C16.4749 22.6554 18.57 23.9256 21.9376 23.9256C24.6317 23.9256 27.3257 23.1786 27.55 23.1036V10.2576H24.9305V10.257ZM66.1628 23.7762C66.3871 23.7762 66.6866 23.5518 66.6866 23.253V12.9462C67.4352 12.7962 68.2579 12.6474 69.0811 12.6474C70.8774 12.6474 71.4757 13.3194 71.4757 15.2616V23.2536C71.4757 23.5518 71.7006 23.7756 71.9249 23.7756H74.619V15.2616C74.619 11.3028 72.5233 10.0332 69.1563 10.0332C66.4623 10.0332 63.7682 10.7802 63.5439 10.8552V23.7762H66.1628ZM55.3872 10.0332C51.8699 10.0332 49.7002 11.9004 49.7002 16.008V18.0246C49.7002 22.5066 52.0948 24 54.6391 24C55.9109 24 57.258 23.1036 57.632 22.581V23.403C57.632 23.6268 57.8569 23.8506 58.0812 23.8506H60.7753V10.7802C60.8498 10.7802 58.231 10.0332 55.3872 10.0332ZM57.7072 20.4894C57.1082 21.0126 56.6596 21.3114 55.3872 21.3114C53.5909 21.3858 52.8435 20.2656 52.8435 17.9502V16.083C52.8435 13.4688 53.8158 12.7218 55.3872 12.7218C56.659 12.7218 57.4077 12.7968 57.7072 12.8718V20.4894ZM82.5508 10.0332C79.0341 10.0332 76.8638 11.9004 76.8638 16.008V18.0246C76.8638 22.5066 79.2584 24 81.8773 24C83.1498 24 84.4968 23.1036 84.8708 22.581V23.403C84.8708 23.6268 85.0951 23.8506 85.3194 23.8506H88.0135V10.7802C88.0135 10.7802 85.3946 10.0332 82.5508 10.0332ZM84.8708 20.4894C84.2719 21.0126 83.8233 21.3114 82.5508 21.3114C80.7552 21.3114 80.0065 20.2656 80.0065 17.9502V16.083C80.0065 13.3944 80.9795 12.7218 82.5508 12.7218C83.8233 12.7218 84.5714 12.7968 84.8708 12.8718V20.4894ZM0.460938 23.7762H3.30473C3.52903 23.7762 3.75334 23.5518 3.75334 23.328V15.858H8.99171C9.88953 15.858 10.4885 16.53 10.4885 17.2776V23.328C10.4885 23.5518 10.7128 23.7762 10.9371 23.7762H13.7815V6H10.9371C10.7128 6 10.4885 6.2238 10.4885 6.4482V13.17H5.10036C4.35228 13.17 3.82851 12.5724 3.82851 11.9004V6.4482C3.75334 6.2982 3.6036 6 3.30473 6H0.460938V23.7762ZM42.591 10.0332C41.0942 10.0332 39.6727 10.6308 38.9991 11.079C38.0262 10.332 36.6791 10.0332 35.0332 10.0332C32.5635 10.0332 30.4684 10.7802 30.1689 10.9296V23.85H32.863C33.1624 23.85 33.3122 23.6262 33.3122 23.3274V12.9462C33.9857 12.7962 34.5089 12.7218 34.9581 12.7218C36.8289 12.7218 37.2781 13.4688 37.2781 15.336V23.328C37.2781 23.5518 37.4278 23.8506 37.7267 23.8506H39.9721C40.271 23.8506 40.4207 23.6268 40.4207 23.328V13.32C40.9683 12.9342 41.6213 12.7254 42.2915 12.7218C43.7137 12.7218 44.3121 13.3938 44.3121 15.1122V23.328C44.3121 23.5518 44.4618 23.8506 44.7613 23.8506H47.4553V14.664C47.5299 11.2284 45.3596 10.0332 42.591 10.0332Z" fill="white"/>
</g>
</g>
<defs>
<clipPath id="clip0_9533_165592">
<rect width="89" height="30" fill="white"/>
</clipPath>
</defs>
</svg>
