<svg width="121" height="40" viewBox="0 0 121 40" fill="none" xmlns="http://www.w3.org/2000/svg">
<path d="M23.5173 34.4506C23.0535 34.4175 22.6565 34.2184 22.3253 33.8854L13.1181 24.5186C13.0475 24.4669 12.9983 24.3908 12.9799 24.305C12.9615 24.2193 12.9752 24.1297 13.0184 24.0534C13.0852 23.8543 13.2837 23.8212 13.4822 23.8212H33.4865C33.6851 23.8212 33.8836 23.8543 33.9503 24.0534C34.0162 24.2195 33.9833 24.4525 33.8506 24.5516L24.7102 33.8871C24.3918 34.2112 23.9691 34.4115 23.5173 34.4523V34.4506ZM26.5974 22.6908C26.2333 23.056 25.571 23.023 25.4383 23.023H13.4501C13.2508 23.023 13.119 22.9899 13.0531 22.8569C12.9864 22.7238 13.119 22.5247 13.2516 22.3917L26.333 9.43543C26.4327 9.27021 26.632 9.20326 26.8306 9.27021C26.9091 9.30287 26.9762 9.35813 27.0234 9.42901C27.0706 9.49989 27.0958 9.58322 27.0958 9.66846V21.6265C27.034 22.0212 26.8614 22.39 26.5982 22.6899L26.5974 22.6908ZM23.1862 10.698C23.1592 11.1546 22.9573 11.583 22.6227 11.8936L13.119 21.2621C13.0674 21.333 12.9916 21.3824 12.9061 21.4008C12.8206 21.4193 12.7313 21.4055 12.6552 21.3621C12.4558 21.2952 12.4558 21.0961 12.4558 20.8639V0.531261C12.4558 0.332135 12.4558 0.133009 12.6552 0.0330107C12.8208 -0.0330749 13.0531 -3.2134e-05 13.1519 0.133009L22.6236 9.43543C22.9547 9.80064 23.1532 10.2328 23.187 10.698H23.1862ZM19.3779 33.5871L12.9525 39.8991C12.8529 39.9983 12.7202 40.0322 12.5885 39.9652C12.4558 39.8991 12.4229 39.7661 12.4229 39.6331V25.8464C12.4229 25.7134 12.4229 25.5812 12.5876 25.5142C12.6416 25.483 12.7051 25.4726 12.7662 25.485C12.8273 25.4973 12.8818 25.5315 12.9196 25.5812L19.3441 31.9263C19.5764 32.1584 19.7082 32.4245 19.742 32.7567C19.7115 33.0652 19.584 33.356 19.3779 33.5871ZM10.7004 34.0193H3.38123C3.28154 34.0193 3.18185 33.9523 3.11597 33.8532C3.09889 33.7992 3.09935 33.7411 3.11726 33.6873C3.13517 33.6336 3.16963 33.5869 3.21566 33.5541L11.1303 25.4812C11.1971 25.4151 11.2968 25.3151 11.4294 25.3481C11.5612 25.3812 11.5283 25.4812 11.5283 25.5812V32.9558C11.5612 33.2219 11.4953 33.4541 11.3289 33.6862C11.1642 33.8862 10.9318 33.9854 10.7004 34.0193ZM4.97111 29.202L0.0688539 24.2195C0.00297035 24.1195 -0.0299714 24.0195 0.0359121 23.9195C0.0688539 23.8203 0.168546 23.8203 0.30118 23.8203H11.0315C11.1312 23.8203 11.2309 23.8203 11.2968 23.9195C11.3297 24.0195 11.3297 24.1195 11.23 24.1525L6.26277 29.202C6.09004 29.3663 5.86957 29.4711 5.63341 29.5011C5.40108 29.5011 5.13668 29.4011 4.97111 29.202ZM39.7455 23.6204C39.5469 23.5212 39.514 23.4551 39.514 23.0899C39.514 22.3917 39.5799 21.8265 39.5799 21.5943C39.5799 21.4282 39.6137 21.3621 39.6796 21.3621C39.7455 21.3621 39.7793 21.3952 39.7793 21.5274C39.7793 21.6943 39.7793 21.8604 39.8122 22.0595C40.0116 23.0891 40.9712 23.4882 41.8988 23.4882C43.2564 23.4882 43.9187 22.5247 43.9187 21.6273C43.9187 20.6639 43.5216 20.0996 42.2958 19.1031L41.6665 18.5709C40.1763 17.3422 39.8113 16.4779 39.8113 15.5144C39.8113 14.0197 40.9383 12.9901 42.7596 12.9901C43.1905 12.9901 43.6543 13.0232 44.0842 13.1232C44.2498 13.1562 44.4154 13.1893 44.581 13.1893C44.6807 13.1893 44.7136 13.2223 44.7136 13.2893C44.7136 13.3553 44.6477 13.8206 44.6477 14.784C44.6477 15.0162 44.6148 15.1162 44.548 15.1162C44.4821 15.1162 44.4492 15.0501 44.4492 14.951C44.4137 14.7104 44.3467 14.4756 44.2498 14.2527C44.151 14.0866 43.786 13.5223 42.4614 13.5223C41.5009 13.5223 40.7398 14.1197 40.7398 15.1492C40.7398 15.9466 41.1039 16.4448 42.4614 17.5083L42.8593 17.8074C44.5151 19.1031 44.9121 19.9996 44.9121 21.1291C44.9093 21.5834 44.7999 22.0307 44.5929 22.4348C44.3858 22.8389 44.0868 23.1884 43.7201 23.4551C43.0908 23.8534 42.3288 24.0856 41.5677 24.0525C40.9398 24.0162 40.3231 23.8699 39.7455 23.6204ZM48.3901 17.2422C48.3901 15.0501 48.3901 14.651 48.3571 14.2197C48.3242 13.7875 48.2245 13.5214 47.7607 13.4223C47.596 13.3893 47.4296 13.3893 47.2969 13.3893C47.231 13.3893 47.1652 13.3553 47.1652 13.3223C47.1652 13.2893 47.231 13.2223 47.3966 13.2223C48.026 13.2223 48.8877 13.2562 48.9865 13.2562C49.2847 13.2562 50.1126 13.2223 50.7749 13.2223C52.5303 13.2223 53.1926 13.8206 53.3912 14.0197C53.8322 14.4596 54.0821 15.0566 54.0864 15.6805C54.0864 17.6744 52.63 19.037 50.6093 19.037H50.3111C50.2443 19.037 50.1455 19.0031 50.1455 18.937C50.1455 18.87 50.2114 18.8039 50.5096 18.8039C51.8672 18.8039 52.9603 17.8074 52.9603 16.5118C52.9913 15.7146 52.7054 14.9376 52.1654 14.3518C51.6366 13.8536 50.9405 13.5884 50.2114 13.6545C50.0129 13.6545 49.8144 13.6875 49.6159 13.7206C49.5162 13.7545 49.5162 13.8536 49.5162 13.9866V19.7674C49.5162 21.1291 49.5162 22.2256 49.582 22.8238C49.6159 23.2221 49.7147 23.5543 50.1455 23.5873C50.3449 23.6204 50.5755 23.6203 50.7749 23.6543C50.8737 23.6543 50.8737 23.6873 50.8737 23.7203C50.8737 23.7534 50.8078 23.8203 50.6423 23.8203C49.8473 23.8203 48.9865 23.7873 48.8868 23.7873C48.788 23.7873 47.9592 23.8203 47.5293 23.8203C47.3637 23.8203 47.2969 23.7873 47.2969 23.7203C47.2969 23.6543 47.3299 23.6543 47.3966 23.6543C47.5293 23.6543 47.6948 23.6204 47.8266 23.5873C48.1248 23.5212 48.1907 23.2221 48.2245 22.8238C48.2904 22.2256 48.2904 21.1291 48.2904 19.7674L48.3901 17.2422ZM56.9679 17.2422C56.9679 15.0501 56.9679 14.651 56.935 14.2197C56.9021 13.7875 56.8024 13.5214 56.3386 13.4223C56.173 13.3893 56.0074 13.3893 55.8748 13.3893C55.8089 13.3893 55.776 13.3553 55.776 13.3223C55.776 13.2893 55.8418 13.2232 56.0074 13.2232H57.0338L57.6302 13.2562H60.8759C61.0752 13.2562 61.2729 13.2232 61.4723 13.1893C61.5382 13.1893 61.6049 13.1232 61.6708 13.1232C61.7367 13.1232 61.7367 13.1893 61.7367 13.2562C61.7367 13.3223 61.6708 13.5214 61.6379 13.9206C61.6379 14.0536 61.6049 14.6849 61.5711 14.851C61.5382 14.9171 61.5382 15.0162 61.4723 15.0162C61.4055 15.0162 61.3397 14.9501 61.3397 14.851C61.3341 14.6831 61.3118 14.5161 61.2729 14.3527C61.1741 14.1197 61.0414 13.9536 60.2794 13.8875C60.048 13.8536 58.4911 13.8536 58.3255 13.8536C58.2596 13.8536 58.2267 13.8875 58.2267 13.9866V17.8735C58.2267 17.9735 58.2596 18.0066 58.3255 18.0066C58.5249 18.0066 60.2465 18.0066 60.5777 17.9735C60.9088 17.9405 61.1082 17.9066 61.24 17.7735C61.3726 17.6413 61.4055 17.6083 61.4393 17.6083C61.4723 17.6083 61.5052 17.6413 61.5052 17.7074C61.5052 17.7735 61.4393 18.0396 61.4055 18.5048C61.3726 18.7709 61.3397 19.3022 61.3397 19.4022C61.3397 19.5013 61.3396 19.6674 61.24 19.6674C61.1411 19.6674 61.1411 19.6013 61.1411 19.5343C61.1411 19.3691 61.1411 19.2361 61.0744 19.07C61.0085 18.87 60.8759 18.6378 60.3462 18.5718C59.9821 18.5378 58.5578 18.5048 58.3263 18.5048C58.2925 18.5048 58.2267 18.5378 58.2267 18.5709V22.2265C58.2596 23.1899 58.4911 23.3891 59.8824 23.3891C60.3412 23.4182 60.8014 23.3622 61.24 23.2238C61.604 23.0569 61.7705 22.7908 61.8693 22.2265C61.9023 22.0604 61.9361 22.0265 62.002 22.0265C62.0678 22.0265 62.1016 22.1265 62.1016 22.2265C62.0677 22.6846 62.001 23.1396 61.9023 23.5882C61.8034 23.9534 61.7037 23.9534 61.1411 23.9534C60.0809 23.9534 59.286 23.9203 58.7563 23.9203C58.2267 23.9203 57.8626 23.8873 57.664 23.8873H57.1006C56.8024 23.8873 56.5042 23.9203 56.2727 23.9203C56.1071 23.9203 56.0404 23.8873 56.0404 23.8212C56.0404 23.7543 56.0733 23.7543 56.1401 23.7543C56.2727 23.7543 56.4383 23.7212 56.57 23.6882C56.8682 23.6221 56.9341 23.323 56.9679 22.9238C57.0338 22.3265 57.0338 21.23 57.0338 19.8674L56.9679 17.2431V17.2422ZM65.5458 22.4917C64.1882 21.2621 63.8242 19.6674 63.8242 18.3387C63.8571 16.9101 64.4197 15.5153 65.4132 14.5188C66.2748 13.6875 67.5327 13.0232 69.719 13.0232C70.4142 13.0232 71.1104 13.0901 71.7727 13.1893C72.2527 13.2906 72.7394 13.3575 73.229 13.3893C73.3955 13.3893 73.4284 13.4553 73.4284 13.5545C73.4284 13.6545 73.3955 13.8206 73.3617 14.3518C73.3287 14.884 73.3287 15.5814 73.3287 15.8136C73.3287 16.0466 73.2958 16.1127 73.1961 16.1127C73.0973 16.1127 73.0973 16.0136 73.0973 15.8144C73.0973 15.2823 72.8979 14.751 72.5008 14.3858C72.0041 13.9536 70.911 13.5884 69.6861 13.5884C67.798 13.5884 66.9371 14.1536 66.4404 14.6179C65.4132 15.6144 65.1488 16.844 65.1488 18.2726C65.1158 21.0961 67.368 23.3882 70.1828 23.4212H70.2816C71.3418 23.4212 72.1697 23.2891 72.7332 22.7238C72.9976 22.3917 73.1631 21.9595 73.262 21.5613C73.2958 21.3952 73.3287 21.3613 73.3955 21.3613C73.4613 21.3613 73.4943 21.4613 73.4943 21.5613C73.4271 22.1642 73.3276 22.763 73.1961 23.3551C73.1302 23.6212 73.0973 23.6543 72.832 23.7534C72.0041 23.9864 71.1433 24.1186 70.2816 24.0856C68.0962 23.9864 66.6389 23.4882 65.5458 22.4917ZM80.1182 19.7004C80.1182 21.063 80.1182 22.1595 80.1841 22.7569C80.2179 23.156 80.3167 23.4873 80.7476 23.5212C80.9469 23.5543 81.1784 23.5543 81.3769 23.5873C81.4757 23.5873 81.5095 23.6203 81.5095 23.6543C81.5095 23.6873 81.4428 23.7534 81.2772 23.7534C80.4823 23.7534 79.6215 23.7203 79.5556 23.7203C79.4888 23.7203 78.5951 23.7534 78.1642 23.7534C77.9986 23.7534 77.9328 23.7203 77.9328 23.6543C77.9328 23.5873 77.9657 23.5873 78.0645 23.5873C78.1972 23.5873 78.3627 23.5543 78.4954 23.5212C78.7936 23.4551 78.8595 23.156 78.8924 22.7569C78.9592 22.1586 78.9592 21.063 78.9592 19.7004V13.7875L76.8726 13.8206C76.0117 13.8206 75.6468 13.9206 75.4153 14.2858C75.3188 14.4185 75.2409 14.5639 75.1839 14.7179C75.1501 14.8171 75.0842 14.8501 75.0512 14.8501C75.0183 14.8501 74.9845 14.8171 74.9845 14.7179C74.9845 14.5849 75.2827 13.3553 75.2827 13.2562C75.2827 13.1562 75.3824 12.9901 75.4153 12.9901C75.6147 13.0562 75.8124 13.1232 76.0447 13.1562C76.4417 13.1893 77.0052 13.2223 77.1708 13.2223H82.4692C82.8012 13.2223 83.1324 13.1893 83.4635 13.1562C83.662 13.1232 83.7947 13.0901 83.8605 13.0901C83.9264 13.0901 83.9264 13.1893 83.9264 13.2553C83.9264 13.6875 83.8935 14.651 83.8935 14.8171C83.8935 14.9831 83.7947 14.9501 83.7288 14.9501C83.662 14.9501 83.6291 14.9171 83.6291 14.7179L83.5953 14.5518C83.5623 14.1197 83.2312 13.8214 81.8736 13.7866L80.0853 13.7545L80.1182 19.7004ZM86.6762 17.2422C86.6762 15.0501 86.6762 14.651 86.6424 14.2197C86.6094 13.7875 86.5106 13.5214 86.0468 13.4223C85.8813 13.3893 85.7157 13.3893 85.5501 13.3893C85.4834 13.3893 85.4504 13.3553 85.4504 13.3223C85.4504 13.2893 85.5163 13.2223 85.6819 13.2223C86.3112 13.2223 87.2059 13.2562 87.2718 13.2562C87.4373 13.2562 88.4975 13.2223 88.9284 13.2223C89.8221 13.2223 90.7497 13.2893 91.5108 13.8536C91.8063 14.0829 92.0483 14.3741 92.2201 14.7069C92.3918 15.0397 92.4891 15.4061 92.5051 15.7805C92.5051 16.8109 92.0743 17.8735 90.7826 19.0361C91.9417 20.4978 94.0283 22.9899 94.8232 23.8864C95.5852 24.6838 95.8496 24.8499 96.2146 24.8829C96.4131 24.9168 96.5787 24.9168 96.7772 24.9168C96.8431 24.9168 96.9098 24.9499 96.9098 24.9829C96.9098 25.016 96.479 25.0821 96.2475 25.0821H95.2541C94.4591 25.0821 94.6576 25.016 94.2597 24.8168C93.6642 24.4847 92.3725 22.5578 91.5776 21.4952C90.9812 20.73 90.1203 19.7674 89.8221 19.4013C89.7892 19.3352 89.7224 19.3022 89.6236 19.3022H87.8682C87.8023 19.3022 87.7685 19.3352 87.7685 19.4013V19.7343C87.7685 21.0961 87.7685 22.1926 87.8352 22.7899C87.8682 23.1891 87.9679 23.5204 88.3978 23.5551C88.5964 23.5873 88.8287 23.5873 89.0272 23.6204C89.1269 23.6204 89.1269 23.6543 89.1269 23.6873C89.1269 23.7203 89.0601 23.7873 88.8946 23.7873C88.0996 23.7873 87.2388 23.7534 87.1391 23.7534C87.1391 23.7534 86.2453 23.7873 85.8145 23.7873C85.6489 23.7873 85.583 23.7534 85.583 23.6873C85.583 23.6212 85.616 23.6212 85.6819 23.6212C85.8145 23.6212 85.9801 23.5873 86.1127 23.5543C86.4109 23.4882 86.4768 23.1891 86.5106 22.7899C86.5765 22.1926 86.5765 21.0961 86.5765 19.7343L86.6762 17.2422ZM87.8023 18.4718C87.8018 18.5058 87.8107 18.5393 87.8282 18.5685C87.8457 18.5977 87.8709 18.6214 87.9011 18.637C88.3649 18.8039 88.8946 18.87 89.3913 18.87C89.7563 18.9031 90.1203 18.8039 90.4515 18.6048C90.9482 18.2726 91.3123 17.5083 91.3123 16.4448C91.3123 14.6849 90.3856 13.6214 88.8616 13.6214C88.5305 13.6214 88.2323 13.6545 87.9011 13.7206C87.8352 13.7545 87.7685 13.8206 87.8023 13.8875V18.4718ZM96.5119 17.2422C96.5119 15.0501 96.5119 14.651 96.479 14.2197C96.446 13.7875 96.3463 13.5214 95.8826 13.4223C95.717 13.3893 95.5514 13.3893 95.3858 13.3893C95.3199 13.3893 95.287 13.3553 95.287 13.3223C95.287 13.2893 95.3529 13.2223 95.5185 13.2223C96.1478 13.2223 97.0086 13.2562 97.1413 13.2562C97.2739 13.2562 98.1347 13.2223 98.5326 13.2223C98.6982 13.2223 98.7641 13.2562 98.7641 13.3223C98.7641 13.3884 98.6982 13.3884 98.6653 13.3884C98.5326 13.3884 98.4329 13.4223 98.3003 13.4223C97.9362 13.4884 97.8036 13.7214 97.7706 14.2197C97.7377 14.7179 97.7377 15.0501 97.7377 17.2422V19.2022C97.7377 21.2282 98.2015 22.0926 98.797 22.6578C99.3605 23.223 100.155 23.4882 100.95 23.4212C101.811 23.4212 102.606 23.056 103.169 22.4247C103.831 21.6273 103.997 20.4317 103.997 18.97V17.2092C103.997 15.0171 103.997 14.6179 103.964 14.1858C103.931 13.7545 103.831 13.4884 103.368 13.3893C103.203 13.3553 103.037 13.3553 102.871 13.3553C102.805 13.3553 102.772 13.3223 102.772 13.2893C102.772 13.2562 102.838 13.1893 103.003 13.1893C103.633 13.1893 104.427 13.2223 104.494 13.2223C104.56 13.2223 105.255 13.1893 105.686 13.1893C105.852 13.1893 105.918 13.2223 105.918 13.2893C105.918 13.3553 105.852 13.3553 105.819 13.3553C105.686 13.3553 105.587 13.3884 105.455 13.3884C105.09 13.4553 104.957 13.6875 104.924 14.1858C104.891 14.684 104.891 15.0171 104.891 17.2092V18.7048C104.891 20.2326 104.726 21.9265 103.6 22.923C102.805 23.6204 101.745 24.0195 100.685 23.9534C100.188 23.9534 98.7641 23.8864 97.7706 22.956C97.0754 22.2917 96.5449 21.3282 96.5449 19.2691L96.5119 17.2431V17.2422ZM118.735 21.9926C118.801 22.4917 118.901 23.2882 119.497 23.4882C119.795 23.5873 120.093 23.6204 120.424 23.6204C120.49 23.6204 120.524 23.6543 120.524 23.6873C120.524 23.7203 120.391 23.8203 120.226 23.8203C119.894 23.8203 118.37 23.8203 117.874 23.7534C117.543 23.7203 117.477 23.6873 117.477 23.6212C117.477 23.5543 117.51 23.5543 117.576 23.5212C117.642 23.4882 117.675 23.2551 117.642 23.023L116.98 15.7144H116.913L113.436 23.023C113.138 23.6543 113.105 23.7534 112.972 23.7534C112.84 23.7534 112.807 23.6212 112.542 23.0891C112.177 22.3917 110.953 19.9665 110.886 19.8335C110.753 19.5683 109.163 16.2127 109.032 15.8136H108.965L108.402 22.3256V23.056C108.402 23.256 108.568 23.4551 108.766 23.4882C108.932 23.5212 109.13 23.5543 109.296 23.5543C109.363 23.5543 109.396 23.5873 109.396 23.6204C109.396 23.7203 109.296 23.7534 109.13 23.7534C108.601 23.7534 107.938 23.7203 107.806 23.7203C107.673 23.7203 107.342 23.7534 106.945 23.7534C106.812 23.7534 106.713 23.7203 106.713 23.6212C106.713 23.5873 106.779 23.5543 106.845 23.5543C106.912 23.5543 106.713 23.5543 106.945 23.5212C107.409 23.4551 107.442 22.8899 107.508 22.3586L108.535 13.1893C108.535 13.024 108.601 12.924 108.7 12.924C108.799 12.924 108.832 12.9901 108.899 13.1232L113.204 21.9926L117.377 13.1562C117.444 13.0232 117.477 12.924 117.576 12.924C117.675 12.924 117.708 13.0232 117.742 13.2893L118.735 21.9926ZM39.514 30.7306V27.8064H41.0051C41.2695 27.8064 41.5677 27.8064 41.8321 27.8733C41.9931 27.9087 42.1351 28.0033 42.23 28.1385C42.3328 28.2721 42.3905 28.435 42.3947 28.6037C42.3947 28.8037 42.3288 29.0028 42.1632 29.135C41.9708 29.3045 41.724 29.399 41.468 29.4011C41.6006 29.4681 41.7332 29.5341 41.8321 29.6341C41.9647 29.7663 42.1303 29.9324 42.23 30.0985L42.6599 30.6637H41.8321L41.3353 30.0324C41.2365 29.8663 41.1039 29.7333 40.9712 29.6002C40.9421 29.5679 40.9063 29.5423 40.8663 29.5252C40.8264 29.5081 40.7832 29.4999 40.7398 29.5011C40.6072 29.4681 40.5075 29.4681 40.3757 29.4681H40.2431V30.6959L39.514 30.7289V30.7306ZM40.2422 29.0698H40.7398C40.9383 29.0698 41.1698 29.0698 41.3691 29.035C41.4427 29.0032 41.5099 28.9585 41.5677 28.9028C41.6089 28.8323 41.6316 28.7524 41.6335 28.6707C41.6349 28.627 41.6268 28.5835 41.6097 28.5433C41.5926 28.503 41.567 28.467 41.5347 28.4376C41.4625 28.3712 41.3674 28.3357 41.2695 28.3385H40.1763L40.2431 29.0689L40.2422 29.0698ZM43.7201 30.7306V27.8064H46.3035V28.3046H44.4154V28.9359H46.1708V29.4341H44.4154V30.2315H46.3694V30.7298L43.7201 30.7306ZM48.456 30.7306V28.3046H47.4296V27.8064H50.2123V28.3046H49.185V30.7306H48.456ZM51.3046 30.7306V27.8064H51.9998V30.7298L51.3046 30.7306ZM53.3582 30.7306V27.8064H54.8484C55.1128 27.8064 55.4119 27.8064 55.6763 27.8733C55.837 27.9089 55.9786 28.0035 56.0733 28.1385C56.1764 28.272 56.2344 28.4349 56.2389 28.6037C56.2389 28.8037 56.173 29.0028 56.0074 29.135C55.808 29.3011 55.5766 29.4011 55.3122 29.4011C55.4439 29.4681 55.5766 29.5341 55.6763 29.6341C55.8089 29.7663 55.9407 29.9324 56.0733 30.0985L56.5042 30.6637H55.6433L55.1457 30.0324C55.0469 29.8663 54.9143 29.7333 54.7816 29.6002C54.7236 29.545 54.6564 29.5003 54.5831 29.4681C54.4505 29.4341 54.3517 29.4341 54.219 29.4341H54.0864V30.6637L53.3582 30.7306ZM54.0535 29.0698H54.5831C54.7825 29.0698 55.014 29.0698 55.2125 29.035C55.2863 29.0033 55.3538 28.9585 55.4119 28.9028C55.4439 28.8368 55.4778 28.7698 55.4778 28.6707C55.479 28.6269 55.4707 28.5834 55.4535 28.5431C55.4363 28.5029 55.4105 28.4669 55.3781 28.4376C55.3059 28.3712 55.2107 28.3357 55.1128 28.3385H54.0205V29.0689L54.0535 29.0698ZM57.5644 30.7306V27.8064H60.1477V28.3046H58.2596V28.9359H60.015V29.4341H58.2596V30.2315H60.2136V30.7298L57.5644 30.7306ZM61.5052 30.7306V27.8064H62.5646L63.1939 29.8002L63.8233 27.8064H64.8835V30.7298H64.2212V28.4376L63.5251 30.7298H62.8298L62.1346 28.4376V30.7298L61.5052 30.7306ZM66.241 30.7306V27.8064H68.8244V28.3046H66.9371V28.9359H68.6917V29.4341H66.9371V30.2315H68.8911V30.7298L66.241 30.7306ZM70.1828 30.7306V27.8064H70.878L72.3023 29.7663V27.8064H72.9646V30.7298H72.2685L70.8442 28.8368V30.7298H70.1819L70.1828 30.7306ZM75.1839 30.7306V28.3046H74.1566V27.8064H76.9393V28.3046H75.912V30.7306H75.1839ZM82.3374 29.6672L83.0327 29.8663C82.933 30.1654 82.7674 30.4315 82.503 30.5967C82.1826 30.7754 81.8167 30.8551 81.4513 30.8257C81.0858 30.7963 80.7373 30.6591 80.4493 30.4315C80.1511 30.1654 79.9855 29.7663 79.9855 29.335C79.969 29.1233 80.0023 28.9107 80.0829 28.7143C80.1635 28.5179 80.289 28.3433 80.4493 28.2046C80.7805 27.9394 81.2113 27.7733 81.6413 27.8064C82.0054 27.8064 82.3704 27.9063 82.6686 28.1385C82.8333 28.2716 82.9668 28.4707 83.0327 28.6707L82.3374 28.8037C82.292 28.6558 82.1986 28.5272 82.0722 28.4385C81.9362 28.3445 81.7734 28.2975 81.6084 28.3046C81.3769 28.3046 81.1446 28.3716 80.979 28.5376C80.8143 28.7376 80.7146 29.0028 80.7476 29.302C80.7146 29.6002 80.8134 29.8663 80.979 30.0985C81.1446 30.2646 81.3769 30.3315 81.6084 30.3315C81.7739 30.3315 81.9395 30.2985 82.1051 30.1985C82.1718 30.0324 82.2707 29.8663 82.3374 29.6672ZM84.1588 29.302C84.1588 29.0359 84.1917 28.7698 84.3243 28.5368C84.424 28.3716 84.5237 28.2385 84.6555 28.1385C84.7881 28.0394 84.9537 27.9394 85.1193 27.8733C85.3516 27.8064 85.616 27.7403 85.8813 27.7733C86.3112 27.7403 86.775 27.9063 87.1062 28.1724C87.7026 28.7698 87.7355 29.7663 87.14 30.3646L87.1062 30.3976C86.775 30.6637 86.3112 30.8298 85.8813 30.7967C85.4504 30.8298 84.9866 30.6637 84.6555 30.3976C84.4864 30.2727 84.352 30.1064 84.265 29.9146C84.1781 29.7228 84.1415 29.5119 84.1588 29.302ZM84.8869 29.2681C84.8869 29.8333 85.3178 30.2646 85.8813 30.2646C86.1127 30.2646 86.378 30.1654 86.5436 29.9993C86.6434 29.901 86.7192 29.7808 86.7652 29.6483C86.8112 29.5157 86.8262 29.3743 86.8088 29.235C86.8261 29.1191 86.8199 29.0009 86.7907 28.8874C86.7615 28.774 86.7098 28.6676 86.6386 28.5746C86.5675 28.4816 86.4785 28.4039 86.3768 28.3462C86.2751 28.2884 86.1629 28.2518 86.0468 28.2385H85.8483C85.7308 28.2293 85.6126 28.2435 85.5006 28.2803C85.3885 28.3171 85.2849 28.3758 85.1956 28.453C85.1063 28.5302 85.0331 28.6244 84.9803 28.7301C84.9275 28.8358 84.896 28.951 84.8878 29.0689C84.8714 29.0997 84.8628 29.134 84.8628 29.1689C84.8628 29.2038 84.8714 29.2382 84.8878 29.2689L84.8869 29.2681ZM88.7628 30.7306V27.8064H89.8221L90.4515 29.8002L91.0809 27.8064H92.1402V30.7298H91.4779V28.4376L90.7826 30.7298H90.1203L89.458 28.4376V30.7298L88.7628 30.7306ZM93.4986 30.7306V27.8064H94.5579L95.1873 29.8002L95.8167 27.8064H96.8769V30.7298H96.2137V28.4376L95.5185 30.7298H94.8561L94.1609 28.4376V30.7298L93.4986 30.7306ZM98.2344 27.8064H98.9297V29.4011C98.9297 29.5672 98.9297 29.7333 98.9635 29.8993C98.9887 30.021 99.0598 30.1282 99.162 30.1985C99.2946 30.2646 99.4602 30.3315 99.6258 30.2985C99.7914 30.2985 99.9569 30.2646 100.09 30.1985C100.188 30.1324 100.255 30.0654 100.255 29.9324C100.288 29.7672 100.288 29.6002 100.288 29.4341V27.8064H100.983V29.335C100.983 29.6002 100.983 29.8333 100.917 30.0654C100.884 30.2028 100.816 30.3288 100.718 30.4306C100.586 30.5306 100.454 30.6306 100.321 30.6637C100.107 30.7314 99.8833 30.7649 99.6587 30.7628C99.3934 30.7628 99.162 30.7298 98.8967 30.6637C98.7311 30.5976 98.5985 30.5306 98.4997 30.3976C98.4031 30.3081 98.3339 30.1929 98.3003 30.0654C98.2344 29.8333 98.2344 29.5672 98.2344 29.335V27.8064ZM102.474 30.7306V27.8064H103.17L104.593 29.7663V27.8064H105.255V30.7298H104.56L103.17 28.8368V30.7298L102.474 30.7306ZM106.647 30.7306V27.8064H107.342V30.7298L106.647 30.7306ZM109.495 30.7306V28.3046H108.468V27.8064H111.25V28.3046H110.223V30.7306H109.495ZM112.343 30.7306V27.8064H113.039V30.7298L112.343 30.7306ZM114.397 30.7306V27.8064H116.98V28.3046H115.092V28.9359H116.847V29.4341H115.092V30.2315H117.046V30.7298L114.397 30.7306ZM118.172 29.8002L118.868 29.7333C118.901 29.8994 118.967 30.0654 119.132 30.1654C119.298 30.2646 119.464 30.2985 119.629 30.2985C119.795 30.2985 119.994 30.2646 120.126 30.1654C120.226 30.0993 120.292 29.9993 120.292 29.8993C120.29 29.8381 120.267 29.7795 120.226 29.7341C120.16 29.6672 120.06 29.6341 119.96 29.6002C119.894 29.5672 119.696 29.5341 119.398 29.4681C119.113 29.4337 118.84 29.3311 118.603 29.1689C118.501 29.1061 118.417 29.0181 118.359 28.9133C118.301 28.8085 118.271 28.6905 118.272 28.5707C118.271 28.4965 118.285 28.423 118.314 28.3545C118.342 28.2861 118.384 28.2241 118.437 28.1724C118.537 28.0394 118.703 27.9394 118.868 27.8733C119.1 27.8064 119.332 27.7733 119.563 27.7733C119.927 27.7403 120.259 27.8403 120.557 28.0063C120.657 28.0788 120.738 28.1734 120.796 28.2827C120.853 28.3921 120.885 28.5132 120.888 28.6368L120.193 28.6707C120.193 28.5376 120.093 28.4046 119.994 28.3385C119.849 28.2704 119.691 28.2363 119.53 28.2385C119.365 28.2385 119.199 28.2716 119.034 28.3385C119.003 28.354 118.978 28.3776 118.96 28.4068C118.943 28.436 118.934 28.4696 118.934 28.5037C118.933 28.5382 118.942 28.5721 118.96 28.6016C118.977 28.6312 119.003 28.6551 119.034 28.6707C119.232 28.7698 119.464 28.8359 119.696 28.8698C119.96 28.9028 120.226 28.9689 120.457 29.0698C120.624 29.135 120.755 29.235 120.855 29.3681C121.054 29.6672 121.054 30.0324 120.822 30.2985C120.699 30.4482 120.539 30.5627 120.358 30.6306C120.11 30.6984 119.854 30.7317 119.596 30.7298C119.232 30.7637 118.868 30.6637 118.57 30.4646C118.338 30.3646 118.172 30.0993 118.172 29.8002Z" fill="white"/>
</svg>
