<svg width="69" height="40" viewBox="0 0 69 40" fill="none" xmlns="http://www.w3.org/2000/svg">
<g clip-path="url(#clip0_9533_165645)">
<mask id="mask0_9533_165645" style="mask-type:luminance" maskUnits="userSpaceOnUse" x="0" y="0" width="69" height="40">
<path d="M0.17348 0H69.0034V40H0.171875L0.17348 0Z" fill="white"/>
</mask>
<g mask="url(#mask0_9533_165645)">
<path d="M29.8227 26.1402H29.3437V31.5746H32.4567V31.153H29.8227V26.1402ZM38.9797 27.529C38.694 27.5194 38.4098 27.5734 38.1477 27.6871C37.8857 27.8009 37.6524 27.9716 37.4649 28.1866L37.704 28.4842C37.8513 28.2985 38.0401 28.1496 38.2553 28.0493C38.4704 27.9491 38.7061 27.9002 38.9435 27.9066C39.5228 27.9066 39.9962 28.2202 39.9962 28.809V29.6306C39.827 29.4462 39.6194 29.3009 39.388 29.205C39.1565 29.1091 38.9068 29.0648 38.6563 29.0754C38.4327 29.0604 38.2089 29.1031 38.0066 29.1994C37.8044 29.2956 37.6304 29.4423 37.5014 29.6251C37.3725 29.8079 37.293 30.0208 37.2706 30.2431C37.2481 30.4655 37.2836 30.6899 37.3734 30.8946C37.4808 31.1417 37.6612 31.3501 37.8906 31.4921C38.12 31.634 38.3875 31.7028 38.6571 31.689C38.9075 31.6989 39.1571 31.6542 39.3885 31.5582C39.6199 31.4622 39.8275 31.3171 39.997 31.133V31.5746H40.4222V28.7978C40.4222 27.9178 39.782 27.5338 38.9797 27.5338V27.529ZM39.9962 30.7914C39.8523 30.9672 39.6696 31.1073 39.4623 31.2008C39.2551 31.2944 39.0289 31.3388 38.8015 31.3306C38.6647 31.3455 38.5263 31.3314 38.3953 31.2893C38.2643 31.2472 38.1437 31.178 38.0414 31.0863C37.939 30.9946 37.8572 30.8824 37.8013 30.757C37.7453 30.6316 37.7165 30.4959 37.7168 30.3586C37.7168 30.2215 37.7457 30.0859 37.8018 29.9606C37.8578 29.8353 37.9396 29.7232 38.0419 29.6316C38.1442 29.5399 38.2647 29.4707 38.3956 29.4285C38.5265 29.3863 38.6648 29.372 38.8015 29.3866C39.0306 29.3787 39.2582 29.4249 39.466 29.5214C39.6737 29.6179 39.8557 29.7619 39.997 29.9418L39.9962 30.7914ZM42.1657 28.309V27.6314H41.7565V31.5754H42.1769V28.709C42.2977 28.5161 42.4607 28.3529 42.6537 28.2317C42.8467 28.1105 43.0647 28.0344 43.2913 28.009C43.3623 28.0067 43.4332 28.0115 43.5032 28.0234V27.5594C43.2368 27.5731 42.9773 27.6488 42.7456 27.7805C42.5139 27.9122 42.3164 28.0963 42.1689 28.3178L42.1657 28.309ZM34.6992 27.5426C33.6049 27.5426 32.8058 28.465 32.8058 29.6034C32.8058 30.817 33.6185 31.6722 34.7715 31.6722C35.0596 31.6813 35.3464 31.6293 35.6129 31.5197C35.8795 31.41 36.1196 31.2453 36.3175 31.0362L36.0945 30.7586C35.9299 30.9353 35.7303 31.0758 35.5084 31.1714C35.2864 31.267 35.0469 31.3155 34.8051 31.3138C33.872 31.3138 33.3008 30.6026 33.2623 29.7538H36.5598V29.6306C36.5598 28.4922 35.8995 27.5458 34.6992 27.5458V27.5426ZM33.2623 29.4114C33.2928 28.7258 33.7605 27.9122 34.688 27.9122C34.8822 27.9135 35.0741 27.9536 35.2524 28.0302C35.4307 28.1068 35.5918 28.2183 35.7261 28.3581C35.8604 28.4979 35.9652 28.6632 36.0343 28.8441C36.1033 29.0251 36.1353 29.218 36.1282 29.4114H33.2623ZM62.2744 30.1866C62.1835 30.1896 62.0947 30.2141 62.0151 30.2581C61.9356 30.302 61.8677 30.3642 61.817 30.4394C61.7949 30.3619 61.7465 30.2943 61.6801 30.2483C61.6138 30.2022 61.5334 30.1804 61.4528 30.1866C61.367 30.1901 61.2831 30.2128 61.2074 30.2531C61.1317 30.2934 61.0661 30.3503 61.0155 30.4194V30.2194H60.8037V31.5746H61.0155V30.5858C61.0547 30.5266 61.1068 30.4768 61.1679 30.4404C61.229 30.404 61.2976 30.3818 61.3685 30.3754C61.5507 30.3754 61.6229 30.4866 61.6229 30.653V31.5746H61.8315V30.5842C61.8711 30.5242 61.9242 30.4741 61.9866 30.438C62.049 30.4019 62.1189 30.3808 62.1909 30.3762C62.369 30.3762 62.4413 30.4874 62.4413 30.6538V31.5754H62.645V30.5954C62.645 30.3178 62.5143 30.1874 62.2688 30.1874L62.2744 30.1866ZM52.4932 27.5426C52.2221 27.5571 51.9567 27.6257 51.7127 27.7444C51.4688 27.8632 51.2513 28.0296 51.0731 28.2338V27.6402H50.6687V31.5746H51.0924V28.6034C51.2423 28.4024 51.4354 28.2373 51.6575 28.1201C51.8795 28.0029 52.125 27.9365 52.3761 27.9258C52.9497 27.9258 53.3308 28.1538 53.3308 28.9146V31.5746H53.732V28.8226C53.732 27.9346 53.2923 27.5426 52.4908 27.5426H52.4932ZM57.8014 28.2754C57.6497 28.0517 57.4457 27.868 57.207 27.7403C56.9682 27.6127 56.7019 27.5448 56.431 27.5426C55.3816 27.5426 54.6707 28.3562 54.6707 29.6034C54.6707 30.8498 55.3816 31.6578 56.431 31.6578C56.7025 31.6523 56.9687 31.5819 57.2072 31.4524C57.4456 31.3229 57.6494 31.1382 57.8014 30.9138V31.5442C57.8014 32.4306 57.1756 32.7858 56.4615 32.7858C56.2132 32.8082 55.9632 32.7693 55.7336 32.6724C55.5039 32.5756 55.3018 32.4239 55.1449 32.2306L54.9026 32.5746C55.0998 32.7859 55.3429 32.9492 55.6133 33.0523C55.8837 33.1553 56.1741 33.1952 56.4623 33.169C57.4203 33.169 58.2355 32.7386 58.2355 31.5418V27.6402H57.8022L57.8014 28.2754ZM57.8014 30.5554C57.6597 30.7715 57.4672 30.9497 57.2407 31.0746C57.0142 31.1996 56.7605 31.2674 56.5016 31.2722C55.6295 31.2722 55.108 30.5554 55.108 29.6058C55.108 28.6562 55.6183 27.9394 56.5008 27.9394C56.7601 27.9446 57.0141 28.013 57.2408 28.1385C57.4674 28.2639 57.6599 28.4428 57.8014 28.6594V30.5554ZM46.1677 27.5426C45.8965 27.5564 45.6308 27.6248 45.3868 27.7435C45.1427 27.8623 44.9253 28.0291 44.7476 28.2338V27.6402H44.3247V31.5746H44.7476V28.6034C44.8973 28.4021 45.0903 28.2368 45.3124 28.1195C45.5345 28.0023 45.7802 27.9361 46.0313 27.9258C46.6025 27.9258 46.9869 28.1538 46.9869 28.9146V31.5746H47.4161V28.8226C47.4161 27.9346 46.9692 27.5426 46.1677 27.5426ZM59.3836 30.5722C59.3836 30.4522 59.4975 30.3586 59.6845 30.3586C59.7605 30.3561 59.8362 30.3699 59.9064 30.3992C59.9766 30.4285 60.0396 30.4725 60.0912 30.5282L60.1883 30.3842C60.1225 30.3185 60.0438 30.267 59.9571 30.233C59.8704 30.199 59.7776 30.1832 59.6845 30.1866C59.3611 30.1866 59.183 30.3642 59.183 30.5786C59.183 31.0778 60.0182 30.8746 60.0182 31.2058C60.0182 31.3386 59.9043 31.4362 59.6957 31.4362C59.6122 31.4361 59.5295 31.419 59.4528 31.386C59.3761 31.353 59.307 31.3048 59.2496 31.2442L59.1437 31.3946C59.2144 31.4659 59.2992 31.5216 59.3927 31.5584C59.4863 31.5952 59.5864 31.6122 59.6869 31.6082C60.0383 31.6082 60.222 31.4274 60.222 31.197C60.222 30.6722 59.386 30.8642 59.386 30.573L59.3836 30.5722ZM48.951 26.3762C48.8652 26.376 48.7829 26.4095 48.7218 26.4694C48.6607 26.5293 48.6257 26.6108 48.6244 26.6962C48.6252 26.7825 48.6599 26.865 48.7209 26.9261C48.7819 26.9873 48.8645 27.0222 48.951 27.0234C49.0376 27.0226 49.1205 26.9877 49.1815 26.9262C49.2425 26.8648 49.2767 26.7819 49.2767 26.6954C49.2766 26.653 49.268 26.611 49.2515 26.5719C49.235 26.5328 49.2108 26.4974 49.1804 26.4677C49.15 26.438 49.114 26.4146 49.0745 26.3989C49.035 26.3832 48.9935 26.3755 48.951 26.3762ZM48.7448 31.5746H49.17V27.6402H48.7448V31.5762V31.5746ZM18.599 4.77384C18.6947 4.43801 18.6674 4.07915 18.5218 3.76161C18.3763 3.44407 18.122 3.18861 17.8047 3.04104C17.1251 2.66904 16.2201 2.66104 15.4659 2.69384C14.0549 2.77029 12.6588 3.02128 11.3098 3.44104C8.61403 4.26504 6.10757 5.74904 3.87951 7.45064C2.26122 8.69624 0.231334 10.6026 0.172765 12.8002C0.127834 14.5162 1.79346 15.577 3.20796 16.133C5.64783 17.0602 8.33563 16.8578 10.7923 17.7434C11.1598 17.8794 11.5136 18.0506 11.8474 18.2546C11.9172 18.293 12.2734 18.5706 12.1066 18.429C12.3211 18.6124 12.4972 18.8361 12.6249 19.0874C12.6497 19.141 12.6722 19.1954 12.6915 19.2514C12.5968 18.9986 12.6634 19.1714 12.6754 19.2346C12.6995 19.345 12.7091 19.4586 12.7027 19.5706C12.7027 19.6266 12.7027 19.6818 12.689 19.7402C12.7027 19.6538 12.7332 19.385 12.689 19.7402C12.6545 19.8602 12.612 19.9786 12.5607 20.0922C12.7613 19.6426 12.5607 20.0922 12.4804 20.1874C12.2012 20.6066 12.6778 19.9594 12.4211 20.2706C12.3128 20.401 11.8257 20.8946 12.3184 20.4122C12.1924 20.535 12.0624 20.6535 11.9284 20.7674C11.7977 20.8818 11.2408 21.3226 11.8306 20.8618C11.4799 21.1394 11.1125 21.3698 10.7362 21.6034C10.2708 21.881 11.0403 21.4314 10.7362 21.6034C10.5725 21.701 10.4136 21.7874 10.2492 21.881C9.9146 22.0618 9.57201 22.2282 9.23022 22.389L8.69507 22.6338C9.22942 22.3978 8.59718 22.6698 8.48004 22.7138C8.11017 22.8666 7.73388 22.9922 7.36642 23.1362C6.99895 23.2802 6.67882 23.361 6.33302 23.4642C6.24156 23.4946 5.60932 23.6666 6.05461 23.5474C5.86847 23.597 5.67592 23.6418 5.4978 23.6914C4.76367 23.8634 4.01911 23.989 3.26974 24.0698C2.39521 24.161 1.41156 24.9018 0.955032 25.6242C0.497707 26.3466 0.902079 26.7354 1.64904 26.6546C5.93152 26.1536 9.99729 24.5029 13.4127 21.8786C14.6523 20.9226 16.0307 19.5314 16.1647 17.8874C16.2819 16.4186 14.6828 15.5714 13.5162 15.1578C11.001 14.2858 8.29631 14.497 5.85724 13.5258C5.02122 13.1978 4.43071 12.8538 3.95172 12.1842C3.86354 12.0608 3.78826 11.9286 3.72707 11.7898C3.69257 11.7226 3.66769 11.6562 3.63961 11.5898C3.72626 11.8114 3.63961 11.5898 3.63961 11.5482C3.6129 11.4117 3.6 11.2729 3.6011 11.1338C3.59698 11.0646 3.59698 10.9951 3.6011 10.9258C3.61715 10.6178 3.56179 11.0562 3.6011 10.865C3.6356 10.6986 3.68615 10.5354 3.75114 10.3786C3.77681 10.3202 3.93006 10.0146 3.77119 10.3226C3.81853 10.2266 3.87951 10.1314 3.93487 10.0458C3.99103 9.95944 4.06083 9.85384 4.12743 9.76824C4.3585 9.43464 3.89876 10.0458 4.16353 9.72024C4.35288 9.48984 4.55908 9.27384 4.77089 9.05944C4.42268 9.40984 4.77089 9.07944 4.82064 9.01784C4.87118 8.95704 5.02924 8.83224 5.13836 8.74024L5.46972 8.46264C5.54514 8.39864 5.9463 8.09624 5.51786 8.42344C6.04258 8.02584 6.58896 7.65544 7.1522 7.31304C6.7061 7.59064 7.15219 7.31304 7.23243 7.26824L7.6368 7.04424C7.91521 6.90184 8.17115 6.76584 8.44715 6.62984L8.85393 6.43784C8.92052 6.40744 9.37704 6.20744 8.95101 6.38824C9.25509 6.25784 9.56399 6.13864 9.87368 6.02744C10.124 5.93544 10.3767 5.85224 10.6303 5.77464C10.7001 5.75224 11.1149 5.64424 10.7057 5.74984L11.0539 5.66584C11.7688 5.50497 12.4935 5.39086 13.2234 5.32424C12.9811 5.34424 13.4601 5.32424 13.5018 5.32424H13.9391C14.0642 5.32424 14.1902 5.34424 14.3154 5.36104L14.4855 5.38824C14.7639 5.43304 14.2544 5.32424 14.4991 5.38824C14.6588 5.43144 14.812 5.49384 14.9564 5.57464C15.0126 5.60664 15.0687 5.64264 15.1201 5.68264C14.8698 5.49704 15.0535 5.63864 15.1201 5.70504C15.1787 5.77784 15.226 5.85944 15.2597 5.94664C15.2035 5.80744 15.2316 5.77704 15.2597 5.98584C15.2814 6.26344 15.2597 6.07704 15.2902 5.93784C15.0615 6.78824 16.0026 6.72984 16.549 6.53784C17.3032 6.26024 18.384 5.60824 18.6126 4.77224M34.7193 5.06584C34.7193 5.06584 38.1669 4.23224 36.7043 7.21784C35.3122 10.0338 29.8757 20.8554 31.0455 23.3434C31.0455 23.3434 28.2598 24.4546 28.4908 22.1274C28.7227 19.8002 34.7193 5.06584 34.7193 5.06584ZM27.0707 16.7402C26.9263 16.2602 26.2965 16.0986 25.8536 16.1234C25.0683 16.204 24.3333 16.5465 23.7676 17.0954C23.5108 17.3282 23.2581 17.5562 22.9933 17.7866C22.7285 18.017 22.4365 18.273 22.138 18.509C21.988 18.6394 21.8323 18.7618 21.6791 18.889C21.6628 18.8984 21.6477 18.9097 21.6342 18.9226L21.4593 19.0618C20.6661 19.6824 19.8433 20.2645 18.9937 20.8058L18.7153 20.9778L18.3896 21.1522C18.5316 20.789 18.6961 20.4306 18.8629 20.0802C19.3399 19.1032 19.8642 18.1498 20.4339 17.2234C20.551 17.0202 20.5205 17.0706 20.462 17.1706C20.8431 16.4786 21.0685 15.5042 20.0159 15.2826C19.0579 15.0906 17.7878 15.7098 17.1917 16.4954C17.3979 16.6154 17.8215 17.1978 16.4792 20.0474C15.9497 21.1578 15.8807 22.0474 16.0588 22.6906C16.5242 23.5434 17.2864 24.2074 18.5203 23.7882C21.3477 22.8274 24.598 20.4082 24.598 20.4082C24.598 20.4082 20.7653 33.657 16.7801 36.6706C14.9508 38.0594 15.2372 39.1426 15.8189 39.8282C16.8026 40.3834 17.9579 39.5506 18.9191 38.481C21.5634 34.9907 23.6603 31.1198 25.1379 27.001C28.0568 20.1642 27.6444 17.645 27.0876 16.7402M42.3334 13.1386C42.2524 13.0648 42.1556 13.0104 42.0503 12.9796C41.9451 12.9488 41.8341 12.9425 41.726 12.961C41.5006 12.961 41.0801 13.213 40.6565 13.7242C39.9489 14.5162 39.3447 15.5794 38.5095 17.057L38.0602 17.837C36.0752 21.3002 35.4847 21.2586 35.3066 21.205C35.2431 21.1799 35.1866 21.1399 35.1419 21.0883C35.0972 21.0368 35.0657 20.9753 35.0499 20.909C34.9904 20.6814 34.9781 20.444 35.0138 20.2114C35.0322 19.9554 35.0659 19.6994 35.114 19.4474C35.1397 19.309 35.1702 19.1698 35.1975 19.0282C35.3283 18.3794 35.5144 17.7426 35.7551 17.1258C35.8241 16.9594 35.8971 16.793 35.9798 16.6322C36.075 16.4759 36.1355 16.3011 36.1572 16.1195C36.1789 15.9378 36.1614 15.7537 36.1057 15.5794C36.0323 15.4499 35.9311 15.3381 35.8093 15.2521C35.6875 15.1661 35.5482 15.1079 35.4013 15.0818C35.1727 15.0307 34.9333 15.0646 34.728 15.1771C34.5228 15.2897 34.3659 15.4732 34.2868 15.693C33.7716 16.9887 33.4452 18.3514 33.3176 19.7394C33.2206 20.6834 33.1564 22.3938 33.7942 23.1578C33.8817 23.266 33.9912 23.3545 34.1156 23.4172C34.24 23.48 34.3763 23.5156 34.5155 23.5218C36.3231 23.685 37.6406 21.8362 38.1139 21.0218L39.3174 19.037C39.4618 18.7866 39.6175 18.5538 39.7459 18.309C41.9097 14.3434 42.5861 14.421 42.5893 14.421C42.7065 13.8018 42.5893 13.3386 42.3358 13.113M47.8028 15.4402C46.2688 14.549 43.1967 19.0058 42.692 20.8114C42.4946 21.5138 42.3775 22.2802 42.9568 22.0354C43.5361 21.7914 47.0486 16.621 47.0486 16.621C47.1588 16.4728 47.305 16.3551 47.4734 16.2788C47.6419 16.2025 47.827 16.1702 48.0114 16.185C49.4348 16.3066 49.6442 16.9538 49.6442 16.9538C48.6806 17.4762 48.1984 20.1858 48.4294 21.2082C48.6613 22.2298 49.1202 21.5026 49.1202 21.5026C49.9563 20.353 52.9497 14.9106 52.9497 14.9106C53.4713 14.3682 55.039 14.8266 55.039 14.8266C55.2255 14.8699 55.4015 14.9499 55.5566 15.0619C55.7117 15.1739 55.8428 15.3156 55.9422 15.4788C56.0416 15.642 56.1073 15.8234 56.1354 16.0122C56.1636 16.2011 56.1536 16.3937 56.1061 16.5786L56.5482 16.1786C57.0072 15.7051 57.5859 15.3641 58.2233 15.1916C58.8607 15.0191 59.533 15.0215 60.1691 15.1986C61.9486 15.5962 61.8652 17.8674 61.3413 20.0194C60.8181 22.1714 61.4504 22.5994 61.4504 22.5994C62.3915 23.4578 64.6051 22.669 64.6051 22.669C67.3266 21.8802 66.9616 21.3026 66.9616 21.3026C67.4884 21.1674 68.0475 21.2441 68.5181 21.5162C69.5828 22.225 68.5823 22.8106 68.5823 22.8106C66.2787 24.1577 63.5451 24.574 60.9433 23.9738C58.9319 23.541 58.7955 21.8362 59.0161 19.8778C59.2945 17.5122 59.0964 17.0066 59.0964 17.0066C58.9375 16.2818 58.0718 17.0066 56.4254 19.0258C54.5817 21.2834 54.54 22.5274 54.54 22.5274C54.3233 23.7018 53.9583 23.6386 53.9583 23.6386C53.3468 23.7552 52.7182 23.7495 52.1089 23.6218C52.014 23.6161 51.9222 23.5862 51.8422 23.535C51.7621 23.4839 51.6965 23.4132 51.6516 23.3297C51.6066 23.2462 51.5839 23.1526 51.5854 23.0578C51.5869 22.9631 51.6128 22.8703 51.6604 22.7882L53.7545 17.0842C53.7545 17.0842 53.4231 17.4146 51.9083 20.2058C49.6803 24.3378 48.4126 23.705 48.4126 23.705C46.5969 23.4658 46.3185 21.5554 46.3185 21.5554C44.336 24.421 42.2973 23.6914 41.9154 23.5994C41.7124 23.5514 40.3107 23.2274 40.1526 21.9194C39.9577 20.353 42.3807 15.1682 45.1656 14.3826C47.9505 13.5962 48.8611 15.1906 48.8611 15.1906C48.8611 15.1906 49.3208 15.6706 48.967 15.8402C48.8511 15.9133 48.7141 15.9459 48.5776 15.9328C48.441 15.9198 48.3127 15.8619 48.2128 15.7682C48.001 15.593 47.8036 15.4514 47.8036 15.4514M59.8594 1.61384C59.7422 1.73624 53.4368 8.72584 46.9564 7.12584C44.9401 6.62584 43.784 4.44344 43.8514 3.44104C43.8514 3.44104 44.3608 1.83864 43.3443 0.961039C43.3106 0.933039 43.2159 0.911439 43.1766 0.974639C42.8982 1.42504 41.9908 2.66904 41.45 2.59064C41.2984 2.56802 41.1443 2.56802 40.9927 2.59064C40.9927 2.59064 39.23 4.53464 39.7491 6.20104C39.9128 6.72584 40.687 6.94504 41.3746 6.56504C42.6559 9.04504 44.5839 10.1754 47.1096 10.5498C53.9888 11.5802 61.5916 2.60504 61.8901 2.02184C62.0425 1.74424 61.8451 1.06984 62.1853 0.455439C62.759 -0.563761 61.2017 0.261039 59.8594 1.61384Z" fill="white"/>
</g>
</g>
<defs>
<clipPath id="clip0_9533_165645">
<rect width="69" height="40" fill="white"/>
</clipPath>
</defs>
</svg>
