<svg width="92" height="40" viewBox="0 0 92 40" fill="none" xmlns="http://www.w3.org/2000/svg">
<mask id="mask0_9533_165577" style="mask-type:luminance" maskUnits="userSpaceOnUse" x="0" y="0" width="92" height="40">
<path d="M0 0H91.1928V40H0.00079999L0 0Z" fill="white"/>
</mask>
<g mask="url(#mask0_9533_165577)">
<path d="M48.4844 4.01953V7.30433H58.5884C57.3044 5.66673 53.3988 4.38993 48.4844 4.01953ZM48.4844 12.9427C53.3988 12.5715 57.3044 11.2947 58.5884 9.65633H48.4844V12.9427Z" fill="white"/>
<path d="M45.5973 0C35.2309 0 26.8269 3.7936 26.8269 8.4808C26.8269 13.1688 35.2309 16.9624 45.5973 16.9624C55.9637 16.9624 64.3661 13.168 64.3661 8.48C64.3661 3.7936 55.9645 0 45.5973 0ZM44.9981 5.756H42.6437V4.016C36.5637 4.4616 32.0085 6.2904 32.0085 8.4816C32.0085 10.6736 36.5693 12.5008 42.6485 12.9456V11.1136H45.0037V15.4688C35.9957 15.3528 28.7813 12.268 28.7813 8.4816C28.7813 4.696 36.0005 1.6112 45.0037 1.496L44.9981 5.756ZM61.2197 10.9288C58.8981 13.5096 53.0501 15.364 46.1285 15.4656V1.4968C53.0485 1.5984 58.9005 3.4512 61.2149 6.0256C62.7141 7.764 61.2069 8.48 61.2069 8.48C61.2069 8.48 62.7125 9.1968 61.2165 10.9344L61.2197 10.9288ZM6.13889 27.2504C6.00849 29.024 5.00609 30.0088 3.39969 30.0088C2.43409 30.0088 1.65569 29.7128 1.03569 29.0936C0.698399 28.7529 0.433022 28.3479 0.255327 27.9026C0.0776318 27.4574 -0.00875756 26.9809 0.00129113 26.5016C-0.0116324 26.0289 0.0725784 25.5586 0.248713 25.1198C0.424847 24.681 0.689158 24.283 1.02529 23.9504C1.32242 23.646 1.6783 23.4052 2.07133 23.2425C2.46436 23.0798 2.88635 22.9987 3.31169 23.004C4.01157 23.0003 4.69083 23.2408 5.23249 23.684L5.43009 23.092H6.13889V25.804H5.38049C5.22369 24.5208 4.52369 23.812 3.49889 23.812C2.32209 23.812 1.55809 24.7976 1.55809 26.5512C1.55809 28.2064 2.29649 29.1032 3.51969 29.1032C4.48529 29.1032 5.10689 28.4632 5.29249 27.2512L6.13889 27.2504ZM7.10449 23.8608H6.84289V23.2H8.85889V25.9784C9.37089 25.3384 9.92289 25.0128 10.4853 25.0128C11.5981 25.0128 11.9829 25.5456 11.9829 26.728V28.56C11.9829 29.0136 12.0509 29.152 12.5533 29.152H12.8293V29.8064H10.0309V29.152H10.2325C10.7349 29.152 10.8037 29.0136 10.8037 28.56V26.728C10.8037 26.0872 10.6261 25.772 10.0741 25.772C9.36529 25.772 8.86289 26.3136 8.86289 27.3976V28.56C8.86289 29.0136 8.93169 29.152 9.43409 29.152H9.63089V29.8064H6.84769V29.152H7.11009C7.61169 29.152 7.68129 29.0136 7.68129 28.56V24.456C7.68129 24.0024 7.61169 23.8648 7.11009 23.8648M15.8733 29.152H16.3669V29.8064H13.2333V29.152H13.5581C14.0605 29.152 14.1189 29.0136 14.1189 28.5608V26.4192C14.1189 25.9656 14.0605 25.828 13.5581 25.828H13.2333V25.1672H15.3125V25.8672C15.6165 25.3152 16.0317 25.0392 16.5445 25.0392C17.2533 25.0392 17.7365 25.4824 17.7365 26.104C17.7365 26.5872 17.4213 26.9416 16.9381 26.9416C16.5237 26.9416 16.2581 26.68 16.2581 26.3304C16.2581 26.0048 16.4645 25.7696 16.8597 25.6608C16.7331 25.6008 16.5957 25.5668 16.4557 25.5608C15.8445 25.5608 15.3117 26.2328 15.3117 27.3152V28.5672C15.3117 29.02 15.3709 29.1592 15.8733 29.1592M18.1501 29.152H18.5133C19.0173 29.152 19.0757 29.0136 19.0757 28.56V26.4192C19.0757 25.9656 19.0173 25.8272 18.5133 25.8272H18.1501V25.1728H20.2781V28.5744C20.2781 29.028 20.3477 29.1664 20.8501 29.1664H21.1461V29.8208H18.1501V29.152ZM19.5885 23.1216C19.6852 23.1192 19.7815 23.1364 19.8714 23.172C19.9614 23.2076 20.0433 23.261 20.1122 23.3289C20.1811 23.3968 20.2356 23.478 20.2725 23.5674C20.3094 23.6569 20.3279 23.7528 20.3269 23.8496C20.3265 23.9579 20.3022 24.0648 20.2556 24.1626C20.2091 24.2604 20.1415 24.3467 20.0576 24.4153C19.9738 24.4839 19.8759 24.5331 19.7708 24.5594C19.6657 24.5857 19.5561 24.5884 19.4499 24.5674C19.3436 24.5464 19.2433 24.5021 19.1562 24.4377C19.0691 24.3734 18.9973 24.2906 18.9459 24.1952C18.8946 24.0998 18.8649 23.9943 18.8591 23.8861C18.8534 23.778 18.8716 23.6699 18.9125 23.5696C18.9673 23.4358 19.0611 23.3215 19.1816 23.2417C19.3021 23.1618 19.4439 23.1199 19.5885 23.1216ZM21.6765 27.9696H22.3989C22.5861 28.816 23.1485 29.2776 23.9685 29.2776C24.4917 29.2776 24.7957 29.016 24.7957 28.6672C24.7957 28.3424 24.5341 28.1952 23.9685 28.0576L23.2389 27.8792C22.2245 27.6336 21.7317 27.1704 21.7317 26.4408C21.7317 25.5832 22.4405 24.9816 23.5341 24.9816C24.043 24.9801 24.5382 25.1466 24.9429 25.4552L25.1605 25.0904H25.7213V26.812H25.0517C24.8557 26.092 24.3125 25.6776 23.6125 25.6776C23.1405 25.6776 22.8645 25.8944 22.8645 26.2296C22.8645 26.4912 23.0421 26.6432 23.4165 26.732L24.3125 26.94C25.4365 27.2016 25.9685 27.6584 25.9685 28.4672C25.9685 29.3824 25.2797 29.9736 24.0861 29.9736C23.5173 29.9788 22.9629 29.7947 22.5101 29.4504L22.3317 29.8656H21.6781L21.6765 27.9696ZM27.2045 25.8408H26.4365V25.2008C27.3517 25.052 27.7061 24.4808 27.7861 23.3288H28.4165V25.1592H29.6973V25.8392H28.3973V28.4904C28.3973 28.904 28.4557 29.0712 28.7517 29.0712C29.1357 29.0712 29.1949 28.7072 29.1949 27.8704V27.6088H29.8357C29.8453 27.7576 29.8453 27.9048 29.8453 28.0328C29.8453 29.3736 29.4421 29.9736 28.4261 29.9736C27.5597 29.9736 27.2053 29.4504 27.2053 28.3496V25.84L27.2045 25.8408ZM30.5101 29.152H30.8749C31.3773 29.152 31.4357 29.0136 31.4357 28.56V26.4192C31.4357 25.9656 31.3773 25.8272 30.8749 25.8272H30.5101V25.1728H32.6381V28.5744C32.6381 29.028 32.7077 29.1664 33.2101 29.1664H33.5061V29.8208H30.5101V29.152ZM31.9493 23.1216C32.046 23.1195 32.1421 23.1367 32.232 23.1724C32.3218 23.2081 32.4036 23.2615 32.4725 23.3294C32.5414 23.3973 32.5959 23.4783 32.6329 23.5677C32.6698 23.657 32.6885 23.7529 32.6877 23.8496C32.688 23.9825 32.6523 24.113 32.5842 24.2271C32.5162 24.3413 32.4185 24.4349 32.3015 24.4979C32.1845 24.5609 32.0526 24.591 31.9199 24.585C31.7871 24.5789 31.6585 24.537 31.5477 24.4636C31.4369 24.3902 31.3481 24.2881 31.2908 24.1682C31.2334 24.0483 31.2097 23.9151 31.2221 23.7828C31.2345 23.6505 31.2826 23.524 31.3612 23.4169C31.4398 23.3097 31.546 23.2259 31.6685 23.1744C31.7574 23.1384 31.8534 23.1204 31.9493 23.1216ZM35.4029 29.9896C34.5549 29.9896 33.9933 29.448 33.9933 28.7176C33.9933 27.9488 34.4853 27.5744 35.4813 27.2696C36.0333 27.1016 36.4573 27.0528 36.6837 26.9048C36.7918 26.8411 36.8796 26.7481 36.937 26.6365C36.9943 26.5249 37.0188 26.3994 37.0077 26.2744C37.0077 25.7912 36.6445 25.5248 35.9941 25.5248C35.5893 25.5248 35.2941 25.6048 35.0573 25.8112H35.0893C35.4813 25.8112 35.7085 26.0176 35.7085 26.3528C35.7085 26.7288 35.4325 26.9848 35.0189 26.9848C34.9158 26.9899 34.8128 26.9737 34.7163 26.937C34.6198 26.9003 34.532 26.8441 34.4583 26.7717C34.3846 26.6994 34.3268 26.6127 34.2883 26.5169C34.2499 26.4211 34.2317 26.3184 34.2349 26.2152C34.2349 25.5064 34.9445 24.984 36.1469 24.984C36.8165 24.984 37.3245 25.1024 37.6541 25.3176C38.1277 25.6344 38.1661 26.0776 38.1661 26.7576V28.8264C38.1661 29.0632 38.2453 29.1616 38.3933 29.1616C38.6781 29.1616 38.6997 28.8472 38.6997 28.0784H39.2997V28.2848C39.2997 29.4624 38.9645 29.9856 38.0781 29.9856C37.4973 29.9856 37.1517 29.7488 37.0037 29.2464C36.6117 29.7592 36.0973 29.9856 35.4077 29.9856L35.4029 29.9896ZM35.3277 28.596C35.3277 28.9512 35.5453 29.1576 35.9389 29.1576C36.5605 29.1576 36.9853 28.7248 36.9853 27.9352V27.3744C35.9509 27.8568 35.3293 27.9744 35.3293 28.596M39.5597 29.152H39.8845C40.3869 29.152 40.4469 29.0136 40.4469 28.5608V26.4192C40.4469 25.9656 40.3869 25.828 39.8845 25.828H39.5597V25.1672H41.6389V25.9848C42.1509 25.3448 42.6933 25.0192 43.2549 25.0192C44.3677 25.0192 44.7629 25.552 44.7629 26.7344V28.5664C44.7629 29.0192 44.8221 29.1576 45.3237 29.1576H45.6093V29.8112H42.8069V29.1576H43.0045C43.5069 29.1576 43.5661 29.0192 43.5661 28.5656V26.7344C43.5661 26.0944 43.3893 25.7784 42.8373 25.7784C42.1373 25.7784 41.6349 26.32 41.6349 27.3656V28.5672C41.6349 29.02 41.6941 29.1592 42.1965 29.1592H42.3933V29.8128H39.5597V29.152ZM48.5941 29.064H48.9789C49.5509 29.064 49.6333 29.0048 49.6333 28.4528V24.5592C49.6333 24.008 49.5549 23.948 48.9789 23.948H48.5949V23.2H52.4077C54.0533 23.2 54.8517 23.7232 54.8517 24.8456C54.8517 25.624 54.4277 26.0776 53.5213 26.304C54.5949 26.52 55.1173 27.0824 55.1173 28.0184C55.1173 29.3784 54.2013 29.8112 52.2213 29.8112H48.5941V29.0632V29.064ZM51.9645 26.008C52.9797 26.008 53.4621 25.7472 53.4621 24.9832C53.4621 24.2192 53.0381 23.9592 52.0733 23.9592H51.0181V26.0088H51.9645V26.008ZM52.1125 29.072C53.1861 29.072 53.6821 28.7784 53.6821 27.9096C53.6821 27.0408 53.1589 26.7672 52.0269 26.7672H51.0213V29.0728L52.1125 29.072ZM58.4285 29.152H58.9205V29.8064H55.7869V29.152H56.1125C56.6149 29.152 56.6741 29.0136 56.6741 28.5608V26.4192C56.6741 25.9656 56.6149 25.828 56.1125 25.828H55.7869V25.1672H57.8669V25.8672C58.1717 25.3152 58.5853 25.0392 59.0981 25.0392C59.8069 25.0392 60.2901 25.4824 60.2901 26.104C60.2901 26.5872 59.9749 26.9416 59.4917 26.9416C59.0781 26.9416 58.8125 26.68 58.8125 26.3304C58.8125 26.0048 59.0197 25.7696 59.4133 25.6608C59.2868 25.6005 59.1493 25.5665 59.0093 25.5608C58.3981 25.5608 57.8669 26.2328 57.8669 27.3152V28.5672C57.8669 29.02 57.9261 29.1592 58.4285 29.1592M63.1725 24.9808C64.7677 24.9808 65.8029 25.9864 65.8029 27.4848C65.8029 28.9824 64.7677 29.9768 63.1717 29.9768C61.5757 29.9768 60.5557 28.9824 60.5557 27.484C60.5557 25.9864 61.5813 24.98 63.1717 24.98L63.1725 24.9808ZM63.1725 29.2776C64.0285 29.2776 64.4621 28.6864 64.4621 27.484C64.4621 26.2824 64.0285 25.68 63.1717 25.68C62.3157 25.68 61.8917 26.2824 61.8917 27.484C61.8917 28.6864 62.3165 29.2776 63.1725 29.2776ZM67.0093 25.8408H66.2397V25.2008C67.1557 25.052 67.5117 24.4808 67.5901 23.3288H68.2205V25.1592H69.5021V25.8392H68.1941V28.4904C68.1941 28.904 68.2541 29.0712 68.5485 29.0712C68.9333 29.0712 68.9925 28.7072 68.9925 27.8704V27.6088H69.6325C69.6437 27.7576 69.6437 27.9048 69.6437 28.0328C69.6437 29.3736 69.2397 29.9736 68.2245 29.9736C67.3565 29.9736 67.0021 29.4504 67.0021 28.3496L67.0093 25.8408ZM70.5517 23.8608H70.2901V23.2H72.2989V25.9784C72.8125 25.3384 73.3645 25.0128 73.9269 25.0128C75.0397 25.0128 75.4229 25.5456 75.4229 26.728V28.56C75.4229 29.0136 75.4925 29.152 75.9949 29.152H76.2709V29.8064H73.4781V29.152H73.6805C74.1845 29.152 74.2541 29.0136 74.2541 28.56V26.728C74.2541 26.0872 74.0757 25.772 73.5237 25.772C72.8149 25.772 72.3109 26.3136 72.3109 27.3976V28.56C72.3109 29.0136 72.3805 29.152 72.8837 29.152H73.0805V29.8064H70.2949V29.152H70.5565C71.0589 29.152 71.1285 29.0136 71.1285 28.56V24.456C71.1285 24.0024 71.0589 23.8648 70.5565 23.8648M81.3597 28.1464C81.2229 29.2904 80.3949 29.9896 79.1933 29.9896C77.6749 29.9896 76.7293 28.9936 76.7293 27.4872C76.7293 25.9992 77.6941 24.9832 79.1933 24.9832C80.6117 24.9832 81.3901 25.8808 81.3901 27.5848H78.0701C78.1093 28.6488 78.5317 29.2008 79.2621 29.2008C80.0205 29.2008 80.3749 28.9048 80.5333 28.1464H81.3597ZM79.1837 25.644C78.6117 25.644 78.2357 26.0568 78.1181 26.8848H80.0909C80.0325 26.0368 79.7557 25.644 79.1837 25.644ZM84.5717 29.152H85.0621V29.8064H81.9317V29.152H82.2565C82.7597 29.152 82.8189 29.0136 82.8189 28.5608V26.4192C82.8189 25.9656 82.7597 25.828 82.2565 25.828H81.9317V25.1672H84.0157V25.8672C84.3221 25.3152 84.7349 25.0392 85.2477 25.0392C85.9573 25.0392 86.4397 25.4824 86.4397 26.104C86.4397 26.5872 86.1245 26.9416 85.6421 26.9416C85.2285 26.9416 84.9613 26.68 84.9613 26.3304C84.9613 26.0048 85.1685 25.7696 85.5637 25.6608C85.4368 25.6006 85.2992 25.5666 85.1589 25.5608C84.5485 25.5608 84.0157 26.2328 84.0157 27.3152V28.5672C84.0157 29.02 84.0749 29.1592 84.5773 29.1592M86.9069 27.9696H87.6261C87.8133 28.816 88.3749 29.2776 89.1965 29.2776C89.7197 29.2776 90.0229 29.016 90.0229 28.6672C90.0229 28.3424 89.7613 28.1952 89.1965 28.0576L88.4637 27.8808C87.4485 27.6352 86.9557 27.172 86.9557 26.4416C86.9557 25.5848 87.6645 24.9832 88.7581 24.9832C89.2662 24.9821 89.7606 25.1485 90.1645 25.4568L90.3813 25.0912H90.9493V26.8112H90.2797C90.0837 26.092 89.5405 25.6776 88.8405 25.6776C88.3669 25.6776 88.0909 25.8944 88.0909 26.2296C88.0909 26.4912 88.2685 26.6432 88.6429 26.732L89.5389 26.94C90.6629 27.2016 91.1957 27.6584 91.1957 28.4672C91.1957 29.3824 90.5045 29.9736 89.3125 29.9736C88.7437 29.9789 88.1892 29.7949 87.7365 29.4504L87.5581 29.8656H86.9045L86.9069 27.9696ZM74.3077 33.8328C74.3912 33.8352 74.4733 33.854 74.5495 33.8882C74.6257 33.9224 74.6944 33.9712 74.7517 34.032C74.8091 34.0927 74.8538 34.1641 74.8836 34.2422C74.9133 34.3202 74.9273 34.4033 74.9249 34.4868C74.9225 34.5703 74.9036 34.6524 74.8695 34.7286C74.8353 34.8048 74.7865 34.8735 74.7257 34.9308C74.665 34.9882 74.5936 35.033 74.5155 35.0627C74.4375 35.0924 74.3544 35.1064 74.2709 35.104C74.1023 35.0991 73.9426 35.0275 73.8268 34.9048C73.7111 34.7822 73.6488 34.6186 73.6537 34.45C73.6586 34.2814 73.7302 34.1217 73.8529 34.006C73.9755 33.8902 74.1391 33.8279 74.3077 33.8328ZM74.2997 33.964C74.1705 33.9722 74.0494 34.0296 73.9612 34.1243C73.873 34.2191 73.8245 34.344 73.8255 34.4734C73.8265 34.6028 73.877 34.7269 73.9667 34.8203C74.0564 34.9136 74.1784 34.969 74.3077 34.9752C74.3728 34.9748 74.4372 34.9613 74.497 34.9355C74.5568 34.9097 74.6107 34.8722 74.6557 34.8251C74.7006 34.7779 74.7356 34.7223 74.7586 34.6613C74.7815 34.6004 74.792 34.5355 74.7893 34.4704C74.7919 34.405 74.7812 34.3397 74.758 34.2784C74.7348 34.2172 74.6994 34.1613 74.6541 34.114C74.6088 34.0667 74.5544 34.0291 74.4942 34.0033C74.434 33.9775 74.3692 33.9642 74.3037 33.964H74.2997ZM74.2037 34.792H74.0573V34.164C74.1373 34.1496 74.2197 34.1416 74.3013 34.1416C74.3779 34.1348 74.4546 34.1524 74.5205 34.192C74.5396 34.2079 74.5551 34.2279 74.5657 34.2504C74.5763 34.2729 74.5819 34.2975 74.5821 34.3224C74.5805 34.3587 74.5667 34.3933 74.5431 34.4209C74.5195 34.4484 74.4873 34.4673 74.4517 34.4744C74.4833 34.4868 74.5109 34.5078 74.5311 34.5351C74.5513 34.5625 74.5635 34.5949 74.5661 34.6288C74.5715 34.683 74.5878 34.7355 74.6141 34.7832H74.4557C74.4303 34.7363 74.413 34.6855 74.4045 34.6328C74.3941 34.5632 74.3549 34.5328 74.2733 34.5328H74.2045L74.2037 34.792ZM74.2037 34.4376H74.2733C74.3549 34.4376 74.4197 34.4104 74.4197 34.3448C74.4197 34.2792 74.3781 34.248 74.2893 34.248C74.2619 34.2481 74.2346 34.2507 74.2077 34.256L74.2037 34.4376ZM17.5821 39.0736H17.7885C18.3117 39.0736 18.4989 38.9056 18.6661 38.4336L20.5069 33.2128H21.8965L23.8669 38.4344C24.0533 38.936 24.1125 39.0744 24.6645 39.0744H24.8605V39.8224H21.4445V39.0736H21.9749C22.3493 39.0736 22.5269 39.0344 22.5269 38.812C22.5155 38.6999 22.4858 38.5904 22.4389 38.488L22.1525 37.7032H19.9765L19.6909 38.54C19.6509 38.6344 19.6245 38.7336 19.6109 38.8344C19.6109 39.0528 19.7885 39.0624 20.1437 39.0624H20.6557V39.8104H17.5821V39.0736ZM21.0301 34.6504L20.2517 36.936H21.8869L21.0309 34.6504H21.0301ZM25.6533 36.424C25.6533 35.9704 25.5845 35.832 25.0821 35.832H24.8557V35.1776H26.8365V38.26C26.8365 38.9 27.0125 39.216 27.5645 39.216C28.2637 39.216 28.7765 38.6736 28.7765 37.6296V36.4272C28.7765 35.9744 28.7069 35.836 28.2045 35.836H27.7517V35.1816H29.9589V38.5832C29.9589 39.036 30.0269 39.1736 30.5293 39.1736H30.7909V39.8336H28.7765V39.0048C28.2637 39.6448 27.7125 39.9696 27.1501 39.9696C26.0365 39.9696 25.6541 39.4384 25.6541 38.256L25.6533 36.424ZM31.9485 35.8528H31.1805V35.2128C32.0965 35.0656 32.4509 34.4928 32.5301 33.3408H33.1605V35.1728H34.4341V35.852H33.1405V38.5008C33.1405 38.9144 33.1989 39.0816 33.4949 39.0816C33.8789 39.0816 33.9381 38.7184 33.9381 37.8808V37.6192H34.5781C34.5885 37.7672 34.5885 37.9152 34.5885 38.0432C34.5885 39.3824 34.1845 39.9832 33.1701 39.9832C32.3029 39.9832 31.9485 39.46 31.9485 38.3584V35.8528ZM37.8973 34.9944C39.4917 34.9944 40.5269 36.0008 40.5269 37.4976C40.5269 38.9936 39.4917 39.9896 37.8973 39.9896C36.3021 39.9896 35.2813 38.9952 35.2813 37.4976C35.2813 35.9992 36.3053 34.9944 37.8973 34.9944ZM37.8973 39.2904C38.7533 39.2904 39.1869 38.7 39.1869 37.4976C39.1869 36.2952 38.7517 35.6944 37.8973 35.6944C37.0429 35.6944 36.6165 36.2968 36.6165 37.4976C36.6165 38.6976 37.0389 39.2912 37.8965 39.2912L37.8973 39.2904ZM47.6085 35.0248C47.7954 35.0168 47.9821 35.0458 48.1578 35.1101C48.3335 35.1743 48.4948 35.2726 48.6325 35.3992C48.9477 35.7352 48.9581 36.1576 48.9581 36.7384V38.5704C48.9581 39.0256 49.0173 39.1624 49.5197 39.1624H49.7965V39.8168H47.1061V39.1624H47.2157C47.7165 39.1624 47.7861 39.0256 47.7861 38.5704V36.7384C47.7861 36.0848 47.6877 35.7832 47.1165 35.7832C46.5445 35.7832 46.0237 36.3072 46.0237 37.0736V38.5696C46.0237 39.0256 46.0829 39.1624 46.5837 39.1624H46.7013V39.8168H44.1725V39.1624H44.2797C44.7837 39.1624 44.8509 39.0256 44.8509 38.5704V36.7384C44.8509 36.0848 44.7533 35.7832 44.1813 35.7832C43.6093 35.7832 43.0877 36.3072 43.0877 37.0736V38.5696C43.0877 39.0256 43.1469 39.1624 43.6493 39.1624H43.7677V39.8168H41.0285V39.1624H41.3541C41.8565 39.1624 41.9165 39.0256 41.9165 38.5704V36.4232C41.9165 35.9704 41.8565 35.8336 41.3541 35.8336H41.0285V35.1792H43.0877V35.964C43.5805 35.3232 44.0637 35.028 44.6941 35.028C45.3245 35.028 45.7581 35.3424 45.9749 35.9736C46.5261 35.3424 47.0085 35.0272 47.6093 35.0272M52.8685 34.9944C54.4629 34.9944 55.4981 36.0008 55.4981 37.4976C55.4981 38.9936 54.4629 39.9896 52.8685 39.9896C51.2733 39.9896 50.2525 38.9952 50.2525 37.4976C50.2525 35.9992 51.2765 34.9944 52.8685 34.9944ZM52.8685 39.2904C53.7253 39.2904 54.1581 38.7 54.1581 37.4976C54.1581 36.2952 53.7253 35.6944 52.8685 35.6944C52.0117 35.6944 51.5877 36.2968 51.5877 37.4976C51.5877 38.6976 52.0101 39.2912 52.8677 39.2912L52.8685 39.2904ZM56.7093 35.8528H55.9413V35.2128C56.8573 35.0656 57.2117 34.4928 57.2917 33.3408H57.9221V35.1728H59.2021V35.852H57.9005V38.5008C57.9005 38.9144 57.9589 39.0816 58.2549 39.0816C58.6389 39.0816 58.6973 38.7184 58.6973 37.8808V37.6192H59.3381C59.3485 37.7672 59.3485 37.9152 59.3485 38.0432C59.3485 39.3824 58.9445 39.9832 57.9293 39.9832C57.0629 39.9832 56.7085 39.46 56.7085 38.3584L56.7093 35.8528ZM60.0085 39.1624H60.3733C60.8757 39.1624 60.9349 39.0256 60.9349 38.5712V36.424C60.9349 35.9712 60.8757 35.8344 60.3733 35.8344H60.0085V35.18H62.1365V38.5816C62.1365 39.0352 62.2053 39.1728 62.7077 39.1728H63.0037V39.8264H60.0085V39.1624ZM61.4477 33.1328C61.5445 33.1309 61.6407 33.1484 61.7306 33.1843C61.8204 33.2202 61.9022 33.2739 61.971 33.342C62.0398 33.4101 62.0942 33.4913 62.131 33.5809C62.1678 33.6704 62.1863 33.7664 62.1853 33.8632C62.1849 33.9715 62.1606 34.0784 62.114 34.1762C62.0675 34.274 61.9999 34.3603 61.916 34.4289C61.8322 34.4975 61.7343 34.5467 61.6292 34.573C61.5241 34.5993 61.4145 34.602 61.3083 34.581C61.202 34.56 61.1017 34.5157 61.0146 34.4513C60.9275 34.387 60.8557 34.3042 60.8043 34.2088C60.7529 34.1134 60.7233 34.0079 60.7175 33.8997C60.7118 33.7916 60.73 33.6835 60.7709 33.5832C60.8255 33.4489 60.9192 33.3341 61.0399 33.2538C61.1606 33.1734 61.3027 33.1313 61.4477 33.1328ZM64.1165 36.3344C63.9973 36.0096 63.8549 35.832 63.5845 35.832H63.2989V35.1776H65.8605V35.832H65.7005C65.4389 35.832 65.3165 35.912 65.3165 36.08C65.3261 36.224 65.3565 36.3656 65.4045 36.5016L66.1341 38.6496L66.9181 36.4144C66.9597 36.3136 66.9821 36.2064 66.9869 36.0992C66.9869 35.912 66.8557 35.8376 66.5445 35.8376H66.3077V35.1832H68.6021V35.8376H68.3565C68.0813 35.8376 67.8933 36.0352 67.7565 36.4392L66.5645 39.8272H65.3125L64.1165 36.3344ZM73.5813 38.1568C73.4509 39.3008 72.6173 40 71.4149 40C69.8973 40 68.9509 39.0056 68.9509 37.4976C68.9509 36.0096 69.9189 34.996 71.4149 34.996C72.8333 34.996 73.6125 35.892 73.6125 37.596H70.2909C70.3309 38.66 70.7549 39.212 71.4845 39.212C72.2429 39.212 72.5973 38.916 72.7549 38.156L73.5813 38.1568ZM71.4045 35.6552C70.8341 35.6552 70.4605 36.0688 70.3405 36.8968H72.3125C72.2525 36.0488 71.9765 35.6552 71.4045 35.6552Z" fill="white"/>
</g>
</svg>
