<svg width="124" height="22" viewBox="0 0 124 22" fill="none" xmlns="http://www.w3.org/2000/svg">
<path d="M44.521 6.33223C40.7925 6.33223 38.6622 8.64162 38.6622 12.5916C38.6622 16.5422 41.1149 18.7717 45.0759 18.8773C46.9314 18.9228 48.4615 18.4593 49.7804 17.943C49.8006 17.9353 49.818 17.9215 49.8302 17.9035C49.8424 17.8856 49.8487 17.8642 49.8484 17.8425V15.151C49.8486 15.1418 49.8464 15.1327 49.8421 15.1246C49.8377 15.1165 49.8313 15.1097 49.8235 15.1048C49.8157 15.0999 49.8067 15.0971 49.7975 15.0968C49.7883 15.0964 49.7791 15.0984 49.7709 15.1026C48.539 15.7407 46.9138 16.1147 45.8128 16.1147C43.7812 16.1147 42.5179 15.4715 42.2846 13.8119H50.2388C50.2465 13.8118 50.2542 13.8102 50.2614 13.8071C50.2685 13.804 50.275 13.7996 50.2804 13.794C50.2859 13.7884 50.2901 13.7818 50.293 13.7746C50.2959 13.7673 50.2973 13.7596 50.2973 13.7518V13.0521C50.2921 9.485 48.9652 6.33223 44.521 6.33223ZM42.2401 11.4629C42.3307 10.0871 43.0377 8.95771 44.5152 8.95771C46.1498 8.95771 46.7866 10.0871 46.7866 11.4629H42.2401ZM58.4107 6.54418C56.5289 6.54418 55.2964 7.11034 54.4841 8.83743H54.4366V6.73266C54.4366 6.71911 54.4339 6.7057 54.4287 6.69319C54.4236 6.68069 54.416 6.66934 54.4064 6.6598C54.3968 6.65025 54.3854 6.6427 54.3729 6.63759C54.3604 6.63247 54.347 6.62989 54.3335 6.62998H51.3785C51.3514 6.62998 51.3253 6.6408 51.3061 6.66006C51.2869 6.67931 51.2762 6.70543 51.2762 6.73266V18.4974C51.2762 18.5246 51.2869 18.5508 51.3061 18.57C51.3253 18.5893 51.3514 18.6001 51.3785 18.6001H54.6954C54.7226 18.6001 54.7486 18.5893 54.7678 18.57C54.787 18.5508 54.7978 18.5246 54.7978 18.4974V13.5442C54.7978 10.9723 55.6714 9.79888 57.3711 9.79888C58.4912 9.79888 59.4401 10.5572 59.4401 12.8094V18.4974C59.4401 18.511 59.4428 18.5244 59.448 18.5369C59.4531 18.5494 59.4607 18.5607 59.4703 18.5703C59.4799 18.5798 59.4913 18.5874 59.5038 18.5925C59.5163 18.5976 59.5297 18.6002 59.5432 18.6001H62.8637C62.8909 18.6001 62.9169 18.5893 62.9361 18.57C62.9553 18.5508 62.9661 18.5246 62.9661 18.4974V11.3221C62.9683 8.8411 61.6589 6.54418 58.4107 6.54418ZM21.6142 11.0434C19.7573 10.6357 19.4648 10.4303 19.4648 9.88982C19.4648 9.27746 20.0555 8.91737 21.09 8.91737C22.1245 8.91737 23.1107 9.15058 24.2402 9.65808C24.2519 9.6634 24.2647 9.66572 24.2774 9.66483C24.2902 9.66393 24.3025 9.65985 24.3133 9.65294C24.3239 9.64611 24.3326 9.63679 24.3387 9.62579C24.3448 9.6148 24.3482 9.60246 24.3484 9.58987V6.89326C24.3505 6.85642 24.3409 6.81987 24.3209 6.78888C24.3009 6.7579 24.2717 6.7341 24.2373 6.72092C23.2569 6.39164 22.142 6.27063 20.8246 6.27063C17.5194 6.27063 15.5974 7.78431 15.5974 10.1524C15.5974 12.1669 16.6809 13.1137 19.2148 13.7004C21.1616 14.1551 21.4592 14.3575 21.4592 14.945C21.4592 15.6431 20.7581 15.8954 19.8048 15.8954C18.647 15.8791 17.5012 15.6581 16.4199 15.2427C16.4083 15.2381 16.3958 15.2364 16.3835 15.2379C16.3711 15.2393 16.3593 15.2438 16.3491 15.2509C16.3389 15.258 16.3306 15.2675 16.325 15.2787C16.3193 15.2898 16.3165 15.3021 16.3168 15.3146L16.3629 18.031C16.3633 18.0662 16.3754 18.1003 16.3972 18.1279C16.419 18.1555 16.4494 18.1751 16.4835 18.1835C17.6185 18.4553 18.7805 18.5982 19.9473 18.6096C23.2759 18.6096 25.4012 17.1869 25.4012 14.6567C25.3939 12.0555 23.5603 11.4754 21.6142 11.0434ZM10.8776 5.64873L9.01628 0.845144C8.91809 0.595894 8.74746 0.382021 8.52654 0.231306C8.30562 0.0805916 8.04463 0 7.77747 0C7.5103 0 7.24931 0.0805916 7.02839 0.231306C6.80747 0.382021 6.63684 0.595894 6.53866 0.845144L5.19128 4.30226H5.77249C8.52865 4.30226 10.7416 5.57246 10.8776 5.64873ZM12.8252 10.6437C12.2408 9.16648 11.2278 7.89923 9.91734 7.00606C8.60686 6.11289 7.05927 5.63493 5.47494 5.63406H4.67295L0.0503522 17.5125C0.00527937 17.6349 -0.00984818 17.7663 0.00624158 17.8957C0.0223313 18.0252 0.069168 18.1488 0.142813 18.2563C0.216459 18.3639 0.31476 18.4521 0.429452 18.5135C0.544143 18.575 0.671872 18.608 0.801899 18.6096H3.03168C3.13169 18.6108 3.2297 18.5815 3.31274 18.5256C3.39577 18.4697 3.45991 18.3898 3.49665 18.2965L4.53478 15.6864C4.56078 15.6174 4.60723 15.5581 4.66788 15.5164C4.72854 15.4747 4.80047 15.4526 4.874 15.4532H10.6751C10.7485 15.4528 10.8203 15.4749 10.8808 15.5166C10.9413 15.5583 10.9876 15.6175 11.0136 15.6864L12.0488 18.2965C12.0853 18.3899 12.1492 18.4699 12.2321 18.526C12.3151 18.582 12.413 18.6115 12.513 18.6104H14.7428C14.8725 18.6107 15.0004 18.5795 15.1155 18.5194C15.2306 18.4592 15.3293 18.3719 15.4033 18.265C15.4773 18.1581 15.5243 18.0348 15.5403 17.9056C15.5563 17.7764 15.5408 17.6453 15.4951 17.5235L12.8245 10.6445L12.8252 10.6437ZM9.32479 12.6473H6.22576C6.17148 12.6477 6.11794 12.6347 6.06981 12.6095C6.02167 12.5843 5.98041 12.5477 5.94963 12.5029C5.91884 12.458 5.89946 12.4063 5.89318 12.3522C5.88689 12.2982 5.8939 12.2434 5.91359 12.1926L7.34065 8.59395C7.37489 8.50785 7.43409 8.43403 7.51059 8.38203C7.58709 8.33003 7.67738 8.30223 7.76979 8.30223C7.8622 8.30223 7.95249 8.33003 8.02899 8.38203C8.10549 8.43403 8.16469 8.50785 8.19893 8.59395L9.62673 12.1926C9.64611 12.2426 9.65323 12.2964 9.64746 12.3497C9.6417 12.403 9.62323 12.4541 9.59361 12.4987C9.56399 12.5433 9.5241 12.5801 9.4773 12.606C9.43051 12.6318 9.3782 12.646 9.32479 12.6473ZM33.1126 6.62558C31.5137 6.62558 30.2065 7.39416 29.3548 8.65482V6.66225C29.3548 6.64877 29.3522 6.63542 29.347 6.62296C29.3419 6.6105 29.3344 6.59919 29.3249 6.58965C29.3153 6.58012 29.3041 6.57255 29.2916 6.56739C29.2792 6.56224 29.2659 6.55958 29.2525 6.55958H26.2375C26.2105 6.55977 26.1847 6.57068 26.1656 6.58991C26.1466 6.60914 26.1359 6.63515 26.1359 6.66225V21.8973C26.1359 21.9244 26.1466 21.9504 26.1656 21.9697C26.1847 21.9889 26.2105 21.9998 26.2375 22H29.569C29.5962 22 29.6222 21.9892 29.6414 21.9699C29.6606 21.9507 29.6714 21.9246 29.6714 21.8973V16.7564C30.5545 17.8205 31.7769 18.4578 33.1126 18.4578C36.1151 18.4578 37.9216 15.9475 37.9216 12.2982C37.9216 9.26206 36.2006 6.62558 33.1126 6.62558ZM32.054 15.7451C30.7673 15.7451 29.6977 14.425 29.6977 12.6583C29.6977 10.8469 30.6459 9.5004 32.054 9.5004C33.5519 9.5004 34.3898 10.8967 34.3898 12.4889C34.3941 14.425 33.511 15.7451 32.054 15.7451ZM117.527 11.4629C117.527 8.28007 116.185 6.62998 112.844 6.62998C111.491 6.63878 110.165 7.01867 109.011 7.72858L109.128 9.56127C109.996 8.82643 111.295 8.37101 112.513 8.37101C114.663 8.37101 115.394 9.4036 115.394 11.4182C114.552 11.372 113.951 11.372 113.109 11.372C110.894 11.372 107.693 12.2887 107.693 15.2244C107.693 17.7648 109.453 18.8678 111.966 18.8678C113.929 18.8678 115.069 17.7897 115.574 17.0761H115.619V18.5898H117.632C117.581 18.2459 117.537 17.6276 117.537 16.3017L117.527 11.4629ZM115.376 14.0561C115.376 15.7979 114.256 17.1275 112.133 17.1275C111.148 17.1275 109.966 16.4608 109.966 15.2258C109.966 13.1599 112.841 12.9781 114.007 12.9781C114.466 12.9781 114.92 13.0243 115.379 13.0243L115.376 14.0561ZM104.272 15.041V8.64382H107.354V6.90353H104.272V3.7955L102.123 4.48487V6.90353H99.4899V8.64382H102.118V15.4774C102.118 17.8095 103.49 18.8729 105.706 18.8729C106.391 18.8729 107.052 18.6859 107.531 18.5502V16.7117C107.094 16.9892 106.586 17.131 106.069 17.1194C105.084 17.1223 104.272 16.3934 104.272 15.041ZM121.275 3.67449H119.132V18.5891H121.275V3.67523V3.67449ZM95.3528 6.62925C93.7276 6.62925 92.1784 7.42936 91.538 8.76116H91.4971V6.90427H89.415V18.5869H91.5636V13.1841C91.5636 10.3394 92.658 8.37101 95.1049 8.37101C96.9765 8.48835 97.5723 9.81355 97.5723 12.5417V18.5898H99.7158V11.6448C99.7158 8.50815 98.3699 6.62925 95.3528 6.62925ZM68.9755 3.92751H64.7426V18.6096H68.9755C73.6975 18.6096 76.6182 16.0648 76.6182 11.1388C76.6182 6.61972 73.2289 3.92751 68.9755 3.92751ZM68.9543 16.7571H66.7955V5.77854H69.197C72.1528 5.77854 74.4337 7.79385 74.4337 11.2253C74.4389 15.0073 72.4862 16.7571 68.9543 16.7571ZM83.067 6.62925C79.7779 6.62925 77.603 9.07505 77.603 12.5417C77.603 16.3457 79.4986 18.8678 83.6373 18.8678C85.5549 18.8678 86.6164 18.3573 87.4469 18.053V15.9027C86.9213 16.3376 85.1447 17.1253 83.7279 17.1253C83.2198 17.1276 82.7163 17.0281 82.2471 16.8326C81.7778 16.6371 81.3522 16.3495 80.9952 15.9868C80.6383 15.624 80.3571 15.1934 80.1683 14.7202C79.9795 14.247 79.8868 13.7407 79.8956 13.2311H88.2094C88.2021 9.46887 86.9469 6.62925 83.067 6.62925ZM79.8956 11.6264C80.0565 10.1128 80.925 8.36588 83.0224 8.36588C84.875 8.36588 85.9285 9.83262 85.9285 11.6257L79.8956 11.6264ZM122.283 4.18419C122.147 4.15192 122.012 4.11892 122.012 3.97224C122.012 3.82557 122.126 3.77423 122.271 3.77423C122.416 3.77423 122.522 3.8395 122.527 3.97664H122.67C122.662 3.75883 122.486 3.64663 122.264 3.64663C122.041 3.64663 121.873 3.7581 121.873 3.97958C121.873 4.20032 122.068 4.26559 122.237 4.30666C122.36 4.336 122.54 4.36753 122.54 4.52521C122.54 4.64621 122.433 4.71662 122.292 4.71662C122.254 4.72129 122.215 4.71776 122.178 4.70625C122.142 4.69475 122.108 4.67553 122.079 4.64987C122.05 4.62421 122.027 4.5927 122.011 4.55743C121.995 4.52216 121.987 4.48393 121.987 4.44527H121.839C121.839 4.50235 121.851 4.55884 121.873 4.61108C121.896 4.66332 121.93 4.71016 121.972 4.74858C122.014 4.787 122.064 4.81614 122.118 4.83413C122.172 4.85212 122.229 4.85856 122.286 4.85302C122.497 4.85302 122.692 4.73715 122.692 4.51714C122.692 4.29713 122.455 4.22526 122.283 4.18419ZM123.801 3.67449L123.454 4.59121L123.109 3.67449H122.91V4.81562H123.042V3.87324L123.4 4.81562H123.506L123.863 3.87324V4.81562H124V3.67449H123.801Z" fill="white"/>
</svg>
