<svg width="123" height="18" viewBox="0 0 123 18" fill="none" xmlns="http://www.w3.org/2000/svg">
<g clip-path="url(#clip0_9533_165684)">
<path d="M13.3574 8.49813C13.1411 7.89614 12.8288 7.31823 12.4685 6.81255C12.1081 6.33096 11.6517 5.99385 11.2433 5.60857C11.0992 5.48817 10.979 5.31962 10.907 5.15106C10.8829 5.05474 10.7869 5.03066 10.6908 5.05474C10.6427 5.07882 10.6187 5.1029 10.5947 5.12698C10.4986 5.31962 10.4505 5.53633 10.4025 5.75305C10.3544 5.99385 10.3064 6.21056 10.3304 6.45136V6.54768C10.3544 6.71623 10.1382 6.81255 10.0421 6.66808C9.94603 6.5236 9.87396 6.37912 9.80189 6.21056C9.68177 5.80121 9.7058 5.39186 9.82591 4.9825C9.94603 4.57315 9.97005 4.09156 9.99408 3.6822C10.0181 3.44141 9.99408 3.17653 9.94603 2.93573C9.89798 2.69494 9.82591 2.45414 9.7058 2.21335C9.48959 1.75583 9.17728 1.37056 8.81693 1.03344C8.64877 0.864887 8.45658 0.720409 8.24037 0.575931C7.85599 0.311055 7.51966 0.142498 7.0392 0.0702589C6.9431 0.0702589 6.84701 0.0461795 6.77494 0.118418C7.44759 0.64817 7.56771 1.65951 7.0392 2.33374C6.91908 2.47822 6.79896 2.59862 6.67884 2.7431C6.51068 2.95981 6.41459 3.20061 6.34251 3.46549C6.31849 3.63404 6.07826 3.65812 6.03021 3.48957C5.93412 3.22469 5.93412 2.95981 6.00619 2.69494C6.07826 2.43006 6.27044 2.18927 6.34251 1.92439C6.39056 1.75583 6.41459 1.5632 6.39056 1.39464C6.36654 1.29832 6.29447 1.25016 6.19837 1.25016C6.15033 1.25016 6.1263 1.27424 6.10228 1.29832C5.98216 1.4428 5.86205 1.5632 5.71791 1.70767C5.50169 1.90031 5.23744 2.02071 5.04525 2.21335C4.66087 2.57454 4.42064 3.08021 4.22845 3.58588V3.60996C3.98822 4.47683 4.10834 5.41594 4.18041 5.89753C4.20443 5.99385 4.13236 6.06609 4.03626 6.09017C3.98822 6.09017 3.96419 6.09016 3.91615 6.06608C3.62787 5.87345 3.38763 5.60857 3.17142 5.3437C3.12337 5.27146 3.02728 5.24738 2.95521 5.31962C2.93119 5.31962 2.93119 5.3437 2.90716 5.36778C2.739 5.63265 2.45072 6.04201 2.25853 6.2828C0.769078 8.04061 0.288609 10.4967 1.03334 12.7361C1.46576 13.9883 2.23451 15.0719 3.29154 15.8424C4.22845 16.5407 5.42962 16.7093 6.15033 17.6484C6.24642 17.7688 6.39056 17.9855 6.46263 18.13V15.0237L4.70892 14.4217C4.46869 14.3013 4.32455 14.0605 4.2765 13.7956L3.72396 8.40181C3.72396 8.30549 3.79603 8.20917 3.89212 8.18509H10.5226C10.6187 8.18509 10.6908 8.28141 10.6908 8.37773V8.40181L10.1142 13.7956C10.0902 14.0605 9.92201 14.3013 9.68177 14.4217L7.92806 15.0237V17.239L8.0722 17.1668C8.52865 16.9501 9.00912 16.7815 9.48959 16.5889C10.1382 16.324 10.8349 15.9869 11.3634 15.5535C11.7238 15.2645 12.0601 14.9274 12.3964 14.6144L12.4204 14.5903C13.0691 13.7475 13.4775 12.7602 13.6456 11.7007C13.8138 10.6171 13.7177 9.50947 13.3574 8.49813ZM6.91908 9.58171H7.51966V13.2418H6.91908V9.58171ZM5.23744 9.65395C5.21341 9.67803 5.18939 9.72619 5.18939 9.77435L5.38158 12.7361C5.38158 12.8084 5.42962 12.8806 5.50169 12.9047L5.98216 13.1214L5.74193 9.58171H5.35755C5.28548 9.58171 5.26146 9.60579 5.23744 9.65395ZM9.05716 9.58171H8.67279L8.43255 13.1214L8.91302 12.9047C8.98509 12.8806 9.03314 12.8084 9.03314 12.7361L9.22533 9.77435C9.22533 9.72619 9.22533 9.67803 9.17728 9.65395C9.15326 9.60579 9.10521 9.58171 9.05716 9.58171Z" fill="white"/>
<path d="M26.9588 8.44847C27.7275 7.67792 27.8957 6.78698 27.8957 5.48668C27.8957 3.84926 26.8627 1.17642 22.9469 1.17642H16.5566C16.1242 1.17642 15.8359 1.46538 15.8359 1.89881V16.2984C15.8359 16.8282 15.9801 17.0208 16.5566 17.0208H23.2832C26.9588 17.0208 28.5924 14.2276 28.5924 12.4698C28.5924 10.4952 27.9437 9.43573 26.9588 8.44847ZM23.6436 5.92011C23.6436 6.71474 23.1391 7.41305 22.2742 7.41305H20.1361V4.61981H22.2742C23.1391 4.61981 23.6436 5.1014 23.6436 5.92011ZM22.6826 13.6978H20.1121V10.3508H22.6826C23.5715 10.3508 24.076 11.1454 24.076 12.0123C24.076 12.8791 23.5715 13.6978 22.6826 13.6978ZM41.6611 8.44847C42.4299 7.67792 42.598 6.78698 42.598 5.48668C42.598 3.84926 41.565 1.17642 37.6492 1.17642H31.259C30.8266 1.17642 30.5383 1.46538 30.5383 1.89881V16.2984C30.5383 16.8282 30.6824 17.0208 31.259 17.0208H37.9855C41.6611 17.0208 43.2947 14.2276 43.2947 12.4698C43.2947 10.4952 42.6461 9.43573 41.6611 8.44847ZM38.3459 5.92011C38.3459 6.71474 37.8414 7.41305 36.9766 7.41305H34.8385V4.61981H36.9766C37.8414 4.61981 38.3459 5.1014 38.3459 5.92011ZM37.385 13.6978H34.8145V10.3508H37.385C38.2738 10.3508 38.7783 11.1454 38.7783 12.0123C38.7783 12.8791 38.2738 13.6978 37.385 13.6978ZM61.5525 15.6724L59.3184 17.9118C59.0541 18.1766 58.7658 18.1766 58.5016 17.9118L56.5797 15.9854C55.6908 16.5874 54.0092 16.9967 52.6158 16.9967C48.2916 16.9967 44.8322 13.4089 44.8322 9.07454C44.8322 4.74021 48.2916 1.15234 52.6158 1.15234C57.4205 1.15234 60.6396 4.74021 60.6396 9.07454C60.6396 10.3989 60.1832 12.1086 59.5346 12.9514L61.5525 14.8296C61.7928 15.0704 61.7928 15.4316 61.5525 15.6724ZM56.6998 9.05046C56.6998 6.85921 54.9221 5.07732 52.7359 5.07732C50.5498 5.07732 48.7721 6.83514 48.7721 9.05046C48.7721 11.2658 50.5498 13.0236 52.7359 13.0236C54.9221 13.0236 56.6998 11.2417 56.6998 9.05046ZM75.7984 10.423V15.0704C75.7984 15.3834 75.7504 15.4556 75.5582 15.6724C75.1498 16.1299 72.8436 17.1171 70.7775 17.1171C66.3813 17.1171 62.7537 13.7701 62.7537 9.17086C62.7537 4.61981 66.2852 1.29682 70.7535 1.22458C72.6273 1.22458 74.4291 2.18777 74.8615 2.5008C75.39 2.88608 75.39 3.10279 75.1498 3.46399L73.7324 5.72747C73.4682 6.11275 73.0838 6.11275 72.7715 5.89603C72.3391 5.58299 71.7865 5.14956 70.4412 5.14956C68.3992 5.14956 66.7896 6.78698 66.7896 9.19494C66.7896 11.2417 68.0389 12.9995 70.6334 12.9995C71.8346 12.9995 71.8346 12.855 71.8346 12.855V10.1822C71.8346 9.91733 71.9547 9.70061 72.315 9.70061H75.0777C75.6543 9.70061 75.7984 9.89325 75.7984 10.423ZM91.1734 1.70618V10.6156C91.1734 14.6369 89.1555 16.9967 84.4469 16.9967C80.507 16.9967 77.8404 14.7814 77.8404 11.0972V1.70618C77.8404 1.48946 78.0326 1.22458 78.3209 1.22458H81.6842C81.9244 1.22458 82.1646 1.41722 82.1646 1.70618V10.3989C82.1646 12.1327 83.0295 13.2644 84.4469 13.2644C85.8402 13.2644 86.8492 12.3734 86.8492 10.6397V1.70618C86.8492 1.4413 87.0174 1.22458 87.3297 1.22458H90.693C90.9332 1.22458 91.1734 1.4413 91.1734 1.70618ZM103.257 1.22458H107.077C107.629 1.22458 107.317 1.63394 107.317 1.63394L102.272 10.4952V16.7319C102.272 16.8763 102.176 16.9727 102.032 16.9727H98.2363C98.0922 16.9727 97.9961 16.8763 97.9961 16.7319V10.423L92.9752 1.5617C92.9752 1.5617 92.735 1.2005 93.2154 1.2005H97.0832C97.5877 1.2005 97.7318 1.6821 97.7318 1.6821L100.038 6.81106L102.561 1.6821C102.537 1.70618 102.777 1.22458 103.257 1.22458ZM119.593 11.6992C119.593 14.7814 117.143 16.9727 113.635 16.9727C109.96 16.9727 107.774 14.1313 107.774 14.1313C107.605 13.9627 107.509 13.5774 107.774 13.3126L109.623 11.5788C109.84 11.3621 110.176 11.3139 110.44 11.5788C110.44 11.5788 112.17 13.3366 113.635 13.3366C114.861 13.3366 115.389 12.6624 115.389 12.0604C115.389 11.5066 115.029 11.0009 113.419 10.5193C109.816 9.43573 108.23 7.67792 108.23 5.48668C108.23 2.71752 110.753 1.15234 113.731 1.15234C116.422 1.15234 118.176 2.66936 118.896 3.27135C118.896 3.27135 119.329 3.60847 119.017 3.9215L117.167 5.94419C116.999 6.11275 116.662 6.23314 116.35 5.94419C115.846 5.48668 115.077 4.66797 114.044 4.66797C112.987 4.66797 112.338 4.981 112.338 5.60707C112.338 6.47394 112.963 6.6425 114.957 7.26857C115.894 7.5816 119.593 8.71335 119.593 11.6992ZM121.179 3.31951L120.963 2.78976H120.746V3.31951H120.314V1.75433H121.035C121.443 1.75433 121.587 1.97105 121.587 2.26001C121.587 2.5008 121.491 2.6212 121.347 2.71752L121.611 3.31951H121.179ZM121.155 2.26001C121.155 2.13961 121.059 2.06737 120.963 2.06737H120.722V2.47672H120.963C121.083 2.47672 121.155 2.35632 121.155 2.26001ZM120.914 1.15234C120.122 1.15234 119.473 1.77841 119.473 2.54896C119.473 3.34359 120.122 3.96966 120.914 3.96966C121.731 3.96966 122.356 3.34359 122.356 2.54896C122.356 1.77841 121.731 1.15234 120.914 1.15234Z" fill="white"/>
</g>
<defs>
<clipPath id="clip0_9533_165684">
<rect width="123" height="18" fill="white"/>
</clipPath>
</defs>
</svg>
