<svg width="58" height="30" viewBox="0 0 58 30" fill="none" xmlns="http://www.w3.org/2000/svg">
<g clip-path="url(#clip0_9533_165616)">
<mask id="mask0_9533_165616" style="mask-type:luminance" maskUnits="userSpaceOnUse" x="0" y="0" width="58" height="30">
<path d="M57.0625 0H0.0625V30H57.0625V0Z" fill="white"/>
</mask>
<g mask="url(#mask0_9533_165616)">
<path d="M0.367188 3.34375H3.23337L6.87204 14.2558L10.2884 3.34375H12.9391C12.9391 3.34375 10.1665 10.6189 8.07132 16.8057H5.23632C3.2022 10.6189 0.367188 3.34375 0.367188 3.34375Z" fill="white"/>
<path d="M15.875 3.29688H18.5176C18.5474 9.56075 18.5271 10.6437 18.5379 16.7926L15.875 16.8021V3.29688Z" fill="white"/>
<path d="M21.1484 3.34375H31.8719V5.45829L27.7386 5.37987C27.7386 5.37987 27.5692 10.6189 27.7698 16.8057H25.2464C25.4619 10.6189 25.2776 5.37987 25.2776 5.37987L21.1484 5.45829V3.34375Z" fill="white"/>
<path d="M44.4313 16.8057H41.5638L37.9292 5.89364L34.5087 16.8057H31.8594C31.8594 16.8057 34.6321 9.53055 36.7285 3.34375H39.5636C41.5963 9.53055 44.4313 16.8057 44.4313 16.8057Z" fill="white"/>
<path d="M54.1685 4.24385L53.4909 6.27186C53.4909 6.27186 51.9798 4.59131 50.687 4.59131C49.5162 4.59131 48.4998 5.18079 48.4998 6.39624C48.4998 8.99076 54.9071 8.41614 54.9071 13.3294C54.9071 15.164 52.9814 17.0906 50.435 17.0906C48.016 17.0906 45.8125 15.5061 45.8125 15.5061L46.4901 13.3591C46.4901 13.3591 48.3683 15.3195 50.1246 15.3195C51.5273 15.3195 52.53 14.4164 52.53 13.4267C52.53 10.4739 46.0578 10.9093 46.0578 6.46248C46.0659 4.6481 47.6216 3 50.3808 3C52.3823 3 54.1752 4.24385 54.1752 4.24385" fill="white"/>
<path d="M57.0118 4.26681C57.0169 4.40839 56.9933 4.54953 56.9425 4.68182C56.8917 4.81412 56.8147 4.93484 56.7162 5.03679C56.6176 5.13874 56.4994 5.21982 56.3687 5.27521C56.238 5.33059 56.0974 5.35913 55.9554 5.35913C55.8135 5.35913 55.6729 5.33059 55.5422 5.27521C55.4115 5.21982 55.2933 5.13874 55.1947 5.03679C55.0962 4.93484 55.0192 4.81412 54.9684 4.68182C54.9175 4.54953 54.894 4.40839 54.8991 4.26681C54.9089 3.99384 55.0245 3.7353 55.2215 3.54564C55.4185 3.35598 55.6816 3.25 55.9554 3.25C56.2293 3.25 56.4924 3.35598 56.6894 3.54564C56.8864 3.7353 57.002 3.99384 57.0118 4.26681ZM55.1146 4.26681C55.108 4.3818 55.1251 4.49691 55.1647 4.60509C55.2043 4.71327 55.2657 4.81224 55.345 4.89594C55.4242 4.97966 55.5198 5.04633 55.6258 5.09191C55.7319 5.13749 55.8461 5.16099 55.9615 5.16099C56.077 5.16099 56.1912 5.13749 56.2972 5.09191C56.4033 5.04633 56.4988 4.97966 56.5781 4.89594C56.6574 4.81224 56.7187 4.71327 56.7583 4.60509C56.798 4.49691 56.815 4.3818 56.8085 4.26681C56.8085 4.0427 56.7193 3.82778 56.5605 3.6693C56.4016 3.51083 56.1862 3.42181 55.9615 3.42181C55.7369 3.42181 55.5215 3.51083 55.3626 3.6693C55.2038 3.82778 55.1146 4.0427 55.1146 4.26681ZM56.0226 3.66382C56.2611 3.66382 56.444 3.74223 56.444 4.00587C56.4468 4.04876 56.4407 4.09175 56.4263 4.13223C56.4118 4.17272 56.3893 4.20984 56.36 4.24134C56.3307 4.27284 56.2953 4.29806 56.2559 4.31546C56.2165 4.33286 56.174 4.34207 56.1309 4.34253L56.4738 4.88333H56.2705L55.948 4.3547H55.7393V4.88063H55.5564V3.66382H56.0226ZM55.7434 4.19516H55.9778C56.2041 4.19516 56.2488 4.1208 56.2488 4.00047C56.2488 3.91124 56.2136 3.82065 55.9778 3.82065H55.7352L55.7434 4.19516Z" fill="white"/>
<path d="M6.0429 19.7617V22.7416H9.73308V19.7617H10.7291V26.8828H9.73308V23.5447H6.0429V26.8828H5.04688V19.7617H6.0429Z" fill="white"/>
<path d="M12.9829 24.4825C13.0059 25.7399 13.8543 26.2577 14.8503 26.2577C15.3678 26.272 15.8833 26.1862 16.3681 26.0049L16.5483 26.6606C15.9648 26.8895 15.3416 27.0007 14.7148 26.9878C13.0398 26.9878 12.0234 25.9414 12.0234 24.4096C12.0234 22.8561 13.0073 21.6406 14.5982 21.6406C16.3871 21.6406 16.8506 23.1103 16.8506 24.0499C16.8543 24.1985 16.8429 24.347 16.8167 24.4934L12.9829 24.4825ZM15.8924 23.8201C15.9033 23.2387 15.6309 22.3099 14.5224 22.3099C13.5033 22.3099 13.0737 23.1765 12.9951 23.8201H15.8924Z" fill="white"/>
<path d="M21.9454 25.6559C21.9404 26.0656 21.9672 26.4752 22.0253 26.8808H21.1309L21.0401 26.2373H21.0062C20.7122 26.6429 20.1132 26.9984 19.3313 26.9984C18.2227 26.9984 17.6562 26.2683 17.6562 25.5288C17.6562 24.293 18.8339 23.6171 20.9494 23.6279V23.5211C20.9494 23.0992 20.826 22.3272 19.7052 22.338C19.2002 22.3322 18.703 22.464 18.2674 22.7193L18.0412 22.0961C18.5976 21.799 19.2206 21.6478 19.8516 21.6566C21.5388 21.6566 21.9454 22.7247 21.9454 23.7495V25.6559ZM20.9724 24.2714C19.8882 24.2511 18.6523 24.431 18.6523 25.4233C18.6523 26.0358 19.0819 26.3116 19.5806 26.3116C20.3043 26.3116 20.7691 25.8884 20.9276 25.4558C20.9589 25.3602 20.974 25.2602 20.9724 25.1597V24.2714Z" fill="white"/>
<path d="M24.5351 19.3828H23.5391V26.8851H24.5351V19.3828Z" fill="white"/>
<path d="M27.3876 20.5469V21.7718H28.8146V22.4803H27.3876V25.237C27.3876 25.8724 27.5801 26.2307 28.1343 26.2307C28.3289 26.2386 28.5235 26.2172 28.7116 26.1672L28.7577 26.8756C28.4713 26.9623 28.1734 27.0046 27.8741 27.0014C27.6779 27.0112 27.4817 26.9816 27.2972 26.9146C27.1126 26.8474 26.9434 26.7441 26.7995 26.6107C26.5285 26.3254 26.4146 25.8724 26.4146 25.2695V22.4803H25.5703V21.7718H26.4187V20.8254L27.3876 20.5469Z" fill="white"/>
<path d="M29.9375 19.3828H30.9322V22.5736H30.9566C31.1259 22.2914 31.3735 22.0642 31.6694 21.9192C31.9787 21.7408 32.3299 21.6475 32.6871 21.6488C33.423 21.6488 34.5993 22.072 34.5993 23.8363V26.8784H33.6046V23.9472C33.6046 23.113 33.2753 22.4262 32.3361 22.4262C32.0454 22.4274 31.762 22.517 31.5235 22.6829C31.285 22.8488 31.1029 23.0833 31.0013 23.3551C30.9465 23.4966 30.9229 23.6483 30.9322 23.7998V26.8838H29.9375V19.3828Z" fill="white"/>
<path d="M40.1203 26.7012C39.6213 26.9035 39.0868 27.0041 38.5483 26.9973C36.8963 26.9973 35.8203 25.9522 35.8203 24.3771C35.8203 22.802 36.9749 21.6569 38.7624 21.6569C39.2371 21.6479 39.7084 21.74 40.1446 21.9273L39.917 22.6358C39.5562 22.4665 39.1609 22.3832 38.7624 22.3923C37.5075 22.3923 36.8286 23.2698 36.8286 24.3366C36.8286 25.5195 37.6416 26.2497 38.7257 26.2497C39.1449 26.2542 39.5603 26.1713 39.9454 26.0063L40.1203 26.7012Z" fill="white"/>
<path d="M45.1563 25.6558C45.1516 26.0655 45.1779 26.475 45.2349 26.8807H44.3419L44.2511 26.2372H44.2172C43.9231 26.6428 43.3241 26.9984 42.5421 26.9984C41.4336 26.9984 40.8672 26.2683 40.8672 25.5288C40.8672 24.293 42.0448 23.617 44.1602 23.6278V23.521C44.1602 23.0992 44.0369 22.3272 42.9162 22.338C42.4115 22.332 41.9147 22.4638 41.4797 22.7193L41.252 22.096C41.8086 21.7991 42.4315 21.6479 43.0626 21.6566C44.7497 21.6566 45.1563 22.7247 45.1563 23.7495V25.6558ZM44.1833 24.2714C43.0991 24.2511 41.8632 24.4309 41.8632 25.4233C41.8632 26.0358 42.2929 26.3116 42.7915 26.3116C43.5152 26.3116 43.98 25.8884 44.1386 25.4557C44.1698 25.3602 44.1849 25.2601 44.1833 25.1596V24.2714Z" fill="white"/>
<path d="M46.7713 23.3625C46.7713 22.7609 46.7591 22.2431 46.7266 21.7671H47.5966L47.6427 22.7703H47.6765C47.7849 22.4502 47.9899 22.1713 48.2633 21.9719C48.5366 21.7724 48.8652 21.6622 49.2038 21.6563C49.2952 21.6558 49.3862 21.6668 49.4749 21.6887V22.554C49.361 22.5446 49.2594 22.5337 49.1239 22.5337C48.4219 22.5337 47.9245 23.0299 47.7877 23.7167C47.7649 23.8634 47.7535 24.0117 47.7538 24.1602V26.8859H46.7578L46.7713 23.3625Z" fill="white"/>
<path d="M50.9622 24.4825C50.9838 25.7399 51.8322 26.2577 52.8296 26.2577C53.3463 26.2721 53.8608 26.1862 54.3447 26.0049L54.5262 26.6606C53.9428 26.8897 53.3196 27.001 52.6927 26.9878C51.0177 26.9878 50 25.9414 50 24.4096C50 22.8561 50.9838 21.6406 52.5748 21.6406C54.3636 21.6406 54.8271 23.1103 54.8271 24.0499C54.8301 24.1985 54.8188 24.347 54.7932 24.4934L50.9622 24.4825ZM53.8704 23.8201C53.8812 23.2387 53.6101 22.3099 52.5003 22.3099C51.4825 22.3099 51.0529 23.1765 50.973 23.8201H53.8704Z" fill="white"/>
</g>
</g>
<defs>
<clipPath id="clip0_9533_165616">
<rect width="57.6" height="30" fill="white"/>
</clipPath>
</defs>
</svg>
