<svg width="104" height="32" viewBox="0 0 104 32" fill="none" xmlns="http://www.w3.org/2000/svg">
<g clip-path="url(#clip0_9533_165651)">
<mask id="mask0_9533_165651" style="mask-type:luminance" maskUnits="userSpaceOnUse" x="0" y="0" width="104" height="32">
<path d="M0 0H103.592V32H0V0Z" fill="white"/>
</mask>
<g mask="url(#mask0_9533_165651)">
<path d="M40.3664 8.30451C40.6721 8.24647 40.9822 8.21456 41.2934 8.20915V1.92883C40.9531 1.92883 40.5294 1.87123 40.3664 1.83411V1.16467H43.2707V1.83411C42.9718 1.89155 42.6685 1.92324 42.3642 1.92883V4.48499H46.4793V1.92883C46.1377 1.92883 45.7256 1.87123 45.5612 1.83411V1.16467H48.4662V1.83411C48.1639 1.89204 47.8572 1.92373 47.5494 1.92883V8.21299C47.8897 8.21299 48.3025 8.27059 48.4765 8.30771V8.97715H45.5619V8.30771C45.8641 8.24978 46.1709 8.21809 46.4786 8.21299V5.29331H42.3636V8.21299C42.6948 8.21299 43.1038 8.27059 43.2707 8.30771V8.97715H40.3664V8.30451ZM49.3489 5.09299C49.3489 2.94899 50.7606 1.02515 53.2181 1.02515C55.6762 1.02515 57.111 2.88755 57.111 5.03539C57.111 7.18323 55.7 9.11347 53.2418 9.11347C50.7844 9.11347 49.3489 7.25107 49.3489 5.09299ZM55.9933 5.08275C55.9933 3.33555 55.0182 1.86099 53.2418 1.86099C51.4661 1.86099 50.4672 3.31571 50.4672 5.06227C50.4672 6.80947 51.4424 8.28787 53.2181 8.28787C54.9944 8.28787 55.9933 6.82227 55.9933 5.08595V5.08275ZM57.6907 8.30451C57.8442 8.27059 58.185 8.22323 58.5125 8.20915L59.4054 1.90195C59.0748 1.90195 58.6518 1.84435 58.4983 1.80659V1.16083H60.5578L62.3919 6.33011C62.6166 6.97587 62.7322 7.33939 62.8721 7.79443H62.8965C63.0121 7.34963 63.1552 6.96243 63.3767 6.33011L65.2108 1.16083H67.2459V1.80723C66.9436 1.86517 66.6369 1.89686 66.3291 1.90195L67.2119 8.20915C67.5425 8.21939 67.9071 8.26675 68.0573 8.30451V8.97395H65.2243V8.30451C65.3777 8.27059 65.8111 8.22323 66.1417 8.20915L65.5992 4.06003C65.5414 3.66195 65.4837 3.17939 65.4599 2.88755H65.4362C65.354 3.16915 65.2487 3.57747 65.0709 4.07027L63.3189 8.97075H62.2828L60.4724 4.02611C60.3394 3.65012 60.2178 3.27022 60.1078 2.88691H60.084C60.0603 3.17939 60.0121 3.51923 59.9543 4.03635L59.4363 8.20915C59.7669 8.21939 60.213 8.26675 60.3633 8.30451V8.97395H57.6837V8.30451H57.6907ZM68.7083 8.30451C69.0142 8.24647 69.3246 8.21456 69.636 8.20915V1.92883C69.2951 1.92883 68.872 1.87123 68.7083 1.83411V1.16467H74.4938V3.11155H73.6586C73.6239 2.94835 73.5629 2.36083 73.5629 1.97299H70.6926V4.60019H72.4549C72.4786 4.29427 72.5126 3.93075 72.5505 3.79123H73.2663V6.17011H72.5505C72.5165 6.04147 72.4786 5.69139 72.4549 5.37139H70.6926V8.16179H73.6445C73.6445 7.77459 73.7029 7.17619 73.7401 7.02643H74.5753V8.97075H68.7083V8.30131V8.30451ZM40.3664 19.7471C40.6721 19.6892 40.9822 19.6576 41.2934 19.6523V13.3682C40.9531 13.3682 40.5294 13.3106 40.3664 13.2728V12.6034H46.0222V14.5746H45.2005C45.1523 14.4357 45.1048 13.813 45.0945 13.4123H42.3674V16.2264H44.2015C44.2253 15.8968 44.2593 15.557 44.2972 15.4309H45.013V17.8098H44.2972C44.2632 17.6709 44.2253 17.3311 44.2009 17.0015H42.3674V19.6485C42.7083 19.6485 43.2366 19.7061 43.4138 19.7439V20.4133H40.3696V19.7439L40.3664 19.7471ZM46.833 19.7471C47.1389 19.6892 47.4493 19.6575 47.7607 19.6523V13.3682C47.4198 13.3682 46.9967 13.3106 46.833 13.2728V12.6034H49.9967C51.6773 12.6034 52.666 13.3311 52.666 14.6802C52.666 15.9205 51.773 16.6239 50.586 16.7192V16.7429C50.7741 16.8619 51.0565 17.1538 51.4559 17.7624L52.3623 19.1115C52.6454 19.5467 52.9048 19.7579 53.419 19.7579C53.4768 19.7579 53.5384 19.7579 53.5968 19.7439V20.4133C53.4428 20.4709 53.1975 20.5087 52.9247 20.5087C52.2911 20.5087 51.9361 20.3455 51.5477 19.7471L50.5488 18.2008C49.7617 16.9573 49.5364 16.8652 49.0215 16.8652H48.834V19.6556C49.1749 19.6556 49.564 19.7132 49.7277 19.7509V20.4203H46.8368V19.7509L46.833 19.7471ZM49.9594 16.1144C51.0636 16.1144 51.5714 15.6216 51.5714 14.7551C51.5714 13.8885 51.0296 13.4059 49.8907 13.4059H48.834V16.1144H49.9626H49.9594ZM53.7606 19.7471C53.8896 19.7234 54.1971 19.676 54.4764 19.6658L57.2035 12.6104H58.2024L60.8711 19.6556C61.1779 19.6658 61.4816 19.7266 61.6247 19.7503V20.4197H58.9798V19.7503C59.232 19.7026 59.4869 19.6709 59.7431 19.6556L59.2148 18.1567H56.0408L55.4753 19.6556C55.7918 19.6658 56.1089 19.7266 56.2521 19.7503V20.4197H53.7606V19.7471ZM58.9349 17.358L58.1375 15.132C57.9019 14.476 57.7864 14.0991 57.6567 13.7624H57.6329C57.5174 14.1259 57.3736 14.524 57.1521 15.132L56.3406 17.358H58.9387H58.9349ZM62.1942 19.7471C62.4999 19.6892 62.81 19.6576 63.1212 19.6523V13.3682C62.7809 13.3682 62.3572 13.3106 62.1942 13.2728V12.6034H64.1336L67.6959 17.6914C68.0368 18.1842 68.3777 18.677 68.4496 18.8293H68.4733C68.4631 18.677 68.4393 18.3506 68.4393 17.7759V13.3682C68.0984 13.3682 67.6856 13.3106 67.5123 13.2728V12.6034H70.2869V13.2728C69.9847 13.3312 69.678 13.3633 69.3702 13.3688V20.4133H68.4425L64.6927 15.0674C64.3859 14.6322 64.0931 14.1535 64.0347 14.0376H64.011C64.0347 14.1669 64.0585 14.5983 64.0585 14.9176V19.6523C64.3994 19.6523 64.8122 19.7099 64.9861 19.7471V20.4165H62.2006V19.7471H62.1942ZM71.2242 16.5733C71.2242 14.2994 72.8234 12.4709 75.2674 12.4709C76.2798 12.4709 77.0777 12.6719 77.6536 13.0456V14.8261H76.8184C76.7844 14.6629 76.7227 14.0171 76.7227 13.596C76.3003 13.4092 75.772 13.3035 75.2398 13.3035C73.4641 13.3035 72.3355 14.629 72.3355 16.4914C72.3355 18.3538 73.43 19.7266 75.2982 19.7266C75.8843 19.7266 76.4602 19.5736 76.9102 19.3528C76.9102 18.9176 76.9686 18.1803 77.0058 18.0037H77.841V19.7746C77.4186 20.1483 76.3003 20.5592 75.1955 20.5592C72.6802 20.5592 71.221 18.7653 71.221 16.5733H71.2242ZM78.9048 19.7471C79.2105 19.6892 79.5207 19.6575 79.8318 19.6523V13.3682C79.4909 13.3682 79.0685 13.3106 78.9048 13.2728V12.6034H81.8091V13.2728C81.5103 13.3307 81.207 13.3628 80.9026 13.3688V15.9237H85.017V13.3682C84.6762 13.3682 84.2634 13.3106 84.0997 13.2728V12.6034H87.0046V13.2728C86.7022 13.3312 86.3952 13.3633 86.0872 13.3688V19.6523C86.4281 19.6523 86.8409 19.7099 87.0149 19.7471V20.4165H84.0997V19.7471C84.4021 19.6891 84.7091 19.6574 85.017 19.6523V16.7327H80.9026V19.6523C81.2332 19.6523 81.6422 19.7099 81.8091 19.7471V20.4165H78.9048V19.7471ZM87.9143 19.7471C88.2202 19.6892 88.5306 19.6576 88.8419 19.6523V13.3682C88.5011 13.3682 88.078 13.3106 87.9143 13.2728V12.6034H90.8295V13.2728C90.5271 13.3312 90.2201 13.3633 89.9121 13.3688V19.6523C90.253 19.6523 90.6658 19.7099 90.8398 19.7471V20.4165H87.9111V19.7471H87.9143ZM91.8419 19.9576V18.1637H92.663C92.697 18.3403 92.7586 19.1013 92.7586 19.4885C93.0655 19.6178 93.5123 19.7336 94.1459 19.7336C95.0871 19.7336 95.6867 19.1013 95.6867 18.4453C95.6867 17.5314 94.7937 17.1679 93.9007 16.7563C92.9121 16.3211 91.9709 15.8085 91.9709 14.4933C91.9709 13.1781 93.052 12.4645 94.3713 12.4645C95.5474 12.4645 96.2632 12.7941 96.536 12.9912V14.796H95.7008C95.6668 14.6187 95.6186 13.8917 95.6186 13.4943C95.2163 13.3449 94.7903 13.2688 94.361 13.2696C93.563 13.2696 93.0077 13.7624 93.0077 14.4319C93.0077 15.1935 93.6792 15.5327 94.4528 15.8866C95.5236 16.3653 96.7472 16.8722 96.7472 18.3845C96.7472 19.6517 95.7008 20.5528 94.1357 20.5528C92.9358 20.5528 92.1385 20.2232 91.8419 19.9544V19.9576ZM97.7224 19.7471C98.0281 19.6892 98.3382 19.6575 98.6494 19.6523V13.3682C98.3085 13.3682 97.8854 13.3106 97.7224 13.2728V12.6034H103.507V14.5509H102.672C102.638 14.3877 102.576 13.7995 102.576 13.4123H99.7061V16.0395H101.468C101.493 15.7336 101.527 15.3701 101.564 15.2306H102.28V17.6095H101.564C101.53 17.4802 101.493 17.1301 101.468 16.8107H99.7061V19.6011H102.659C102.659 19.2133 102.716 18.6155 102.754 18.4658H103.589V20.4101H97.7224V19.74V19.7471ZM40.4351 28.012C40.4351 25.7388 42.0336 23.9103 44.4776 23.9103C45.49 23.9103 46.288 24.1106 46.8638 24.485V26.2655H46.0292C45.9946 26.1023 45.9329 25.4565 45.9329 25.0354C45.5105 24.8485 44.9828 24.7429 44.45 24.7429C42.6743 24.7429 41.5463 26.0684 41.5463 27.9301C41.5463 29.7925 42.6403 31.166 44.5084 31.166C45.0945 31.166 45.6704 31.013 46.1172 30.7922C46.1172 30.357 46.175 29.6197 46.2128 29.4431H47.0481V31.2139C46.625 31.5877 45.5073 31.9986 44.4031 31.9986C41.8866 31.9986 40.428 30.204 40.428 28.012H40.4344H40.4351ZM48.1863 27.9781C48.1863 25.8341 49.598 23.9103 52.0555 23.9103C54.5136 23.9103 55.949 25.7727 55.949 27.9205C55.949 30.0683 54.5373 31.9986 52.0799 31.9986C49.6217 31.9986 48.1863 30.1362 48.1863 27.9781ZM54.8275 27.9679C54.8275 26.2207 53.8517 24.7461 52.076 24.7461C50.3003 24.7461 49.3014 26.2008 49.3014 27.9474C49.3014 29.6946 50.2766 31.173 52.0523 31.173C53.8286 31.173 54.8275 29.708 54.8275 27.9717V27.9679ZM56.8183 31.1896C57.124 31.1318 57.4341 31.1001 57.7453 31.0949V24.8108C57.405 24.8108 56.9813 24.7531 56.8183 24.716V24.046H58.7577L62.3206 29.1339C62.6609 29.6267 63.0018 30.1196 63.0737 30.2725H63.0974C63.0872 30.1189 63.0634 29.7925 63.0634 29.2191V24.8108C62.7225 24.8108 62.3097 24.7531 62.1358 24.716V24.046H64.911V24.716C64.6088 24.774 64.302 24.8057 63.9943 24.8108V31.8559H63.0666L59.3175 26.51C59.01 26.0748 58.7166 25.596 58.6588 25.477H58.6351C58.6588 25.6063 58.6826 26.0408 58.6826 26.357V31.0911C59.0235 31.0911 59.4363 31.1487 59.6102 31.1864V31.8559H56.8247V31.1864L56.8183 31.1896ZM65.8515 28.012C65.8515 25.7388 67.4507 23.9103 69.8947 23.9103C70.9071 23.9103 71.705 24.1106 72.2809 24.485V26.2655H71.4457C71.4117 26.1023 71.3507 25.4565 71.3507 25.0354C70.9276 24.8485 70.3993 24.7429 69.8677 24.7429C68.0914 24.7429 66.9634 26.0684 66.9634 27.9301C66.9634 29.7925 68.0573 31.166 69.9255 31.166C70.5116 31.166 71.0881 31.013 71.5381 30.7922C71.5381 30.357 71.5959 29.6197 71.6331 29.4431H72.4684V31.2139C72.0459 31.5877 70.9276 31.9986 69.8234 31.9986C67.3075 31.9986 65.8483 30.204 65.8483 28.012H65.8515ZM73.5321 31.1896C73.8381 31.1318 74.1484 31.1001 74.4598 31.0949V24.8108C74.1182 24.8108 73.6958 24.7531 73.5321 24.716V24.046H79.3169V25.9935H78.4817C78.4477 25.8303 78.3867 25.2428 78.3867 24.8549H75.5164V27.4821H77.2787C77.3024 27.1762 77.3364 26.8127 77.3743 26.6732H78.0901V29.052H77.3743C77.3403 28.9228 77.3024 28.5733 77.2787 28.2533H75.5164V31.0437H78.4683C78.4683 30.6565 78.526 30.0581 78.5639 29.9084H79.3991V31.8527H73.5321V31.1832V31.1896ZM80.3537 31.1896C80.6595 31.1318 80.9696 31.1001 81.2807 31.0949V24.8108C80.9399 24.8108 80.5174 24.7531 80.3537 24.716V24.046H83.3633C84.9862 24.046 86.1623 24.7736 86.1623 26.3096C86.1623 27.8456 85.0684 28.7602 83.224 28.7602H82.3548V31.0911C82.6957 31.0911 83.2137 31.1487 83.3774 31.1864V31.8559H80.3569V31.1864L80.3537 31.1896ZM82.3509 27.9448H83.2202C84.5259 27.9448 85.0684 27.4175 85.0684 26.3743C85.0684 25.47 84.5741 24.8619 83.258 24.8619H82.3509V27.9448ZM88.7835 31.1896C89.0896 31.1326 89.3999 31.1009 89.7112 31.0949V24.8588H87.843C87.843 25.2556 87.7852 25.9832 87.7474 26.1362H86.9122V24.0498H93.5669V26.1362H92.7451C92.7111 25.9832 92.6495 25.2562 92.6392 24.8588H90.7813V31.0949C91.1222 31.0949 91.5453 31.1525 91.709 31.1896V31.8597H88.7803V31.1896H88.7835ZM94.4907 31.4008V29.6063H95.3118C95.3458 29.7829 95.4074 30.5439 95.4074 30.9311C95.7143 31.061 96.1611 31.1762 96.7947 31.1762C97.7359 31.1762 98.3355 30.5439 98.3355 29.8879C98.3355 28.974 97.4425 28.6104 96.5495 28.1989C95.5609 27.7637 94.6197 27.2511 94.6197 25.9359C94.6197 24.6207 95.7008 23.9071 97.0201 23.9071C98.1962 23.9071 98.912 24.2367 99.1848 24.4338V26.2386H98.3496C98.3156 26.0613 98.2674 25.3343 98.2674 24.9368C97.8651 24.7876 97.4391 24.7117 97.0098 24.7128C96.2118 24.7128 95.6565 25.2056 95.6565 25.8744C95.6565 26.636 96.328 26.9752 97.1016 27.3291C98.1724 27.8085 99.396 28.3148 99.396 29.8271C99.396 31.0943 98.3496 31.9954 96.7845 31.9954C95.5846 31.9954 94.7873 31.6658 94.4907 31.397V31.4002V31.4008ZM23.1171 1.47379L22.7082 1.06547C22.023 0.383218 21.0943 0 20.1259 0C19.1575 0 18.2287 0.383218 17.5435 1.06547L1.22836 17.3311C1.05834 17.4995 0.90624 17.685 0.774479 17.8847C0.774479 17.8847 0.70001 17.98 0.601146 18.1733C0.447071 18.4555 0.337936 18.7551 0.263467 19.0604C0.0927011 19.6722 -0.0401878 20.5324 0.0111702 21.6844V27.7304C0.0116806 28.7721 0.426997 29.771 1.16586 30.5076C1.90473 31.2442 2.9067 31.6582 3.95161 31.6588C4.99686 31.6586 5.99926 31.2446 6.73842 30.5078C7.47758 29.7711 7.893 28.7718 7.89334 27.7298V21.7996L23.121 6.61875C23.8054 5.9357 24.1898 5.00977 24.1898 4.04435C24.1898 3.07894 23.8054 2.153 23.121 1.46995L23.1171 1.47379ZM17.3285 26.126H15.3993C15.0244 26.126 14.7207 26.4287 14.7207 26.8024V31.0405C14.7207 31.4136 15.0244 31.7163 15.3993 31.7163H17.3285C17.7034 31.7163 18.007 31.4136 18.007 31.0405V26.8018C18.007 26.428 17.7034 26.126 17.3285 26.126Z" fill="white"/>
<path d="M32.3446 19.2818C32.2182 18.5426 31.8644 17.8609 31.3322 17.3311L15.0171 1.06547C14.3319 0.383218 13.4031 0 12.4347 0C11.4663 0 10.5375 0.383218 9.85238 1.06547L9.44344 1.47379C8.75928 2.15681 8.375 3.08261 8.375 4.04787C8.375 5.01313 8.75928 5.93893 9.44344 6.62195L24.6711 21.8028V27.7336C24.6716 28.7754 25.087 29.7744 25.826 30.511C26.565 31.2476 27.5672 31.6616 28.6122 31.6619C29.6571 31.6614 30.6591 31.2474 31.3979 30.5108C32.1368 29.7742 32.5521 28.7753 32.5526 27.7336V21.2018C32.5526 20.974 32.5424 20.7634 32.5289 20.5592C32.5029 20.1301 32.4413 19.7039 32.3446 19.285V19.2818Z" fill="white"/>
<path d="M16.2093 2.26953L10.5156 7.94569L16.2099 13.6219L21.903 7.94505L16.2093 2.26953Z" fill="white"/>
<path d="M100.188 24.882C100.188 24.7431 100.215 24.6138 100.266 24.4948C100.32 24.3732 100.392 24.267 100.48 24.1786C100.572 24.0881 100.679 24.0155 100.797 23.9649C100.92 23.9117 101.052 23.8851 101.186 23.8868C101.317 23.8864 101.447 23.912 101.568 23.9621C101.69 24.0122 101.8 24.0858 101.892 24.1786C101.984 24.2708 102.055 24.3758 102.106 24.4948C102.161 24.617 102.185 24.7463 102.185 24.8826C102.185 25.0134 102.16 25.143 102.11 25.2638C102.059 25.3845 101.985 25.4941 101.892 25.586C101.801 25.6768 101.693 25.7493 101.575 25.7998C101.452 25.853 101.32 25.8796 101.186 25.8778C101.055 25.8782 100.925 25.8526 100.804 25.8025C100.683 25.7524 100.573 25.6788 100.48 25.586C100.389 25.4951 100.317 25.3878 100.266 25.2698C100.213 25.1478 100.186 25.0151 100.188 24.882ZM100.365 24.882C100.365 25.0175 100.399 25.1508 100.464 25.27C100.528 25.3893 100.621 25.4909 100.734 25.5658C100.848 25.6408 100.978 25.6867 101.113 25.6996C101.248 25.7125 101.385 25.6919 101.51 25.6398C101.708 25.5558 101.865 25.399 101.95 25.202C101.994 25.1034 102.015 24.9946 102.015 24.882C102.015 24.77 101.994 24.6612 101.95 24.5626C101.907 24.4653 101.847 24.3765 101.773 24.3009C101.697 24.2265 101.608 24.1666 101.51 24.1242C101.409 24.0806 101.3 24.0588 101.19 24.0602C101.077 24.0602 100.968 24.0801 100.869 24.1242C100.77 24.169 100.682 24.2266 100.607 24.3009C100.532 24.3767 100.472 24.4657 100.43 24.5633C100.385 24.665 100.365 24.7694 100.365 24.882ZM100.805 24.3047H101.247C101.387 24.3047 101.49 24.3354 101.554 24.393C101.619 24.4506 101.653 24.5358 101.653 24.6478C101.653 24.7502 101.626 24.8244 101.575 24.8756C101.522 24.9261 101.453 24.9573 101.38 24.9639L101.677 25.4503H101.455L101.169 24.9812H101.016V25.4497H100.805V24.3047ZM101.016 24.8007H101.169C101.2 24.8007 101.234 24.8007 101.268 24.7975C101.299 24.7959 101.329 24.789 101.357 24.777C101.382 24.7671 101.404 24.7508 101.421 24.7297C101.438 24.7092 101.445 24.6785 101.445 24.6414C101.445 24.6036 101.438 24.5729 101.421 24.5524C101.404 24.5313 101.382 24.515 101.357 24.505C101.328 24.4943 101.298 24.4874 101.268 24.4846H101.016V24.8046V24.8007Z" fill="white"/>
</g>
</g>
<defs>
<clipPath id="clip0_9533_165651">
<rect width="104" height="32" fill="white"/>
</clipPath>
</defs>
</svg>
