<svg width="131" height="32" viewBox="0 0 131 32" fill="none" xmlns="http://www.w3.org/2000/svg">
<path d="M11.5931 7.7397C11.353 7.7397 11.091 7.69588 10.8727 7.63016C10.0432 7.32343 9.43197 6.60043 9.21367 5.74598C8.97355 4.8258 8.99538 3.8399 9.32282 2.91972C9.6066 1.99955 10.1742 1.18891 10.9382 0.59737C11.6149 0.0496449 12.5317 -0.147539 13.3831 0.115369C14.2126 0.422095 14.8238 1.12318 15.0421 1.99954C15.2823 2.94163 15.2386 3.90562 14.933 4.8258C14.6492 5.74598 14.0816 6.55661 13.3176 7.14815C12.8155 7.4987 12.2043 7.71779 11.5931 7.7397ZM29.2531 12.8007C28.0306 12.8007 26.8955 11.6176 26.5899 9.9525C26.2624 8.13406 27.092 6.51279 28.4454 6.2718C29.1876 6.16225 29.908 6.42516 30.41 6.97289C30.9558 7.56443 31.3269 8.28742 31.4578 9.09805C31.6107 9.88678 31.5233 10.6974 31.1959 11.4423C30.9121 12.1215 30.3227 12.6254 29.6023 12.8007C29.4932 12.8007 29.3841 12.8007 29.2531 12.8007ZM21.7001 28.86C22.093 28.8819 22.4423 28.7066 22.6824 28.3999C22.988 28.0274 22.6824 27.7426 22.486 27.4797C21.1544 25.486 20.0411 23.3827 19.1461 21.1699C18.4039 19.5048 17.6617 17.8397 16.8758 16.1747C16.6138 15.5174 16.1554 14.9697 15.566 14.5753C15.2386 14.3781 14.9111 14.159 14.5182 14.4438C14.1253 14.7506 14.3654 15.1011 14.4746 15.4078C15.2604 17.9493 16.1554 20.4469 17.1814 22.9226C17.7271 24.4124 18.4475 25.8584 19.2989 27.1949C19.8228 28.0493 20.6959 28.6628 21.7001 28.86ZM31.6107 21.0384C31.6325 19.8992 31.4797 18.7599 31.1741 17.6426C31.0867 17.3139 30.9558 16.9415 30.5847 16.8538C30.2136 16.7662 29.9734 17.0948 29.777 17.3797C29.2531 18.0807 28.882 18.8695 28.6419 19.702C27.856 22.2434 27.092 24.7849 26.3061 27.3263C25.9568 28.4656 26.3061 28.9914 27.4631 29.101C28.7728 29.2105 29.7115 28.619 30.3664 27.0634C31.1741 25.1792 31.6107 23.1198 31.6107 21.0384ZM2.27192 25.9022C2.27192 26.209 2.27192 26.5157 2.27192 26.8224C2.27192 27.0634 2.31558 27.3263 2.40289 27.5454C2.57753 27.8741 2.90497 28.0712 3.27607 28.0931C4.01827 28.1589 4.43303 27.5016 4.84779 26.9101C5.37169 26.0994 5.80828 25.2012 6.11389 24.281C7.46732 20.7317 8.66794 17.0948 10.829 13.918C11.0037 13.6551 11.0255 13.3265 10.8945 13.0417C10.3488 11.4861 9.06087 11.1356 7.83842 12.2749C6.89975 13.2608 6.13572 14.4219 5.56816 15.6488C4.62949 17.4016 3.86546 19.2638 3.2979 21.1699C2.77399 22.7035 2.42472 24.3029 2.29375 25.9242M12.4226 16.3061C11.3311 17.8836 10.4361 19.6144 9.80307 21.4328C8.84257 23.9962 8.16586 26.6472 6.74695 29.0352C6.17938 30.2402 5.13157 31.1604 3.86546 31.5767C1.90082 32.1025 0.547392 31.1823 0.154463 29.2105C-0.151149 27.1072 0.00165671 24.9821 0.569222 22.9226C1.5952 18.4094 3.14509 14.0714 6.07024 10.4126C8.18769 7.7397 11.091 7.95879 12.7282 10.9603C12.9683 11.6833 13.7105 12.0996 14.4527 11.9462C16.2427 11.749 17.5307 12.7569 18.513 14.159C19.7573 15.9337 20.3903 18.015 21.3072 19.943C22.1367 21.6519 22.8352 23.4265 23.7957 25.0916C23.9049 25.2888 23.9704 25.5955 24.2541 25.5955C24.5379 25.5736 24.5598 25.245 24.6252 25.0259C25.04 23.4923 25.4548 21.9586 25.8259 20.425C26.197 18.6942 26.8518 17.0291 27.7905 15.5393C28.3362 14.4877 29.4277 13.8523 30.5847 13.8961C32.0254 13.9838 32.7894 14.9258 33.2479 16.1747C34.3175 19.0447 34.0992 21.9586 33.488 24.8725C33.0732 26.8443 32.2001 28.6847 30.9339 30.2621C29.3404 32.2339 27.4631 32.5407 25.3893 31.1166C24.9745 30.7003 24.3196 30.7003 23.9049 31.0947C23.9049 31.0947 23.9049 31.0947 23.883 31.1166C22.0712 32.5407 19.9974 32.1682 18.4257 30.2402C16.2427 27.5235 15.0421 24.3248 13.9288 21.0384C13.4267 19.5705 13.012 18.0807 12.4881 16.3718M130.935 31.8177V23.2732H129.537V26.7567H127.114V23.2732H125.674V31.8177H127.093V28.0274H129.516V31.8177H130.935ZM123.054 31.8177V24.5877H124.8V23.2732H119.889V24.5877H121.635V31.8177H123.054ZM120.216 31.8177V30.5031H117.357V23.2732H115.938V31.8177H120.216ZM112.096 24.6315H112.139L112.903 28.356H111.354L112.096 24.6315ZM115.043 31.8177L113.078 23.2732H111.201L109.236 31.8177H110.655L111.092 29.6268H113.144L113.58 31.8177H115.043ZM108.821 31.8177V30.5031H105.722V28.0274H107.926V26.7786H105.722V24.5439H108.669V23.2293H104.324V31.7739L108.821 31.8177ZM102.796 31.8177V23.2732H101.399V26.7567H98.9762V23.2732H97.5573V31.8177H98.9762V28.0274H101.399V31.8177H102.796ZM94.0864 25.2888C93.8463 23.9743 93.1914 23.1636 91.707 23.1636C90.5719 23.0322 89.5678 23.8647 89.4368 25.004C89.415 25.1135 89.415 25.2231 89.4368 25.3326C89.4368 28.0712 92.8858 27.8521 92.8858 29.7363C92.9077 30.284 92.4929 30.7441 91.969 30.766C91.9253 30.766 91.8598 30.766 91.8162 30.766C91.0522 30.766 90.7247 30.3279 90.5719 29.4515L89.2621 29.6925C89.5241 31.2261 90.2445 31.971 91.7725 31.971C93.3006 31.971 94.2611 31.1385 94.2611 29.6487C94.2611 26.8443 90.7684 27.0634 90.7684 25.2669C90.7466 24.7849 91.1176 24.3905 91.5761 24.3686C91.6197 24.3686 91.6634 24.3686 91.7289 24.3686C92.3838 24.3686 92.7112 24.8287 92.8858 25.5517L94.0864 25.2888ZM87.5813 26.6033L88.3671 24.8287V23.2732H86.9264V24.8725H87.4503L86.7954 26.5814L87.5813 26.6033ZM85.5075 31.8615V23.317H84.2196V28.5094L81.8838 23.317H80.2684V31.8615H81.5127V25.9461L84.2414 31.8615H85.5075ZM79.1988 31.8615V30.5469H76.099V28.0055H78.3038V26.7567H76.099V24.522H79.046V23.2074H74.7019V31.7519L79.1988 31.8615ZM69.8558 27.1292V24.4782H70.6417C71.2965 24.4782 71.9514 24.5439 71.9514 25.7489C72.0387 26.3842 71.6021 26.9758 70.9909 27.0634C70.8818 27.0853 70.7726 27.0853 70.6417 27.0634L69.8558 27.1292ZM73.6978 31.8615L72.2134 27.7645C73.0211 27.3921 73.5013 26.5595 73.414 25.6832C73.414 24.0181 72.5408 23.317 70.7071 23.317H68.4587V31.8615H69.8776V28.2903H70.9691L72.1915 31.8177L73.6978 31.8615ZM63.3506 30.5469V24.6315H64.0055C65.2498 24.6315 65.8828 25.3545 65.8828 27.5235C65.8828 29.6925 65.3153 30.5689 63.9837 30.5689L63.3506 30.5469ZM63.8527 31.8615C66.3631 31.8615 67.3018 30.306 67.3018 27.5016C67.3018 24.5001 66.2321 23.317 63.8745 23.317H61.9099V31.8615H63.8527ZM61.0804 31.8615V30.5469H58.2207V23.317H56.8018V31.8615H61.0804ZM53.8985 31.8615H55.3174V23.317H53.8985V31.8615ZM52.3923 31.8615V23.317H50.9733V26.8005H48.5721V23.2513H47.175V31.7958H48.5939V28.0055H50.9952V31.7958L52.3923 31.8615ZM44.7738 28.8819C44.5992 30.043 44.2062 30.6565 43.5295 30.6565C42.6127 30.6565 42.2198 29.8459 42.2198 27.4797C42.2198 25.3107 42.6782 24.3905 43.5295 24.3905C44.1844 24.3905 44.5337 24.9163 44.7083 26.0118L46.0181 25.9022C45.7998 24.1495 45.1449 23.1417 43.5077 23.1417C41.4994 23.1417 40.779 25.0259 40.779 27.5016C40.779 30.2621 41.4339 31.9272 43.4859 31.9272C45.0357 31.9272 45.8434 30.9413 46.1054 29.0352L44.7738 28.8819ZM41.1938 7.7397C41.1938 7.0167 41.7832 6.42516 42.5035 6.42516H42.7873C43.3549 6.42516 43.8788 6.73188 44.1844 7.21388L49.3361 14.0276V7.67397C49.3361 6.95097 49.9255 6.35943 50.6459 6.35943C51.3663 6.35943 51.9557 6.95097 51.9557 7.67397V17.4016C51.9775 18.1246 51.4099 18.738 50.6677 18.7599C50.6459 18.7599 50.6459 18.7599 50.6241 18.7599H50.5586C49.991 18.7599 49.4671 18.4532 49.1615 17.9712L43.8133 10.9165V17.4892C43.8133 18.2122 43.2239 18.8037 42.5035 18.8037C41.7832 18.8037 41.1938 18.2122 41.1938 17.4892V7.7397ZM54.9026 17.3139V7.78351C54.9026 7.06052 55.492 6.46898 56.2124 6.46898H63.0014C63.6562 6.42516 64.2238 6.90715 64.2893 7.56442C64.3329 8.22169 63.8527 8.79133 63.1978 8.85705C63.1323 8.85705 63.0887 8.85705 63.0232 8.85705H57.6095V11.3328H62.2373C62.8922 11.289 63.4598 11.771 63.5253 12.4282C63.5689 13.0855 63.0887 13.6551 62.4338 13.7208C62.3683 13.7208 62.3246 13.7208 62.2592 13.7208H57.6095V16.2842H63.1105C63.7654 16.2842 64.3111 16.8319 64.3111 17.4892C64.3111 18.1465 63.7654 18.6723 63.1105 18.6723H56.2779C55.5575 18.6723 54.9681 18.0807 54.9681 17.3577M66.5814 7.7397C66.5814 7.0167 67.1708 6.42516 67.8911 6.42516H68.1968C68.6988 6.40325 69.1791 6.64425 69.441 7.08243L72.6718 12.3406L75.9025 7.08243C76.1427 6.64425 76.6011 6.40325 77.1032 6.42516H77.4088C78.1291 6.42516 78.7185 7.0167 78.7185 7.7397V17.4235C78.7185 18.1465 78.1291 18.738 77.4088 18.738C76.6884 18.738 76.099 18.1465 76.099 17.4235V11.3328L73.7633 14.9916C73.4358 15.605 72.6936 15.846 72.0824 15.5174C71.8641 15.4078 71.6676 15.2107 71.5585 14.9916L69.2446 11.4204V17.4892C69.2446 18.2122 68.6552 18.8037 67.9348 18.8037C67.2144 18.8037 66.625 18.2122 66.625 17.4892V7.7397M91.2705 12.6035V12.5597C91.3359 10.5002 89.7424 8.79133 87.6904 8.7256C87.6468 8.7256 87.6249 8.7256 87.5813 8.7256C85.573 8.7256 83.9358 10.3469 83.9358 12.3625C83.9358 12.4282 83.9358 12.472 83.9358 12.5378C83.8703 14.5753 85.4638 16.3061 87.5158 16.3718C87.5594 16.3718 87.6031 16.3718 87.6468 16.3718C89.6551 16.3718 91.2923 14.7506 91.2923 12.7349C91.2923 12.6692 91.2923 12.6254 91.2923 12.5597M81.1198 12.5816V12.5378C81.2289 8.94469 84.2196 6.14034 87.7996 6.24989C91.205 6.35943 93.9555 9.11996 94.0646 12.5378C93.9555 16.1308 90.9867 18.9352 87.4066 18.8476C84.0013 18.7599 81.2507 15.9994 81.1198 12.5816ZM96.2476 13.4141V7.67397C96.2476 6.92906 96.837 6.33752 97.5792 6.33752C98.3214 6.33752 98.9108 6.92906 98.9108 7.67397V13.3484C98.9108 15.3202 99.8931 16.3718 101.53 16.3718C103.167 16.3718 104.15 15.364 104.15 13.436V7.67397C104.15 6.92906 104.739 6.33752 105.481 6.33752C106.224 6.33752 106.813 6.92906 106.813 7.67397V13.3265C106.813 17.0291 104.739 18.8476 101.487 18.8476C98.234 18.8476 96.2694 17.0291 96.2476 13.4141ZM114.977 12.3406C116.287 12.3406 117.029 11.6395 117.029 10.6098V10.566C117.029 9.40478 116.221 8.81324 114.934 8.81324H112.27V12.3187L114.977 12.3406ZM109.585 7.7397C109.585 7.0167 110.175 6.42516 110.895 6.42516H115.108C116.418 6.33752 117.684 6.79761 118.645 7.65206C119.365 8.39696 119.736 9.40478 119.692 10.4345V10.4783C119.78 12.1215 118.797 13.6332 117.269 14.2029L119.147 16.4814C119.409 16.7662 119.561 17.1386 119.583 17.5111C119.583 18.1903 119.016 18.7599 118.339 18.738H118.317C117.793 18.738 117.313 18.4751 117.007 18.0369L114.388 14.7506H112.249V17.4454C112.249 18.1903 111.659 18.7818 110.917 18.7818C110.175 18.7818 109.585 18.1903 109.585 17.4454V7.7397ZM121.919 17.3358C121.592 17.0948 121.417 16.7224 121.417 16.328C121.417 15.6488 121.963 15.1011 122.639 15.1011H122.661C122.945 15.1011 123.207 15.1888 123.425 15.3421C124.32 16.0432 125.412 16.4157 126.547 16.4376C127.638 16.4376 128.293 15.9994 128.293 15.2764V15.2326C128.293 14.5753 127.878 14.2028 125.848 13.677C123.403 13.0417 121.81 12.3625 121.81 9.9525V9.90869C121.81 7.69588 123.578 6.22797 126.067 6.22797C127.42 6.20607 128.773 6.57852 129.93 7.30152C130.52 7.65206 130.716 8.41888 130.345 9.01042C130.127 9.38287 129.712 9.62387 129.275 9.62387C129.035 9.62387 128.817 9.55814 128.621 9.42669C127.857 8.92278 126.983 8.63797 126.067 8.61606C125.041 8.61606 124.517 9.07615 124.517 9.6896C124.517 10.5002 125.041 10.7631 127.136 11.289C129.603 11.9462 131 12.8226 131 14.9478V14.9916C131 17.4235 129.166 18.7818 126.525 18.7818C124.888 18.7818 123.272 18.2779 121.941 17.3139" fill="white"/>
</svg>
