<svg width="101" height="30" viewBox="0 0 101 30" fill="none" xmlns="http://www.w3.org/2000/svg">
<path d="M85.097 26.0061H90.0409V16.849C90.0409 14.7603 91.2452 13.2821 93.0198 13.2821C94.7311 13.2821 95.6185 14.5034 95.6185 16.2386V26.0062H100.562V15.2748C100.562 11.6436 98.4076 9.07307 94.9213 9.07307C92.7031 9.07307 91.15 10.0372 89.9774 11.8043H89.8823V9.5552H85.0969V26.0061H85.097ZM75.3993 9.10518C70.2334 9.10518 66.7793 12.8645 66.7793 17.8127C66.7793 22.729 70.2335 26.5205 75.3993 26.5205C80.565 26.5205 84.0193 22.729 84.0193 17.8127C84.0193 12.8644 80.565 9.10518 75.3993 9.10518ZM75.3676 22.8252C73.0221 22.8252 71.7865 20.8333 71.7865 17.8127C71.7865 14.7603 73.0221 12.8002 75.3676 12.8002C77.7126 12.8002 79.0121 14.7601 79.0121 17.8127C79.0121 20.8333 77.7126 22.8252 75.3676 22.8252ZM52.7078 26.0061H66.5889V22.0542H58.7295V21.9574L66.2404 13.4105V9.5552H52.7078V13.507H60.3139V13.6035L52.7078 22.2146V26.0061ZM46.3688 26.0061H51.3444V9.5552H46.3688V26.0061ZM34.8329 26.0061H39.7768V18.4556C39.7768 15.0173 41.8051 13.507 44.9109 13.9249H45.006V9.58731C44.7524 9.49081 44.4673 9.45871 43.992 9.45871C42.0588 9.45871 40.7594 10.3582 39.65 12.2861H39.5548V9.5552H34.8329V26.0061ZM25.7375 22.8576C23.5507 22.8576 22.2198 21.4112 21.9661 19.1947H33.6603C33.692 15.6598 32.7728 12.8323 30.8396 11.0651C29.4772 9.77996 27.6704 9.0729 25.3887 9.0729C20.5085 9.0729 17.1172 12.8323 17.1172 17.7484C17.1172 22.6964 20.3498 26.4878 25.7057 26.4878C27.734 26.4878 29.3502 25.9417 30.6813 25.0097C32.1075 24.0142 33.1214 22.5678 33.4065 21.1221H28.6529C28.1777 22.2146 27.1951 22.8576 25.7375 22.8576ZM25.4838 12.6715C27.2268 12.6715 28.4311 13.9893 28.6213 15.917H21.9977C22.3783 13.9567 23.4239 12.6715 25.4838 12.6715ZM46.3688 3.70679H51.3444V8.1732H46.3688V3.70679Z" fill="white"/>
<path d="M11.3302 25.8014L5.17839 9.55518H0.1875L6.33932 25.8014C6.38599 25.9253 6.50316 26.0064 6.63351 26.0064H11.6244C11.4941 26.0064 11.3769 25.9253 11.3302 25.8014Z" fill="white"/>
<path d="M6.927 25.8014L13.0788 9.55518H18.0697L11.9179 25.8014C11.8712 25.9253 11.754 26.0064 11.6237 26.0064H6.63281C6.76332 26.0064 6.8805 25.9253 6.927 25.8014Z" fill="white"/>
</svg>
